/* XPM */
static char *_18c121b95f1401fafef8490b71f599d2CMIwvesng1hVWU2[] = {
/* columns rows colors chars-per-pixel */
"64 64 8 1 ",
"  c #BE2B2B",
". c #AC3232",
"X c #D95763",
"o c #D9A066",
"O c #5B6EE1",
"+ c #5FCDE4",
"@ c #9BADB7",
"# c white",
/* pixels */
"################################################################",
"################################################################",
"################################################################",
"################################################################",
"################################################################",
"################################################################",
"################################################################",
"################################################################",
"############################ #############.#####################",
"############################@@@@@@@@@@@@@@@#####################",
"############################@@@@@@@@@@@@@@@#####################",
"############################@@XX@XX@XX@XX@@#####################",
"############################@@oo@oo@oo@oo@@#####################",
"############################@@@@@@@@@@@@@@@#####################",
"############################@@@@@@@@@@@@@@@#####################",
"############################@@XX@XX@XX@XX@@#####################",
"############################@@oo@oo@oo@oo@@#####################",
"#####@@@@@@@@@@@############@@@@@@@@@@@@@@@#####################",
"#####@@@O@@O@@@@############@@@@@@@@@@@@@@@#####################",
"#####@@@O@@O@@@@############@@XX@XX@XX@XX@@#####################",
"#####@@@OOOO@@@@############@@oo@oo@oo@oo@@#####################",
"#####@@@O@@O@@@@############@@@@@@@@@@@@@@@#####################",
"#####@@@O@@O@@@@############@@@@@@@@@@@@@@@#####################",
"#####@@@@@@@@@@@############@@XX@XX@XX@XX@@##############@######",
"#####@@@@OOO@@@@############@@oo@oo@oo@oo@@#####@@@@@@@@@@######",
"#####@@@O@@O@@@@############@@@@@@@@@@@@@@@#####@@@@+++@@@######",
"#####@@@@OO@@@@@############@@@@@@@@@@@@@@@#####@@@+@@@@@@######",
"#####@@@O@@@@@@@############@@XX@XX@XX@XX@@#####@@@+@@@@@@######",
"#####@@@OOOO@@@@############@@oo@oo@oo@oo@@#####@@@@+++@@@######",
"#####@@@@@@@@@@@############@@@@@@@@@@@@@@@#####@@@@@@@@@@######",
"#####@@@@OO@@@@@############@@@@@@@@@@@@@@@#####@@@@++@@@@######",
"#####@@@O@@O@@@@############@@XX@XX@XX@XX@@#####@@@+@@+@@@######",
"#####@@@O@@O@@@@############@@oo@oo@oo@oo@@#####@@@+@@+@@@######",
"#####@@@O@@O@@@@############@@@@@@@@@@@@@@@#####@@@@++@@@@######",
"#####@@@@OO@@@@@############@@@@@@@@@@@@@@@#####@@@@@@@@@@######",
"#####@@@@@@@@@@@############@@XX@XX@XX@XX@@#####@@@@++@@@@######",
"#####@@@@@@@@@@@############@@oo@oo@oo@oo@@#####@@@+@@+@@@######",
"#####@@@@@@@@@@@############@@@@@@@@@@@@@@@#####@@@+@@+@@@######",
"#####@@@@@@@@@@@############@@@@@@@@@@@@@@@#####@@@@++@@@@######",
"#####@@@@@@@@@@@############@@@@@@@@@@@@@@@#####@@@@@@@@@@######",
"#####@@@@@@@@@@@############@@@@@@@@@@@@@@@#####################",
"################################################################",
"################################################################",
"################################################################",
"################################################################",
"################################################################",
"################################################################",
"################################################################",
"################################################################",
"################################################################",
"################################################################",
"################################################################",
"################################################################",
"################################################################",
"################################################################",
"################################################################",
"################################################################",
"################################################################",
"################################################################",
"################################################################",
"################################################################",
"################################################################",
"################################################################",
"################################################################"
};
