/* XPM */
static char *_46d7ae360ca4dc6b0220a3d94949f4bpwOQg1uVG46jHnsI[] = {
/* columns rows colors chars-per-pixel */
"64 64 6 1 ",
"  c black",
". c #AC3232",
"X c #DF7126",
"o c #D95763",
"O c #847E87",
"+ c white",
/* pixels */
"++++++++++++++++++++++++++++++++++++++++++++++++++++++++++++++++",
"++++++++++++++++++++++++++++++++++++++++++++++++++++++++++++++++",
"++++++++++++++++++++++++++++++++++++++++++++++++++++++++++++++++",
"++++++++++++++++++++++++++++++++++++++++++++++++++++++++++++++++",
"++++++++++++++++++++++++++++++++++++++++++++++++++++++++++++++++",
"++++++++++++++++++++++++++++++++++++++++++++++++++++++++++++++++",
"++++++++++++++++++++++++++++++++++++++++++++++++++++++++++++++++",
"++++++++++++++++++++++++++++++++++++++++++++++++++++++++++++++++",
"++++++++++++++++++++++++++++++++++++++++++++++++++++++++++++++++",
"++++++++++++++++++++++++++++++++++++++++++++++++++++++++++++++++",
"++++++++++++++++++++++++++++++++++++++++++++++++++++++++++++++++",
"++++++++++++++++++++++++++++++++++++++++++++++++++++++++++++++++",
"++++++++++++++++++++++++++++++++++++++++++++++++++++++++++++++++",
"++++++++++++++++++++++++++++++++++++++++++++++++++++++++++++++++",
"++++++++++++++++++++++++++++++++++++++++++++++++++++++++++++++++",
"++++++++++++++++++++++++++++++++++++++++++++++++++++++++++++++++",
"++++++++++++++++++++++++++++++++++++++++++++++++++++++++++++++++",
"++++++++++++++++++++++++++++++++++++++++++++++++++++++++++++++++",
"++++++++++++++++++++++++++++++++++++++++++++++++++++++++++++++++",
"++++++++++++++++++++++++++++++++++++++++++++++++++++++++++++++++",
"++++++++++++++++++++++++++++++++++++++++++++++++++++++++++++++++",
"++++++++++++++++++++++++++++++++++++++++++++++++++++++++++++++++",
"++++++++++++++++++++++++++++++++++++++++++++++++++++++++++++++++",
"++++++++++++++++++++++++++++++++++++++++++++++++++++++++++++++++",
"++++++++++++++++++++++++++++++++++++++++++++++++++++++++++++++++",
"++++++++++++++++++++++++++++++++++++++++++++++++++++++++++++++++",
"++++++++++++++++++++++++++++++++++++++++++++++++++++++++++++++++",
"++++++++++++++++++++++++++++++++++++++++++++++++++++++++++++++++",
"++++++++++++++++++++++++++++++++++++++++++++++++++++++++++++++++",
"++++++++++++++++++++++++++++++++++++++++++++++++++++++++++++++++",
"++++++++++++++++++++++++++++++++++++++++++++++++++++++++++++++++",
"++++++++++++++++++++++++++++++++++++++++++++++++++++++++++++++++",
"++++++++++++++++++++++++++++++++++++++++++++++++++++++++++++++++",
"++++++++++++++++++++++++++++++++++++++++++++++++++++++++++++++++",
"++++++++++++++++++++++++++++++++++++++++++++++++++++++++++++++++",
"++++++++++++++++++++++++++++++++++++++++++++++++++++++++++++++++",
"++++++++++++++++++++++++++++++++++++++++++++++++++++++++++++++++",
"++++++++++++++++++++++++++++++++++++++++++++++++++++++++++++++++",
"++++++++++++++++++++++++++++++++++++++++++++++++++++++++++++++++",
"++++++++++++++++++++++++++++++++++++++++++++++++++++++++++++++++",
"++      ++++++++++++++++++++++++++++++++++++++ O            ++++",
"+        +++++++++++++++++++++++++++++++++++++  O           ++++",
"+        +++++++++++++++++++++++++++++++++++++   O          ++++",
"+ ...... +++++++++++  ++++++++++++++++++++++++                 O",
"+ ...... +++++++++      ++++++++++++++++++++++                O ",
"+ XXXXXX +++++++++ .... ++++++++++++++++++++++ ........ ...  O  ",
"+ XXXXXX +++++++++ XXXX + + + ++++++++++++++++ XXXXXXXX XXX O   ",
"+ oooooo +++++++++ oooo        +++++++++++++++ oooooooo ooo  O  ",
"+        +++++++++             +++++++++++++++                O ",
"+        +++++++++      ...... +++++++++++++++ ........ ...    O",
"+        +++++++++ .... ...... +++++++++++++++ XXXXXXXX XXX   O ",
"+ ...... +++++++++ .... XXXXXX +++++++++++++++ oooooooo ooo  O  ",
"+ ...... +++++++++ XXXX XXXXXX +++++++++++++++              O   ",
"+ XXXXXX +++++++++ XXXX oooooo +++++++++++++++ ........ ...  O  ",
"+ XXXXXX +++++++++ oooo        +++++++++++++++ XXXXXXXX XXX   O ",
"+ oooooo +++++++++      ...... +++++++++++++++ oooooooo ooo    O",
"+        +++++++++      ...... +++++++++++++++                O ",
"+        +++++++++      XXXXXX +++++++++++++++ ........ ...  O  ",
"+        +++++++++ .... XXXXXX +++++++++++++++ XXXXXXXX XXX O   ",
"+ ...... +++++++++ XXXX oooooo +++++++++++++++ oooooooo ooo  O  ",
"+ XXXXXX +++++++++ oooo oooooo +++++++++++++++                O ",
"                                                                ",
"                                                                ",
"                                                                "
};
