/* XPM */
static char *_8c943946514430fd2ceb94d2fe32d96WvZ2JIBaoQFdRnkb[] = {
/* columns rows colors chars-per-pixel */
"64 64 10 1 ",
"  c #595652",
". c #696A6A",
"X c #AC3232",
"o c #F00404",
"O c #FB0000",
"+ c #F70909",
"@ c #DF7126",
"# c #847E87",
"$ c #5FCDE4",
"% c white",
/* pixels */
"%%%%%%%%%%%%%%%%%%%%%%%%%%%%%%%%%%%%%%%%%%%%%%%%%%%%%%%%%%%%%%%%",
"%%%%%%%%%%%%%%%%%%%%%%%%%%%%%%%%%%%%%%%%%%%%%%%%%%%%%%%%%%%%%%%%",
"%%%%%%%%%%%%%%%%%%%%%%%%%%%%%%%%%%%%%%%%%%%%%%%%%%%%%%%%%%%%%%%%",
"%%%%%%%%%%%%%%%%%%%%%%%%%%%%%%%%%%%%%%%%%%%%%%%%%%%%%%%%%%%%%%%%",
"%%%%%%%%%%%%%%%%%%%%%%%%%%%%%%%%%%%%%%%%%%%%%%%%%%%%%%%%%%%%%%%%",
"%%%%%%%%%%%%%%%%%%%%%%%%%%%%%%%%%%%%%%%%%%%%%%%%%%%%%%%%%%%%%%%%",
"%%%%%%%%%%%%%%%%%%%%%%%%%%%%%%%%%%%%%%%%%%%%%%%%%%%%%%%%%%%%%%%%",
"%%%%%%%%%%%%%%%%%%%%%%%%%%%%%%%%%%%%%%%%%%%%%%%%%%%%%%%%%%%%%%%%",
"%%%%%%%%%%%%%%%%%%%%%%%%%%%%%%%%%%%%%%%%%%%%%%%%%%%%%%%%%%%%%%%%",
"%%%%%%%%%%%%%%%%%%%%%%%%%%%%%%%%%%%%%%%%%%%%%%%%%%%%%%%%%%%%%%%%",
"%%%%%%%%%%%%%%%%%%%%%%%%%%%%%%%%%%%%%%%%%%%%%%%%%%%%%%%%%%%%%%%%",
"%%%%%%%%%%%%%%%%%%%%%%%%%%%%%%%%%%%%%%%%%%%%%%%%%%%%%%%%%%%%%%%%",
"%%%%%%%%%%%%%%%%%%%%%%%%%%%%%%%%%%%%%%%%%%%%%%%%%%%%%%%%%%%%%%%%",
"%%%%%%%%%%%%%%%%%%%%%%%%%%%%%%%%%%%%%%%%%%%%%%%%%%%%%%%%%%%%%%%%",
"%%%%%%%%%%%%%%%%%%%%%%%%%%%%%%%%%%%%%%%%%%%%%%%%%%%%%%%%%%%%%%%%",
"%%%%%%%%%%%%%%%%%%%%%%%%%%%%%%%%%%%%%%%%%%%%%%%%%%%%%%%%%%%%%%%%",
"%%%%%%%%%%%%%%%%%%%%%%%%%%%%%%%%%%%%%%%%%%%%%+%%%%%%%%%%%%%%%%%%",
"%%%%%%%%%%%%%%%%%%%%%%%%%%%%%%%%%%%%%%%%%%%%...%%%%%%%%%%%%%%%%%",
"%%%%%%%%%%%%%%%%%%%%%%%%%%%%%%%%%%%%%%%%%%%o...o%%%%%%%%%%%%%%%%",
"%%%%%%%%%%%%%%%%%%%%%%%%%%%%%%%%%%%%%%%%%%.......%%%%%%%%%%%%%%%",
"%%%%%%%%%%%%%%%%%%%%%%%%%%%%%%%%%%%%%%%%%o.......o%%%%%%%%%%%%%%",
"%%%%%%%%%%%%%%%%%%%%%%%%%%%%%%%%%%%%%%%%...........%%%%%%%%%%%%%",
"%%%%%%%%%%         %%%%%%%%%%%%%%%%%%%%+...........+%%%%%%%%%%%%",
"%%%%%%%%%%%%%% %%%%%  %%%%%%%%%%%%%%%%%.............%%%%%%%%%%%%",
"%%%%%%%%%%%%%         %%%%%%%%%%%%%%%%%.............%%%%%%%%%%%%",
"%%%%%%%%%%%%     %%%%%%%%%%%%%%%%%%%%%%.............%%%%%%%%%%%%",
"%%%%%%%%O%%     %%%%%%O%%%...%%%%%%%%%%.............%%%%%%%%%%%%",
"%%%%%%%%...#...........%%.....%%%%%%%%%.............%%%%%%%%%%%%",
"%%%%%%%%..#............%.......%%%%%%%%.............%%%%%%%%%%%%",
"%%%%%%%%.XXXXXXXXXXXXX.%.$$$$$.%%%%%%%%.............%%%%%%%%%%%%",
"%%%%%%%%.@@@@@@@@@@@@@.%.$...$.%%%%%%%%.............%%%%%%%%%%%%",
"%%%%%%%%...............%.$$$$..%%%%%%%%.............%%%%%%%%%%%%",
"%%%%%%%%...............%.$...$.%%%%%%%%.............%%%%%%%%%%%%",
"%%%%%%%%...............%.$$$$$.%%%%%%%%.............%%%%%%%%%%%%",
"%%%%%%%%...............%.......%%%%%%%%.............%%%%%%%%%%%%",
"%%%%%%%%...............%.$$$$$.%%%%%%%%.............%%%%%%%%%%%%",
"%%%%%%%%...............%.$...$.%%%%%%%%.............%%%%%%%%%%%%",
"%%%%%%%%.................$$$$$.%%%%%%%%.............%%%%%%%%%%%%",
"%%%%%%%%...............%.$..$..%%%%%%%%.............%%%%%%%%%%%%",
"%%%%%%%%...............%.$..$$.%%%%%%%%.............%%%%%%%%%%%%",
"%%%%%%%%...............%.......%%%%%%%%.............%%%%%%%%%%%%",
"%%%%%%%%...............%.$$$$$.%%%%%%%%.............%%%%%%%%%%%%",
"%%%%%%%%...............%.$.....%%%%%%%%.............%%%%%%%%%%%%",
"%%%%%%%%...............%.$$$$..%%%%%%%%.............%%%%%%%%%%%%",
"%%%%%%%%...............%.$.....%%%%%%%%.............%%%%%%%%%%%%",
"%%%%%%%%...............%.$$$$$.%%%%%%%%.............%%%%%%%%%%%%",
"%%%%%%%%...............%.......%%%%%%%%.............%%%%%%%%%%%%",
"%%%%%%%%...............%..$$$..%%%%%%%%.............%%%%%%%%%%%%",
"%%%%%%%%...............%.$$.$$.%%%%%%%%.............%%%%%%%%%%%%",
"%%%%%%%%...............%.$...$.%%%%%%%%.............%%%%%%%%%%%%",
"%%%%%%%%...............%.$$$$$.%%%%%%%%.............%%%%%%%%%%%%",
"%%%%%%%%...............%.$...$.%%%%%%%%.............%%%%%%%%%%%%",
"%%%%%%%%.......................%%%%%%%%.............%%%%%%%%%%%%",
"%%%%%%%%...............%.$$$$..%%%%%%%%.............%%%%%%%%%%%%",
"%%%%%%%%...............%.$...$.%%%%%%%%.............%%%%%%%%%%%%",
"%%%%%%%%...............%.$...$.%%%%%%%%.............%%%%%%%%%%%%",
"%%%%%%%%...............%.$...$.%%%%%%%%.............%%%%%%%%%%%%",
"%%%%%%%%...............%.$$$$..%%%%%%%%.............%%%%%%%%%%%%",
"%%%%%%%%...............%.......%%%%%%%%.............%%%%%%%%%%%%",
"%%%%%%%%...............%.......%%%%%%%%.............%%%%%%%%%%%%",
"%%%%%%%%...............%.......%%%%%%%%.............%%%%%%%%%%%%",
"%%%%%%%%...............%.......%%%%%%%%.............%%%%%%%%%%%%",
"%%%%%%%%...............%%.....%%%%%%%%%.............%%%%%%%%%%%%",
"%%%%%%%%...............%%%...%%%%%%%%%%.............%%%%%%%%%%%%"
};
