/* XPM */
static char *_9c490fd9ad54768c368bc1ef7c9018bMmhyQ1F0u2pvLTfX[] = {
/* columns rows colors chars-per-pixel */
"32 32 5 1 ",
"  c black",
". c #BC3535",
"X c #EC4700",
"o c #DC534B",
"O c white",
/* pixels */
"OOOOOO                    OOOOOO",
"OOOOOO                    OOOOOO",
"OOOOOOooooooooooooooooooooOOOOOO",
"OOOOOO.XXXXXXXXXXXXXXXXXXXOOOOOO",
"OOOOOO                    OOOOOO",
"OOOOOO                    OOOOOO",
"OOOOOOooooooooooooooooooooOOOOOO",
"OOOOOO..XXXXXXXXXXXXXXXXXXOOOOOO",
"OOOOOO                    OOOOOO",
"OOOOOO                    OOOOOO",
"OOOOOOooooooooooooooooooooOOOOOO",
"OOOOOO...XXXXXXXXXXXXXXXXXOOOOOO",
"OOOOOO                    OOOOOO",
"OOOOOO                    OOOOOO",
"OOOOOOooooooooooooooooooooOOOOOO",
"OOOOOO....XXXXXXXXXXXXXXXXOOOOOO",
"OOOOOO                    OOOOOO",
"OOOOOO                    OOOOOO",
"OOOOOOooooooooooooooooooooOOOOOO",
"OOOOOO.....XXXXXXXXXXXXXXXOOOOOO",
"OOOOOO                    OOOOOO",
"OOOOOO                    OOOOOO",
"OOOOOOooooooooooooooooooooOOOOOO",
"OOOOOO......XXXXXXXXXXXXXXOOOOOO",
"OOOOOO                    OOOOOO",
"OOOOOO                    OOOOOO",
"OOOOOOooooooooooooooooooooOOOOOO",
"OOOOOO.......XXXXXXXXXXXXXOOOOOO",
"OOOOOO                    OOOOOO",
"OOOOOO                    OOOOOO",
"OOOOOOOOOOOOOOOOOOOOOOOOOOOOOOOO",
"OOOOOOOOOOOOOOOOOOOOOOOOOOOOOOOO"
};
