/* XPM */
static char *_78cf335cc8d4c308078a5be33244ea6Sw6TbEs11WeHVRhy[] = {
/* columns rows colors chars-per-pixel */
"32 32 6 1 ",
"  c black",
". c #BC3535",
"X c #EC4700",
"o c #DC534B",
"O c #FF6363",
"+ c white",
/* pixels */
"++++++++++++++++++++++++++++++++",
"++++++++++++++++++++++++++++++++",
"++++++                    ++++++",
"++++++                    ++++++",
"++++++.......XXXXXXXXXXXXX++++++",
"++++++oooooooooooooooooooo++++++",
"++++++                    ++++++",
"++++++                    ++++++",
"++++++......XXXXXXXXXXXXXX++++++",
"++++++OOOOOOOOOOOOOOOOOOOO++++++",
"++++++                    ++++++",
"++++++                    ++++++",
"++++++.....XXXXXXXXXXXXXXX++++++",
"++++++oooooooooooooooooooo++++++",
"++++++                    ++++++",
"++++++                    ++++++",
"++++++....XXXXXXXXXXXXXXXX++++++",
"++++++oooooooooooooooooooo++++++",
"++++++                    ++++++",
"++++++                    ++++++",
"++++++...XXXXXXXXXXXXXXXXX++++++",
"++++++oooooooooooooooooooo++++++",
"++++++                    ++++++",
"++++++                    ++++++",
"++++++..XXXXXXXXXXXXXXXXXX++++++",
"++++++oooooooooooooooooooo++++++",
"++++++                    ++++++",
"++++++                    ++++++",
"++++++.XXXXXXXXXXXXXXXXXXX++++++",
"++++++oooooooooooooooooooo++++++",
"++++++                    ++++++",
"++++++                    ++++++"
};
