/* XPM */
static char *_433e9fd70454f31dae6944afa75e182IAT8MnmWFhPTSRLK[] = {
/* columns rows colors chars-per-pixel */
"32 32 2 1 ",
"  c black",
". c white",
/* pixels */
"................................",
"................................",
"................................",
"................................",
"................................",
"................................",
"................................",
"................................",
"............         ...........",
"...........  .......   .........",
"..........  .......... .........",
".........  ...........  ........",
"........  ............. ........",
"....................... ........",
"......................  ........",
"....................  ..........",
"..................  ............",
"..............    ..............",
"............  ..................",
"..........  ....................",
"........  ......................",
"........ .......................",
"........ .......................",
"........                ........",
"................................",
"................................",
"................................",
"................................",
"................................",
"................................",
"................................",
"................................"
};
