/* XPM */
static char *_f8fbb11c08d44a0b1634433d1e40702ThNqqUvPfiwFrOul[] = {
/* columns rows colors chars-per-pixel */
"32 32 2 1 ",
"  c black",
". c white",
/* pixels */
"................................",
"................................",
"................................",
"................................",
"................................",
"................................",
"................................",
"................................",
"................................",
"..............        ..........",
"............. .......  .........",
"......................  ........",
"....................... ........",
"......................  ........",
".....................  .........",
"..................... ..........",
"................     ...........",
"..................... ..........",
".....................  .........",
"......................  ........",
"....................... ........",
"......................  ........",
"............. .......  .........",
"..............        ..........",
"................................",
"................................",
"................................",
"................................",
"................................",
"................................",
"................................",
"................................"
};
