/* XPM */
static char *result[] = {
/* columns rows colors chars-per-pixel */
"64 64 8 1 ",
"  c #AC3232",
". c #DF7126",
"X c #D95763",
"o c #FF5161",
"O c #D9A066",
"+ c #5B6EE1",
"@ c #5FCDE4",
"# c #9BADB7",
/* pixels */
"                                                                ",
"                                                                ",
"                                                                ",
"                                                                ",
"XXXXXXXXXXXXX                                       XXXXXXXXXXXX",
"XXXXXXXXXXXXXXXXXXXXXXXXXXXXXXXXXXXXXXXXXXXXXXXXXXXXXXXXXXXXXXXX",
"XXXXXXXXXXXXXXXXXXXXXXXXXXXXXXXXXXXXXXXXXXXXXXXXXXXXXXXXXXXXXXXX",
"XXXXXXXXXXXXXXXXXXXXXXXXXXXXXXXXXXXXXXXXXXXXXXXXXXXXXXXXXXXXXXXX",
"XXXXXXXXXXXXXXXXXXXXXXXXXXXX XXXXXXXXXXXXX XXXXXXXXXXXXXXXXXXXXX",
"XXXXXXXXXXXXXXXXXXXXXXXXXXXX###############XXXXXXXXXXXXXXXXXXXXX",
"XXXXXXXXXXXXXXXXXXXXXXXXXXXX###############XXXXXXXXXXXXXXXXXXXXX",
"XXXXXXXXXXXXXXXXXXXXXXXXXXXX##XX#XX#XX#XX##XXXXXXXXXXXXXXXXXXXXX",
"XXXXXXXXXXXXXXXXXXXXXXXXXXXX##OO#OO#OO#OO##XXXXXXXXXXXXXXXXXXXXX",
"oooooooooooooXXXXXXXXXXXXXXX###############XXXXXXXXXoooooooooooo",
"oooooooooooooooooooooooooooo###############ooooooooooooooooooooo",
"oooooooooooooooooooooooooooo##XX#XX#XX#XX##ooooooooooooooooooooo",
"oooooooooooooooooooooooooooo##OO#OO#OO#OO##ooooooooooooooooooooo",
"ooooo###########oooooooooooo###############ooooooooooooooooooooo",
"ooooo###+##+####oooooooooooo###############ooooooooooooooooooooo",
"ooooo###+##+####oooooooooooo##XX#XX#XX#XX##ooooooooooooooooooooo",
"ooooo###++++####oooooooooooo##OO#OO#OO#OO##ooooooooooooooooooooo",
"ooooo###+##+####oooooooooooo###############ooooooooooooooooooooo",
"ooooo###+##+####oooooooooooo###############ooooooooooooooooooooo",
".....###########oooooooooooo##XX#XX#XX#XX##ooooooooo.....#......",
".....####+++####............##OO#OO#OO#OO##.....##########......",
".....###+##+####............###############.....####@@@###......",
".....####++#####............###############.....###@######......",
".....###+#######............##XX#XX#XX#XX##.....###@######......",
".....###++++####............##OO#OO#OO#OO##.....####@@@###......",
".....###########............###############.....##########......",
".....####++#####............###############.....####@@####......",
".....###+##+####............##XX#XX#XX#XX##.....###@##@###......",
".....###+##+####............##OO#OO#OO#OO##.....###@##@###......",
".....###+##+####............###############.....####@@####......",
".....####++#####............###############.....##########......",
".....###########............##XX#XX#XX#XX##.....####@@####......",
".....###########............##OO#OO#OO#OO##.....###@##@###......",
".....###########............###############.....###@##@###......",
".....###########............###############.....####@@####......",
".....###########............###############.....##########......",
".....###########............###############.....................",
"................................................................",
"OOOOOOOOOOOOO.......................................OOOOOOOOOOOO",
"OOOOOOOOOOOOOOOOOOOOOOOOOOOOOOOOOOOOOOOOOOOOOOOOOOOOOOOOOOOOOOOO",
"OOOOOOOOOOOOOOOOOOOOOOOOOOOOOOOOOOOOOOOOOOOOOOOOOOOOOOOOOOOOOOOO",
"OOOOOOOOOOOOOOOOOOOOOOOOOOOOOOOOOOOOOOOOOOOOOOOOOOOOOOOOOOOOOOOO",
"OOOOOOOOOOOOOOOOOOOOOOOOOOOOOOOOOOOOOOOOOOOOOOOOOOOOOOOOOOOOOOOO",
"OOOOOOOOOOOOOOOOOOOOOOOOOOOOOOOOOOOOOOOOOOOOOOOOOOOOOOOOOOOOOOOO",
"OOOOOOOOOOOOOOOOOOOOOOOOOOOOOOOOOOOOOOOOOOOOOOOOOOOOOOOOOOOOOOOO",
"OOOOOOOOOOOOOOOOOOOOOOOOOOOOOOOOOOOOOOOOOOOOOOOOOOOOOOOOOOOOOOOO",
"OOOOOOOOOOOOOOOOOOOOOOOOOOOOOOOOOOOOOOOOOOOOOOOOOOOOOOOOOOOOOOOO",
"OOOOOOOOOOOOOOOOOOOOOOOOOOOOOOOOOOOOOOOOOOOOOOOOOOOOOOOOOOOOOOOO",
"OOOOOOOOOOOOOOOOOOOOOOOOOOOOOOOOOOOOOOOOOOOOOOOOOOOOOOOOOOOOOOOO",
"OOOOOOOOOOOOOOOOOOOOOOOOOOOOOOOOOOOOOOOOOOOOOOOOOOOOOOOOOOOOOOOO",
"OOOOOOOOOOOOOOOOOOOOOOOOOOOOOOOOOOOOOOOOOOOOOOOOOOOOOOOOOOOOOOOO",
"OOOOOOOOOOOOOOOOOOOOOOOOOOOOOOOOOOOOOOOOOOOOOOOOOOOOOOOOOOOOOOOO",
"OOOOOOOOOOOOOOOOOOOOOOOOOOOOOOOOOOOOOOOOOOOOOOOOOOOOOOOOOOOOOOOO",
"OOOOOOOOOOOOOOOOOOOOOOOOOOOOOOOOOOOOOOOOOOOOOOOOOOOOOOOOOOOOOOOO",
"OOOOOOOOOOOOOOOOOOOOOOOOOOOOOOOOOOOOOOOOOOOOOOOOOOOOOOOOOOOOOOOO",
"OOOOOOOOOOOOOOOOOOOOOOOOOOOOOOOOOOOOOOOOOOOOOOOOOOOOOOOOOOOOOOOO",
"OOOOOOOOOOOOOOOOOOOOOOOOOOOOOOOOOOOOOOOOOOOOOOOOOOOOOOOOOOOOOOOO",
"OOOOOOOOOOOOOOOOOOOOOOOOOOOOOOOOOOOOOOOOOOOOOOOOOOOOOOOOOOOOOOOO",
"OOOOOOOOOOOOOOOOOOOOOOOOOOOOOOOOOOOOOOOOOOOOOOOOOOOOOOOOOOOOOOOO",
"OOOOOOOOOOOOOOOOOOOOOOOOOOOOOOOOOOOOOOOOOOOOOOOOOOOOOOOOOOOOOOOO"
};
