/* XPM */
static char *result[] = {
/* columns rows colors chars-per-pixel */
"64 64 14 1 ",
"  c #454242",
". c #BC3535",
"X c #FB0000",
"o c #FF0404",
"O c #92562B",
"+ c #DC7F0F",
"@ c #FAB40B",
"# c #8CD612",
"$ c #EC9546",
"% c #1C6CCB",
"& c #1E79E5",
"* c #847E87",
"= c #FFF9E4",
"- c white",
/* pixels */
"----------------------------------------------------------------",
"----------------------------------------------------------------",
"----------------------------------------------------------------",
"----------------------------------------------------------------",
"----------------------------------------------------------------",
"----------------------------------------------------------------",
"----------------------------------------------------------------",
"----------------------------------------------------------------",
"----------------------------------------------------------------",
"----------------------------------------------------------------",
"----------------------------------------------------------------",
"----------------------------------------------------------------",
"----------------------------------------------------------------",
"----------------------------------------------------------------",
"----------------------------------------------------------------",
"----------------------------------------------------------------",
"----------------------------------------------------------------",
"----------------------------------------------------------------",
"----------------------------------------------------------------",
"----------------------------------------------------------------",
"----------------------------------------------------------------",
"----------------------------------------------------------------",
"----------------------------------------------------------------",
"----------------------------------------------------------------",
"----------------------------------------------------------------",
"----------------------------------------------------------------",
"-X--------------X---   -----------------------------------------",
"-    *           --     ----------------------------------------",
"-   *            -       ---------------------------------------",
"- %%%%%%%%%%%%%% - @@@@@ ---------------------------------------",
"- &&&&&&&&&&&&&& - @   @ ---------------------------------------",
"-                - @@@@  ---------------------------------------",
"-    $$$$$$$$    - @   @ ---------------------------------------",
"-   $$=$$$=$$$   - @@@@@ ---------------------------------------",
"-  $=$$$=$$$=$$  -       ---------------------------------------",
"- $$$$$$$$$$$$$$ - @@@@@ ---------------------------------------",
"- @@@@@@@@@@@@@@ - @   @ ---------------------------------------",
"- ..............   @@@@@ ---------------------------------------",
"- ############## - @ @   ---------------------------------------",
"- OOOOOOOOOOOOOO - @  @  ---------------------------------------",
"- OOOOOOOOOOOOOO -       ---------------------------------------",
"- ++++++++++++++ - @@@@@ ---------------------------------------",
"- ++++++++++++++ - @     ---------------------------------------",
"-  ++++++++++++  - @@@@  ---------------------------------------",
"-                - @     ---------------------------------------",
"- ooo  o  o ooo  - @@@@@ ---------------------------------------",
"- o  o o  o o  o -       ---------------------------------------",
"- ooo  o  o ooo  -  @@@  ---------------------------------------",
"- o  o o  o o  o - @@ @@ ---------------------------------------",
"- ooo   oo  o  o - @   @ ---------------------------------------",
"-                - @@@@@ ---------------------------------------",
"-  oo  oooo ooo  - @   @ ---------------------------------------",
"- o    o    o  o         ---------------------------------------",
"- o oo ooo  ooo  - @@@@  ---------------------------------------",
"- o  o o    o  o - @   @ ---------------------------------------",
"-  oo  oooo o  o - @   @ ---------------------------------------",
"-                - @   @ ---------------------------------------",
"-                - @@@@  ---------------------------------------",
"-                -       ---------------------------------------",
"-                --     ----------------------------------------",
"-                ---   -----------------------------------------",
"-                -----------------------------------------------",
"-                -----------------------------------------------",
"-                -----------------------------------------------"
};
