/* XPM */
static char *_3377a96efb14461c815b68771aab7a4yQKbJRNVUKO9Rcax[] = {
/* columns rows colors chars-per-pixel */
"64 64 15 1 ",
"  c #211310",
". c #2B251B",
"X c #1C1E23",
"o c #2C2F36",
"O c #333942",
"+ c #363942",
"@ c #3F4651",
"# c #4A5462",
"$ c #566170",
"% c #80879E",
"& c #8B93AF",
"* c #9CA3BD",
"= c #F0CD93",
"- c #FFE6BC",
"; c white",
/* pixels */
"XOOOOOOOOOOOOOOOOOOOOOOOOOOOOOOOOOOOOOOOOOOOOOOOOOOOOOOOOOOOOOOX",
"X$O&$$$$$$$$$$$$$O$$$$$$$$$$&$$$$$$&$$$$$$$$$$$$$$O$$$$$$$$$&$$X",
"X$&&&&&&&&&&&&&&&&&&&&&&&&&&&&#$##&&&&&&&&&&&&&&&&&&&&&&&&&&&&#X",
"X#O&XXXXXXXXXXXXXXXXXXXXXXXX&######&XXXXXXXXXXXXXXXXXXXXXXXX&##X",
"X#O#&############O#########&########&#############O########&###X",
"XXO####******************##############******************######X",
";XO@###*%%%%%%%%%%%%%%%%*#######@######*%%%%%%%%%%%%%%%%*#####XX",
";XO@@@@*%oooooooooooooo%*@@@@@@@@@@@@@@*%oooooooooooooo%*@@@@@X;",
";XOOOOO*%o============o%*OOOOOOOOOOOOOO*%o============o%*OOOOOX;",
";X$$$O$*%o============o%*$$O$$$$$$$O$$$*%o============o%*$$$$OX;",
";X##$O#*%o==...=======o%*#$O######$O###*%o============o%*###$OX;",
";X###O#*%o=.....======o%*##O#######O###*%o============o%*####OX;",
";X###O#*%o=.....======o%*##O#######O###*%o============o%*####OX;",
";X###O#*%o=.....======o%*##O#######O###*%o============o%*####OX;",
"XX###O@*%o==...=======o%*##O@######O@##*%o============o%*####OXX",
"X@@@@O@*%o.......=====o%*@@O@@@@@@@O@@@*%o============o%*@@@@O@X",
"XOOOOOO*%o.......=====o%*OOOOOOOOOOOOOO*%ooooo+  +ooooo%*OOOOOOX",
"X$$O$$$*%o.......=====o%*$$$$$$$$$$$$$$*%o------------o%*$O$$$$X",
"X#$O###*%o.......=====o%*##############*%o------------o%*$O####X",
"XX#O###*%o++++++++++++o%*##############*%o------.-.---o%*#O###XX",
";X#O###*%o.......=====o%*##############*%o------...---o%*#O###X;",
";X#O###*%o.......=====o%*##############*%o------...---o%*#O###X;",
";X#O@##*%o.......=====o%*##############*%o-------.----o%*#O@##X;",
";X@O@@@*%o.......=====o%*@@@@@@@@@@@@@@*%o------...-.-o%*@O@@@X;",
";XOOOOO*%o.......=====o%*OOOOOOOOOOOOOO*%o------...--.o%*OOOOOX;",
";X$$$$$*%o.......=====o%*$$$$$$O$$$$O$$*%o-----.....-.o%*$$$O$X;",
"XX#####*%ooooo+  +ooooo%*#####$O###$O##*%o-----......-o%*##$O#XX",
"X######*%oooooooooooooo%*######O####O##*%oooooooooooooo%*###O##X",
"X######*%%%%%%%%%%%%%%%%*######O####O##*%%%%%%%%%%%%%%%%*###O##X",
"X#&####******************####&#O##&#O##******************###O&#X",
"X&&&&&&&&&&&&&&&&&&&&&&&&&&&&&&O#&&&&&&&&&&&&&&&&&&&&&&&&&&&&&&X",
"X@XXXXXXXXXXXXXXXXXXXXXXXXXXXX@O@@XXXXXXXXXXXXXXXXXXXXXXXXXXXX@X",
"XOOOOOOOOOOOOOOOOOOOOOOOOOOOOOOOOOOOOOOOOOOOOOOOOOOOOOOOOOOOOOOX",
"XX$&$O$$$$$$$$O$$$$$$$$$$$$$&$O$$$$&$$$$$$$$$$$$$O$$$$$$$$$$&$$X",
";X&&&&&&&&&&&&&&&&&&&&&&&&&&&&O###&&&&&&&&&&&&&&&&&&&&&&&&&&&&#X",
";X#&XXXXXXXXXXXXXXXXXXXXXXXX&#O####&XXXXXXXXXXXXXXXXXXXXXXXX&##X",
";X##&O########O############&##O#####&############O#########&###X",
";X###O#******************#####O########******************######X",
";X###O@*%%%%%%%%%%%%%%%%*#####O@#######*%%%%%%%%%%%%%%%%*@####XX",
";X@@@O@*%oooooooooooooo%*@@@@@O@@@@@@@@*%oooooooooooooo%*@@@@@X;",
";XOOOOO*%o............o%*OOOOOOOOOOOOOO*%o============o%*OOOOOX;",
";X$$O$$*%o............o%*$$$$$$$$O$$$$$*%o============o%*$$$$$X;",
";X#$O##*%o............o%*######$$O#####*%o============o%*####$XX",
";X##O##*%o............o%*########O#####*%o============o%*#####OX",
"XX##O##*%o............o%*########O#####*%o============o%*#####OX",
"X###O##*%o............o%*########O#####*%o========...=o%*#####OX",
"X###O@#*%o............o%*########O@####*%o========...=o%*#####OX",
"X@@@O@@*%o............o%*@@@@@@@@O@@@@@*%o========...=o%*@@@@@OX",
"XOOOOOO*%o............o%*OOOOOOOOOOOOOO*%o=========.==o%*OOOOOOX",
"XO$$$$$*%o............o%*$$O$$$$$$$$$$$*%o========...=o%*$O$$$$X",
"XO#####*%o............o%*#$O###########*%o==...==....=o%*$O###XX",
"XO#####*%o++++++++++++o%*##O###########*%o++++++++++++o%*#O###X;",
"XX#####*%o............o%*##O###########*%o==...=.=...=o%*#O###X;",
";X#####*%o............o%*##O###########*%o.==.=..=...=o%*#O###X;",
";X@####*%o............o%*##O@##########*%o=.....==...=o%*#O@##X;",
";X@@@@@*%o............o%*@@O@@@@@@@@@@@*%o==...===...=o%*@O@@@X;",
";XOOOOO*%o............o%*OOOOOOOOOOOOOO*%o==...===...=o%*OOOOOX;",
";X$$$O$*%o............o%*$$$$$$$$$$$$O$*%o==...===...=o%*$$$$$XX",
";X##$O#*%ooooo+  +ooooo%*###########$O#*%ooooo+  +ooooo%*#####$X",
"XX###O#*%oooooooooooooo%*############O#*%oooooooooooooo%*######X",
"X####O#*%%%%%%%%%%%%%%%%*############O#*%%%%%%%%%%%%%%%%*######X",
"X#&##O#******************####&####&##O#******************####&#X",
"X&&&&&&&&&&&&&&&&&&&&&&&&&&&&&&##&&&&&&&&&&&&&&&&&&&&&&&&&&&&&&X",
"X@XXXXXXXXXXXXXXXXXXXXXXXXXXXX@@@@XXXXXXXXXXXXXXXXXXXXXXXXXXXX@X"
};
