/* XPM */
static char *result[] = {
/* columns rows colors chars-per-pixel */
"36 36 7 1 ",
"  c #313233",
". c #707274",
"X c #FF7930",
"o c #1E79E5",
"O c #418EE9",
"+ c #86898B",
"@ c #B2B2B2",
/* pixels */
"@.+XXXXXXXXXXXXXXXXXXXXXXXXXXXXXX+.@",
"@.+XXXXXXXXXXXXXXXXXXXXXXXXXXXXXX+.@",
"@.+XXXXXXXXXXXXXXXXXXXXXXXXXXXXXX+.@",
"@.+XXXXXXXXXXXXXXXXXXXXXXXXXXXXXX+.@",
"@.+XXXXXXXXXXXXXXXXXXXXXXXXXXXXXX+.@",
"@.+XXXXXXXXXXXXXXXXXXXXXXXXXXXXXX+.@",
"@.+X             XX             X+.@",
"@.+XX+OOOO+oooo+XXXX+OOOO+oooo+XX+.@",
"@.+XX+OOOO+oooo+XXXX+OOOO+oooo+XX+.@",
"@.+XX+OOOO+oooo+XXXX+OOOO+oooo+XX+.@",
"@.+XX+OOOO+oooo+XXXX+OOOO+oooo+XX+.@",
"@.+XX+++++++++++XXXX+++++++++++XX+.@",
"@.+XX+OOOO+oooo+XXXX+OOOO+oooo+XX+.@",
"@.+XX+OOOO+oooo+XXXX+OOOO+oooo+XX+.@",
"@.+XX+OOOO+oooo+XXXX+OOOO+oooo+XX+.@",
"@.+XX+OOOO+oooo+XXXX+OOOO+oooo+XX+.@",
"@.+X.............XX.............X+.@",
"@.+XXXXXXXXXXXXXXXXXXXXXXXXXXXXXX+.@",
"@.+XXXXXXXXXXXXXXXXXXXXXXXXXXXXXX+.@",
"@.+XXXXXXXXXXXXXXXXXXXXXXXXXXXXXX+.@",
"@.+XXXXXXXXXXXXXXXXXXXXXXXXXXXXXX+.@",
"@.+X             XX             X+.@",
"@.+XX+OOOO+oooo+XXXX+OOOO+oooo+XX+.@",
"@.+XX+OOOO+oooo+XXXX+OOOO+oooo+XX+.@",
"@.+XX+OOOO+oooo+XXXX+OOOO+oooo+XX+.@",
"@.+XX+OOOO+oooo+XXXX+OOOO+oooo+XX+.@",
"@.+XX+++++++++++XXXX+++++++++++XX+.@",
"@.+XX+OOOO+oooo+XXXX+OOOO+oooo+XX+.@",
"@.+XX+OOOO+oooo+XXXX+OOOO+oooo+XX+.@",
"@.+XX+OOOO+oooo+XXXX+OOOO+oooo+XX+.@",
"@.+XX+OOOO+oooo+XXXX+OOOO+oooo+XX+.@",
"@.+X.............XX.............X+.@",
"@.+XXXXXXXXXXXXXXXXXXXXXXXXXXXXXX+.@",
"@.+XXXXXXXXXXXXXXXXXXXXXXXXXXXXXX+.@",
"@.+XXXXXXXXXXXXXXXXXXXXXXXXXXXXXX+.@",
"@.+XXXXXXXXXXXXXXXXXXXXXXXXXXXXXX+.@"
};
