/* XPM */
static char *result[] = {
/* columns rows colors chars-per-pixel */
"36 36 7 1 ",
"  c #5C5F61",
". c #707274",
"X c #942C36",
"o c #1E79E5",
"O c #418EE9",
"+ c #86898B",
"@ c #B9A6A7",
/* pixels */
" .+XXXXX@XXXXXX@XXXXXX@XXXXXX@XXX+. ",
" .+XXXXX@XXXXXX@XXXXXX@XXXXXX@XXX+. ",
" .+XXXXX@XXXXXX@XXXXXX@XXXXXX@XXX+. ",
" .+@@@@@@@@@@@@@@@@@@@@@@@@@@@@@@+. ",
" .+@XXXXXX@XXXXXX@XXXXXX@XXXXXX@X+. ",
" .+@XXXXXX@XXXXXX@XXXXXX@XXXXXX@X+. ",
" .+@             @X             X+. ",
" .+@@+OOOO+oooo+@@@@+OOOO+oooo+@@+. ",
" .+XX+OOOO+oooo+@XXX+OOOO+oooo+XX+. ",
" .+XX+OOOO+oooo+@XXX+OOOO+oooo+XX+. ",
" .+XX+OOOO+oooo+@XXX+OOOO+oooo+XX+. ",
" .+@@+++++++++++@@@@+++++++++++@@+. ",
" .+XX+OOOO+oooo+XXXX+OOOO+oooo+XX+. ",
" .+XX+OOOO+oooo+XXXX+OOOO+oooo+XX+. ",
" .+XX+OOOO+oooo+XXXX+OOOO+oooo+XX+. ",
" .+@@+OOOO+oooo+@@@@+OOOO+oooo+@@+. ",
" .+@+++++++++++++@X+++++++++++++X+. ",
" .+@XXXXXX@XXXXXX@XXXXXX@XXXXXX@X+. ",
" .+@XXXXXX@XXXXXX@XXXXXX@XXXXXX@X+. ",
" .+@@@@@@@@@@@@@@@@@@@@@@@@@@@@@@+. ",
" .+XXXXXX@XXXXXX@XXXXXX@XXXXXX@XX+. ",
" .+X             XX             X+. ",
" .+XX+OOOO+oooo+@XXX+OOOO+oooo+XX+. ",
" .+@@+OOOO+oooo+@@@@+OOOO+oooo+@@+. ",
" .+XX+OOOO+oooo+XXXX+OOOO+oooo+XX+. ",
" .+XX+OOOO+oooo+XXXX+OOOO+oooo+XX+. ",
" .+XX+++++++++++XXXX+++++++++++XX+. ",
" .+@@+OOOO+oooo+@@@@+OOOO+oooo+@@+. ",
" .+@X+OOOO+oooo+X@XX+OOOO+oooo+@X+. ",
" .+@X+OOOO+oooo+X@XX+OOOO+oooo+@X+. ",
" .+@X+OOOO+oooo+X@XX+OOOO+oooo+@X+. ",
" .+@+++++++++++++@@+++++++++++++@+. ",
" .+XXXXXX@XXXXXX@XXXXXX@XXXXXX@XX+. ",
" .+XXXXXX@XXXXXX@XXXXXX@XXXXXX@XX+. ",
" .+XXXXXX@XXXXXX@XXXXXX@XXXXXX@XX+. ",
" .+@@@@@@@@@@@@@@@@@@@@@@@@@@@@@@+. "
};
