/* XPM */
static char *result[] = {
/* columns rows colors chars-per-pixel */
"32 32 13 1 ",
"  c #2B251B",
". c #1C1E23",
"X c #2E2826",
"o c #2C2F36",
"O c #3D3736",
"+ c #543D39",
"@ c #4C4240",
"# c #5F5452",
"$ c #72534E",
"% c #7E5A54",
"& c #946A63",
"* c #F0CD93",
"= c white",
/* pixels */
"................................",
".&+&&&&&&&&+&&&&&&&&+&&&&&&&&+&.",
".&+%%%%%%%&+%%%%%%%&+%%%%%%%&+%.",
".%+%%%%%%%%+%%%%%%%%+%%%%%%%%+%.",
".%+%%$$$$%%+%%$$$$%%+%%$$$$%%+%.",
".$+$$oooo$$+$$oooo$$+$$oooo$$+$.",
"..@+o* **o+@+o****o+@+o****o+@..",
"=.OOo* **oOOOo****oOOOo****oOO.=",
"=.XXo   *oXXXo****oXXXo* * oXX.=",
"=.##o****o###o  **o#X#o*   o#X.=",
"=.@@o****o@@@o  **o#X@o*   o#X.=",
"=.@@o****o@@@o ** o@X@o** *o@X.=",
"=.@@o****o@@@o *  o@X@o*   o@X.=",
"=.@@%oooo%@@@%oooo%@X@%oooo%@X.=",
"=.@%%%%%%%%@%%%%%%%%X%%%%%%%%X.=",
"=.OO......OOO......OXO......OX.=",
"=.XXXXXXXXXXXXXXXXXXXXXXXXXXXX.=",
"=.#X#########X############X###.=",
"=.#X@@@@@@@@#X@@@@@@@@@@@#X@@@.=",
"=.@X@%@@%@@@@X%@@%@@@@@%@@%@@@.=",
"=.@X%%%%%%@@@%%%%%%@@@%%%%%%@@.=",
"=.@%%oooo%%@%%oooo%%@%%oooo%%@.=",
"=.@Xo****o@@@o*   o@@@o*** o@@.=",
"=.OXo****oOOOo*   oOOOo*** oOO.=",
"=.XXo****oXXXo**  oXXXo**  oXX.=",
"=.##o* **o###o**  o###o*** oX#.=",
"=.@@o   *o@@@o**  o@@@o ** oX@.=",
"=.@@o   *o@@@o*** o@@@o ** oX@.=",
"=.@@o* **o@@@o*** o@@@o *  oX@.=",
"=.@@%oooo%@@@%oooo%@@@%oooo%X@.=",
"=.@%%%%%%%%@%%%%%%%%@%%%%%%%%O.=",
"=.OO......OOO......OOO......XO.="
};
