/* XPM */
static char *d7378b12e89d4bc4ab3c1c2fc17065a2QWMKqqTEnSuLbS4F[] = {
/* columns rows colors chars-per-pixel */
"32 32 16 1 ",
"  c #2B251B",
". c #1C1E23",
"X c #2E2826",
"o c #2C2F36",
"O c #3D3736",
"+ c #4C4240",
"@ c #554C4B",
"# c #5D4D4B",
"$ c #5D504F",
"% c #5F5452",
"& c #6E605E",
"* c #6B6260",
"= c #7E6966",
"- c #81716F",
"; c #F0CD93",
": c white",
/* pixels */
"................................",
".-#--------#------@@@--------#-.",
".-#&&&&&&&-#&&&&@@@@@@@&&&&&-#&.",
".&#&&&&&&&&#&&&&&&&@#&&&&&&&&#&.",
".&#&&$$$$$$#$$$$$&&*#&&$$$$&&#&.",
".$#$$oooooooooooo$$*#$$oooo$$#$.",
"..+#o; ;;;;;;;;;;o#*+#o;;;;o#+..",
":.O@o; ;;;;;;;; ;oX@OOo;;;;oOO.:",
":.XXo   ;;;;;;   oX*XXo;   oXX.:",
":.++o; ;; ;;;;   o%*X%o;   o%X.:",
":.++o;; ;; ;;;   o+*X+o;   o%X.:",
":.++o;; ; ;;;;; ;o+*X+o;; ;o+X.:",
":.++o; ; ; ;;;   o+@X+o;   o+X.:",
":.++=oooooooooooo=+*X+=oooo=+X.:",
":.+================*X========X.:",
":.++..............O*XO......OX.:",
":.XXXXXXXXXXXXXXXXX*XXXXXXXXXX.:",
":.%%%%%%%%X%%%%%%%%*%%%%X%%%%%.:",
":.+++++++%X++@*****@+++%X+++++.:",
":.++++++++X++*+++=++++++X+=+++.:",
":.++++++++X++*++============++.:",
":.+++@*****@+*+==oooooooooo==+.:",
":.+++*@@@@@*+*++o;;;;;;;;;;o++.:",
":.OOO*******O*OOo ; ;;;;;;;oOO.:",
":.XXX*@@@@@*X@XXo   ;;;;; ;oXX.:",
":.%%%*******%*%%o   ;;;;; ;o%%.:",
":.+++*@@@@****++o; ;;;;;; ;o++.:",
":.+++*@@@*@*+*++o   ;;;   ;o++.:",
":.+++@*****@+*++o   ;;     o++.:",
":.++++.....++*++=oooooooooo=++.:",
":.++++++XO+++@+==============+.:",
":.OOOOOOXOOOO*OO............OO.:"
};
