/* XPM */
static char *result[] = {
/* columns rows colors chars-per-pixel */
"32 32 4 1 ",
"  c #211640",
". c #1C6CCB",
"X c #1E79E5",
"o c #5F9AE1",
/* pixels */
"                                ",
"                                ",
"                                ",
"                                ",
".............XXXXXXXXXXXXXXXXXXX",
"oooooooooooooooooooooooooooooooo",
"                                ",
"                                ",
"............XXXXXXXXXXXXXXXXXXXX",
"oooooooooooooooooooooooooooooooo",
"                                ",
"                                ",
"...........XXXXXXXXXXXXXXXXXXXXX",
"oooooooooooooooooooooooooooooooo",
"                                ",
"                                ",
"..........XXXXXXXXXXXXXXXXXXXXXX",
"oooooooooooooooooooooooooooooooo",
"                                ",
"                                ",
".........XXXXXXXXXXXXXXXXXXXXXXX",
"oooooooooooooooooooooooooooooooo",
"                                ",
"                                ",
"........XXXXXXXXXXXXXXXXXXXXXXXX",
"oooooooooooooooooooooooooooooooo",
"                                ",
"                                ",
".......XXXXXXXXXXXXXXXXXXXXXXXXX",
"oooooooooooooooooooooooooooooooo",
"                                ",
"                                "
};
