/* XPM */
static char *_742629552ab48c0e98d737c0735b613KaXBMk9sWj9rCWbR[] = {
/* columns rows colors chars-per-pixel */
"32 32 12 1 ",
"  c #2B251B",
". c #1C1E23",
"X c #2E2826",
"o c #2C2F36",
"O c #3D3736",
"+ c #4C4240",
"@ c #554C4B",
"# c #5F5452",
"$ c #6B6260",
"% c #7E6966",
"& c #F0CD93",
"* c white",
/* pixels */
"*.XXXXXXXXXXX$XXXXXXXXXXXXXXXX.*",
"*.####X######$####X###########.*",
"*.+@$$$$@$$$$@+++#X+++++++++++.*",
"*.+$+%X+++++++++%+X++++%++%+++.*",
"*.+$%%%%%%%%%%%%%%X+++%%%%%%++.*",
"*.+%%oooooooooooo%%++%%oooo%%+.*",
"*.+$o& &&&&&&&&&&oXO++o&&&&o++.*",
"*.O@o& &&&&&&&& &oXOOOo&&&&oOO.*",
"*.X$o   &&&&&&   oXXXXo& & oXX.*",
"*.#$o& && &&&&   o##X#o&   o#X.*",
"*.+$o&& && &&&   o++X+o&   o#X.*",
"*.+$o&& & &&&&& &o++X+o&& &o+X.*",
"*.+@o& & & &&&   o++X+o&   o+X.*",
"*.+$%oooooooooooo%++X+%oooo%+X.*",
"*.+%%%%%%%%%%%%%%%%+X%%%%%%%%X.*",
"*.O$..............OOXO......OX.*",
"*.X$XXXXXXXXXXXXXXXXXXXXXXXXXX.*",
"*.#$######X#############X#####.*",
"*.+@+++++#X++++++++++++#X+++++.*",
"*.+$++++++X++++++%++++++X+%+++.*",
"*.+$++++++X+++++%%%%%%%%%%%%++.*",
"*.+$+@$$$$$@+++%%oooooooooo%%+.*",
"*.+@$$@@@@@$++++o&&&&&&&&&&o++.*",
"*.OOO$$$$$$$OOOOo&&&&&&&&&&oOO.*",
"*.XXX$@@@@@$XXXXo&  &&&&& &oXX.*",
"*.###$$$$$$$####o&  &&&&& &o##.*",
"*.+++$@@@@$$$@++o& &&&&&& &o++.*",
"*.+++$@@@$@$+$++o   &&&   &o++.*",
"*.+++@$$$$$@+$++o   &&     o++.*",
"*.++++.....++$++%oooooooooo%++.*",
"*.++++++XO+++@+%%%%%%%%%%%%%%+.*",
"*.OOOOOOXOOOO$OO............OO.*"
};
