/* XPM */
static char *result[] = {
/* columns rows colors chars-per-pixel */
"36 36 8 1 ",
"  c black",
". c #3C3C3C",
"X c #5C5F61",
"o c #707274",
"O c #942C36",
"+ c #C31818",
"@ c #86898B",
"# c #B9A6A7",
/* pixels */
"                                    ",
"Xo ooooo ooooo ooooo oooo. ooo.o ooX",
"Xo @@@@@ @@@@@ @@@@@ @@@@. @@@.@ @oX",
"Xo ##### ##### ##### ####. ....# @oX",
"Xo #OOOO O#OOO OO#OO OOO#. OOO.# @oX",
"Xo #OOOO O#OOO OO#OO OOO#. OOO.# @oX",
"Xo #OOOO O#OOO OO#OO OOO#. OOO.# @oX",
"                                    ",
"Xo@OOOOOO#OOOOOO#OOOOOO#O.OOOO.OO@oX",
"Xo@OOOOOO#OOOOOO#OOOOOO#O.OOOO.OO@oX",
"Xo@OOOOOO#OOOOOO#OOOOOO#O.OOOO.OO@oX",
"Xo@######################......##@oX",
"Xo@OOOOO#OOOOOO#OOOOOO#OO.OOO#.OO@oX",
"Xo@OOOOO#OOOOOO#OOOOOO#OO.OOO#.OO@oX",
"Xo@OOOOO#OOOOOO#OOOOOO#OO.OOO#.OO@oX",
"Xo@######################......##@oX",
"Xo@#OOOOOO#O++++++++++++#.OOOO.#O@oX",
"Xo@#OOOOOO#O++++++++++++#.OOOO.#O@oX",
"Xo@#OOOOOO#O+++@@@@@@+++#.OOOO.#O@oX",
"Xo@#########+++@@@@@@+++#......##@oX",
"Xo@OOOOOO#OO+++@@@@@@+++O.OOOO.OO@oX",
"Xo@OOOOOO#OO+++@@@@@@+++O.OOOO.OO@oX",
"Xo@OOOOOO#OO+++@@@@@@+++O.OOOO.OO@oX",
"Xo@#########+++@@@@@@+++#......##@oX",
"                                    ",
"Xo OOOOO OOO+@ +++++ +@+O. OO#.O @oX",
"Xo OOOOO OOO+@ ##### #@+O. OO#.O @oX",
"Xo ##### ###++ +++++ +++#. ....# @oX",
"Xo #OOOO O#O++ +++++ +++#. OOO.# @oX",
"Xo #OOOO O#O++ +++++ +++#. OOO.# @oX",
"Xo #OOOO O#O++ +++++ +++#. OOO.# @oX",
"Xo ##### ###++ +++++ +++#. ....# @oX",
"Xo OOOOO #OO++ +++++ +++O. OOO.O @oX",
"Xo@@@@@@@@@@@@@@@@@@@@@@@@@@@@@@@@oX",
"XooooooooooooooooooooooooooooooooooX",
"XXXXXXXXXXXXXXXXXXXXXXXXXXXXXXXXXXXX"
};
