/* XPM */
static char *c1ad7e50962b4a69b31bff16c8b52297NxLui0H88ID0AmM0[] = {
/* columns rows colors chars-per-pixel */
"96 96 19 1 ",
"  c #211310",
". c #2B251B",
"X c #1C1E23",
"o c #2C2F36",
"O c #333942",
"+ c #363942",
"@ c #3F4651",
"# c #4A5462",
"$ c #566170",
"% c #696E80",
"& c #6D7387",
"* c #797F93",
"= c #80879E",
"- c #8B93AF",
"; c #9CA3BD",
": c #F0CD93",
"> c #FFE6BC",
", c #9CA4C1",
"< c white",
/* pixels */
"XXXXXXXXXXXXXXXXXXXXXXXXXXXXXXXXXXXXXXXXXXXXXXXXXXXXXXXXXXXXXXXXXXXXXXXXXXXXXXXXXXXXXXXXXXXXXXXX",
"X,,,,,,%,,,,,,,%,,,,,,,%,,,,,,,%,,,,,,,%,,,,,,,%,,,,,,,%,,,,,,,%,,,,,,,%,,,,,,,%,,,,,,,%,,,,,,,X",
"X-----,%------,%------,%------,%------,%------,%------,%------,%------,%------,%------,%------,X",
"X------%-------%-------%-------%-------%-------%-------%-------%-------%-------%-------%-------X",
"X------%*------%*------%*------%*------%*------%*------%*------%*------%*------%*------%*------X",
"X******%*******%*******%*******%*******%*******%*******%*******%*******%*******%*******%*******X",
"X%%%%%%%%%%%%%%%%%%%%%%%%%%%%%%%%%%%%%%%%%%%%%%%%%%%%%%%%%%%%%%%%%%%%%%%%%%%%%%%%%%%%%%%%%%%%%%X",
"X------%XXXXXXXXXXXXXXXX%-----%%%%-----%XXXXXXXXXXXXXXXX%-----%%%%-----%XXXXXXXXXXXXXXXX%------X",
"X&&&&&&X##O###########O#X&&&&-%--%-&&&&X#########O######X&&&&-%--%-&&&&X###O##########O#X&&&&&XX",
"XXXXXXX###O@##########O@#XXXX------XXXX##########O@######XXXX------XXXX####O@#########O@#XXXXXX<",
"XX@@@@@@@@O@@@@@@@@@@@O@@@@@X&----&X@O@@@@@@@@@@@O@@@@@@@@@@X&----&X@@@@@@@O@@@@@@@@@@O@@@@@@@X<",
"<XOOOOOOOOOOOOOOOOOOOOOOOOOOOX----XOOOOOOOOOOOOOOOOOOOOOOOOOOX----XOOOOOOOOOOOOOOOOOOOOOOOOOOOX<",
"<X$$$O$$$$$$$$$$O$$$$$$$$$$$OX----X$$$$$$O$$$$$$$$$$$$O$$$$$$X----XO$$$$$$$$$$$$$$O$$$$$$$$$$OX<",
"<X##$O########====#########$OX&--&X#####$O####====###$O######X&--&XO##########====O#########$OX<",
"XX###O@#####==oooo==########O@X--X#######O@#==oooo==##O@######X--X#O@#######==oooo==#########OXX",
"X@@@@O@@@@@=oo::::oo=@@@@@@@O@X--X@@@@@@@O@=oo::::oo=@O@@@@@@@X--X@O@@@@@@@=oo::::oo=@@@@@@@@O@X",
"XOOOOOOOOO=o+::::::+o=OOOOOOOOX--XOOOOOOOO=o+::::::+o=OOOOOOOOX--XOOOOOOOO=o+::::::+o=OOOOOOOOOX",
"X$$O$$$$$$=o:+::::+:o=$$$$$$$$X--X$$O$$$$$=o:+::::+:o=$$$$$$O$X--X$$$$$$$$=o:+::::+:o=$$$$O$$$$X",
"X#$O#####=o:::+::+:::o=#######X--X#$O####=o:::+::+:::o=####$O#X--X#######=o:::+::+:::o=##$O####X",
"XX#O#####=o::::++::::o=########XX###O####=o::::++::::o=#####O##XX########=o::::++::::o=###O###XX",
"<X#O#####=o::::++::::o=#############O####=o::::++::::o=#####O############=o::::++::::o=###O###X<",
"<X#O#####=o:::+::+:::o=#############O####=o:::+::+:::o=#####O############=o:::+::+:::o=###O###X<",
"<X#O@#####=o:+::::+:o=##############O@####=o:+::::+:o=######O@############=o:+::::+:o=####O@##X<",
"<X@O@@@@@@=o+::::::+o=@@@@@@@@@@@@@@O@@@@@=o+::::::+o=@@@@@@O@@@@@@@@@@@@@=o+::::::+o=@@@@O@@@X<",
"<XOOOOOOOOO=oo::::oo=OOOOOOOOOOOOOOOOOOOOOO=oo::::oo=OOOOOOOOOOOOOOOOOOOOOO=oo::::oo=OOOOOOOOOX<",
"<X$$$$$$$$$$==oooo==$$$$$$$O$$$$$$$$$$$$$$$O==oooo==$$$$$$O$$$$$$$$$$$$$$O$$==oooo==$$$$$$$$O$X<",
"XX#########$O#====########$O##############$O##====#######$O#############$O####====#########$O#XX",
"X###########O##############O###############O##############O##############O##################O##X",
"X###########O##############O###############O##############O##############O##################O##X",
"X#-#########O##############O#-####-########O##############O##-####-######O##################O-#X",
"X------------------------------##------------------------------##------------------------------X",
"X@XXXXXXXXXXXXXXXXXXXXXXXXXXXX@@@@XXXXXXXXXXXXXXXXXXXXXXXXXXXX@@@@XXXXXXXXXXXXXXXXXXXXXXXXXXXX@X",
"XOOOOOOOOOOOOOOOOOOOOOOOOOOOOOOOOOOOOOOOOOOOOOOOOOOOOOOOOOOOOOOOOOOOOOOOOOOOOOOOOOOOOOOOOOOOOOOX",
"XX$-$O$$$$$$$$O$$$$$$$$$$$$$-$O$$$$-$$$$$$$$$$O$$$$$$$$$$$$$-$O$$$$-$$$$$$$$$$$$$O$$$$$$$$$$-$$X",
"<X----------------------------O###----------------------------O###----------------------------#X",
"<X#-XXXXXXXXXXXXXXXXXXXXXXXX-#O####-XXXXXXXXXXXXXXXXXXXXXXXX-#O####-XXXXXXXXXXXXXXXXXXXXXXXX-##X",
"<X##-O########O############-##O#####-#########O############-##O#####-############O#########-###X",
"<X###O#;;;;;;;;;;;;;;;;;;#####O########;;;;;;;;;;;;;;;;;;#####O########;;;;;;;;;;;;;;;;;;######X",
"<X###O@;================;#####O@#######;================;#####O@#######;================;@####XX",
"<X@@@O@;=oooooooooooooo=;@@@@@O@@@@@@@@;=oooooooooooooo=;@@@@@O@@@@@@@@;=oooooooooooooo=;@@@@@X<",
"<XOOOOO;=o............o=;OOOOOOOOOOOOOO;=o::::........o=;OOOOOOOOOOOOOO;=o::::::::::::o=;OOOOOX<",
"<X$$O$$;=o............o=;$$$$$$$O$$$$$$;=o::::........o=;$$$$$$$$O$$$$$;=o::::::::::::o=;$$$$$X<",
"<X#$O##;=o............o=;######$O######;=o::::........o=;#######$O#####;=o::::::::::::o=;####$XX",
"<X##O##;=o............o=;#######O######;=o::::........o=;########O#####;=o::::::::::::o=;#####OX",
"XX##O##;=o............o=;#######O######;=o:::::.......o=;########O#####;=o::::::::::::o=;#####OX",
"X###O##;=o............o=;#######O######;=o:::::.......o=;########O#####;=o::::::::...:o=;#####OX",
"X###O@#;=o............o=;#######O@#####;=o:::::.......o=;########O@####;=o::::::::...:o=;#####OX",
"X@@@O@@;=o............o=;@@@@@@@O@@@@@@;=o:::::.......o=;@@@@@@@@O@@@@@;=o::::::::...:o=;@@@@@OX",
"XOOOOOO;=o............o=;OOOOOOOOOOOOOO;=o::::::......o=;OOOOOOOOOOOOOO;=o:::::::::.::o=;OOOOOOX",
"XO$$$$$;=o............o=;$$O$$$$$$$$$$$;=o::::::......o=;$$O$$$$$$$$$$$;=o::::::::...:o=;$O$$$$X",
"XO#####;=o............o=;#$O###########;=o:::::::.....o=;#$O###########;=o::...::....:o=;$O###XX",
"XO#####;=o++++++++++++o=;##O###########;=o++++++++++++o=;##O###########;=o++++++++++++o=;#O###X<",
"XX#####;=o............o=;##O###########;=o:::::::.....o=;##O###########;=o::...:.:...:o=;#O###X<",
"<X#####;=o............o=;##O###########;=o:::::::.....o=;##O###########;=o.::.:..:...:o=;#O###X<",
"<X@####;=o............o=;##O@##########;=o::::::::....o=;##O@##########;=o:.....::...:o=;#O@##X<",
"<X@@@@@;=o............o=;@@O@@@@@@@@@@@;=o::::::::....o=;@@O@@@@@@@@@@@;=o::...:::...:o=;@O@@@X<",
"<XOOOOO;=o............o=;OOOOOOOOOOOOOO;=o:::::::::...o=;OOOOOOOOOOOOOO;=o::...:::...:o=;OOOOOX<",
"<X$$$O$;=o............o=;$$$$$$$$$$$O$$;=o:::::::::...o=;$$$$$$$$$$$$O$;=o::...:::...:o=;$$$$$XX",
"<X##$O#;=ooooo+  +ooooo=;##########$O##;=ooooo+  +ooooo=;###########$O#;=ooooo+  +ooooo=;#####$X",
"XX###O#;=oooooooooooooo=;###########O##;=oooooooooooooo=;############O#;=oooooooooooooo=;######X",
"X####O#;================;###########O##;================;############O#;================;######X",
"X#-##O#;;;;;;;;;;;;;;;;;;####-####-#O##;;;;;;;;;;;;;;;;;;####-####-##O#;;;;;;;;;;;;;;;;;;####-#X",
"X------------------------------##------------------------------##------------------------------X",
"X@XXXXXXXXXXXXXXXXXXXXXXXXXXXX@@@@XXXXXXXXXXXXXXXXXXXXXXXXXXXX@@@@XXXXXXXXXXXXXXXXXXXXXXXXXXXX@X",
"XOOOOOOOOOOOOOOOOOOOOOOOOOOOOOOOOOOOOOOOOOOOOOOOOOOOOOOOOOOOOOOOOOOOOOOOOOOOOOOOOOOOOOOOOOOOOOOX",
"X$$-$$$$$$$$$$O$$$$$$$$$$$$$-O$$$$$-$$$$$$$$$$$$$O$$$$$$$$$$-$$O$$$-$$$$$$$$$$$$$$O$$$$$$$$$-$$X",
"X#----------------------------####----------------------------$O##----------------------------#X",
"X##-XXXXXXXXXXXXXXXXXXXXXXXX-O#####-XXXXXXXXXXXXXXXXXXXXXXXX-##O###-XXXXXXXXXXXXXXXXXXXXXXXX-##X",
"XX##-#########O############-#O######-############O#########-###O####-#############O########-##XX",
"<X#####;;;;;;;;;;;;;;;;;;####O#########;;;;;;;;;;;;;;;;;;######O#######;;;;;;;;;;;;;;;;;;#####X<",
"<X#####;================;####O@########;================;######O@######;================;#####X<",
"<X@@@@@;=oooooooooooooo=;@@@@O@@@@@@@@@;=oooooooooooooo=;@@@@@@O@@@@@@@;=oooooooooooooo=;@@@@@X<",
"<XOOOOO;=o::::::::::::o=;OOOOOOOOOOOOOO;=o::::::::::::o=;OOOOOOOOOOOOOO;=o............o=;OOOOOX<",
"<X$$O$$;=o::::::::::::o=;$$$$$$$$$$$O$$;=o::::::::::::o=;$$O$$$$$$$$$$$;=o............o=;$$$O$X<",
"<X#$O##;=o::::::::::::o=;##########$O##;=o::::::::::::o=;#$O###########;=o............o=;##$O#X<",
"XX##O##;=o::::::::::::o=;###########O##;=o::::::::::::o=;##O###########;=o............o=;###O#X<",
"X###O##;=o::::::::::::o=;###########O##;=o::::::::::::o=;##O###########;=o............o=;###O#X<",
"X###O##;=o::::::::::::o=;###########O##;=o::::::::::::o=;##O###########;=o............o=;###O#X<",
"X###O@#;=o...:::::::::o=;###########O@#;=ooooo+  +ooooo=;##O@##########;=o............o=;###O@XX",
"X@@@O@@;=o...:::::::::o=;@@@@@@@@@@@O@@;=o>>>>>>>>>>>>o=;@@O@@@@@@@@@@@;=o............o=;@@@O@@X",
"XOOOOOO;=o...:::::::::o=;OOOOOOOOOOOOOO;=o>>>>>>>>>>>>o=;OOOOOOOOOOOOOO;=o............o=;OOOOOOX",
"X$O$$$$;=o...:::::::..o=;$$$$$$O$$$$$$$;=o>>>>>>>>>.>>o=;$$$$$$$$$$O$$$;=o............o=;$$$$$OX",
"X$O####;=o..::::::::..o=;#####$O#######;=o>>>>>>>>...>o=;#########$O###;=o............o=;####$OX",
"X#O####;=o++++++++++++o=;######O#######;=o>>>>>>>>...>o=;##########O###;=o++++++++++++o=;#####X<",
"XXO####;=o...:::::::..o=;######O#######;=o>>>>>>>>...>o=;##########O###;=o............o=;#####X<",
"<XO####;=o....::::::..o=;######O#######;=o>>>>>>>>...>o=;##########O###;=o............o=;#####X<",
"<XO@###;=o.....:::::..o=;######O@######;=o>.>>>>>>...>o=;##########O@##;=o............o=;@####X<",
"<XO@@@@;=o......::::..o=;@@@@@@O@@@@@@@;=o>.>>>>>>>.>>o=;@@@@@@@@@@O@@@;=o............o=;@@@@@X<",
"<XOOOOO;=o..:.........o=;OOOOOOOOOOOOOO;=o>.>>>>>>>.>>o=;OOOOOOOOOOOOOO;=o............o=;OOOOOX<",
"XX$$$O$;=o..::........o=;$$$$$$$$$$$O$$;=o>.>>>>>>...>o=;$$$O$$$$$$$$$$;=o............o=;$O$$$X<",
"X###$O#;=ooooo+  +ooooo=;##########$O##;=o>.>>>.......o=;##$O##########;=ooooo+  +ooooo=;$O###X<",
"X####O#;=oooooooooooooo=;###########O##;=oooooooooooooo=;###O##########;=oooooooooooooo=;#O###XX",
"X####O#;================;###########O##;================;###O##########;================;#O####X",
"X#-##O#;;;;;;;;;;;;;;;;;;####-####-#O##;;;;;;;;;;;;;;;;;;###O-####-####;;;;;;;;;;;;;;;;;;#O##-#X",
"X------------------------------##------------------------------##------------------------------X",
"X@XXXXXXXXXXXXXXXXXXXXXXXXXXXX@@@@XXXXXXXXXXXXXXXXXXXXXXXXXXXX@@@@XXXXXXXXXXXXXXXXXXXXXXXXXXXX@X"
};
