/* XPM */
static char *_60eed82a46641f3a9df14635eb2443f8HB75QKIkcsF60aE[] = {
/* columns rows colors chars-per-pixel */
"64 64 18 1 ",
"  c #211310",
". c #2B251B",
"X c #1C1E23",
"o c #2C2F36",
"O c #333942",
"+ c #363942",
"@ c #3F4651",
"# c #4A5462",
"$ c #566170",
"% c #696E80",
"& c #6D7387",
"* c #797F93",
"= c #80879E",
"- c #8B93AF",
"; c #9CA3BD",
": c #F0CD93",
"> c #9CA4C1",
", c white",
/* pixels */
"XXXXXXXXXXXXXXXXXXXXXXXXXXXXXXXXXXXXXXXXXXXXXXXXXXXXXXXXXXXXXXXX",
"X>>>>>>%>>>>>>>%>>>>>>>%>>>>>>>%>>>>>>>%>>>>>>>%>>>>>>>%>>>>>>>X",
"X----->%------>%------>%------>%------>%------>%------>%------>X",
"X------%-------%-------%-------%-------%-------%-------%-------X",
"X------%*------%*------%*------%*------%*------%*------%*------X",
"X******%*******%*******%*******%*******%*******%*******%*******X",
"X%%%%%%%%%%%%%%%%%%%%%%%%%%%%%%%%%%%%%%%%%%%%%%%%%%%%%%%%%%%%%%X",
"X------%XXXXXXXXXXXXXXXX%-----%%%%-----%XXXXXXXXXXXXXXXX%------X",
"X&&&&&&X##O###########O#X&&&&-%--%-&&&&X###O##########O#X&&&&&XX",
"XXXXXXX###O@##########O@#XXXX------XXXX####O@#########O@#XXXXXX,",
"XX@@@@@@@@O@@@@@@@@@@@O@@@@@X&----&X@@@@@@@O@@@@@@@@@@O@@@@@@@X,",
",XOOOOOOOOOOOOOOOOOOOOOOOOOOOX----XOOOOOOOOOOOOOOOOOOOOOOOOOOOX,",
",X$$$O$$$$$$$$$$O$$$$$$$$$$$OX----XO$$$$$$$$$$$$$$O$$$$$$$$$$OX,",
",X##$O########====#########$OX&--&XO##########====O#########$OX,",
"XX###O@#####==oooo==########O@X--X#O@#######==oooo==#########OXX",
"X@@@@O@@@@@=oo::::oo=@@@@@@@O@X--X@O@@@@@@@=oo::::oo=@@@@@@@@O@X",
"XOOOOOOOOO=o+::::::+o=OOOOOOOOX--XOOOOOOOO=o+::::::+o=OOOOOOOOOX",
"X$$O$$$$$$=o:+::::+:o=$$$$$$$$X--X$$$$$$$$=o:+::::+:o=$$$$O$$$$X",
"X#$O#####=o:::+::+:::o=#######X--X#######=o:::+::+:::o=##$O####X",
"XX#O#####=o::::++::::o=########XX########=o::::++::::o=###O###XX",
",X#O#####=o::::++::::o=##################=o::::++::::o=###O###X,",
",X#O#####=o:::+::+:::o=##################=o:::+::+:::o=###O###X,",
",X#O@#####=o:+::::+:o=####################=o:+::::+:o=####O@##X,",
",X@O@@@@@@=o+::::::+o=@@@@@@@@@@@@@@@@@@@@=o+::::::+o=@@@@O@@@X,",
",XOOOOOOOOO=oo::::oo=OOOOOOOOOOOOOOOOOOOOOO=oo::::oo=OOOOOOOOOX,",
",X$$$$$$$$$$==oooo==$$$$$$$O$$$$$$$$$$$$$O$$==oooo==$$$$$$$$O$X,",
"XX#########$O#====########$O############$O####====#########$O#XX",
"X###########O##############O#############O##################O##X",
"X###########O##############O#############O##################O##X",
"X#-#########O##############O#-####-######O##################O-#X",
"X------------------------------##------------------------------X",
"X@XXXXXXXXXXXXXXXXXXXXXXXXXXXX@@@@XXXXXXXXXXXXXXXXXXXXXXXXXXXX@X",
"XOOOOOOOOOOOOOOOOOOOOOOOOOOOOOOOOOOOOOOOOOOOOOOOOOOOOOOOOOOOOOOX",
"XX$-$O$$$$$$$$O$$$$$$$$$$$$$-$O$$$$-$$$$$$$$$$$$$O$$$$$$$$$$-$$X",
",X----------------------------O###----------------------------#X",
",X#-XXXXXXXXXXXXXXXXXXXXXXXX-#O####-XXXXXXXXXXXXXXXXXXXXXXXX-##X",
",X##-O########O############-##O#####-############O#########-###X",
",X###O#;;;;;;;;;;;;;;;;;;#####O########;;;;;;;;;;;;;;;;;;######X",
",X###O@;================;#####O@#######;================;@####XX",
",X@@@O@;=oooooooooooooo=;@@@@@O@@@@@@@@;=oooooooooooooo=;@@@@@X,",
",XOOOOO;=o............o=;OOOOOOOOOOOOOO;=o::::::::::::o=;OOOOOX,",
",X$$O$$;=o............o=;$$$$$$$$O$$$$$;=o::::::::::::o=;$$$$$X,",
",X#$O##;=o............o=;######$$O#####;=o::::::::::::o=;####$XX",
",X##O##;=o............o=;########O#####;=o::::::::::::o=;#####OX",
"XX##O##;=o............o=;########O#####;=o::::::::::::o=;#####OX",
"X###O##;=o............o=;########O#####;=o::::::::...:o=;#####OX",
"X###O@#;=o............o=;########O@####;=o::::::::...:o=;#####OX",
"X@@@O@@;=o............o=;@@@@@@@@O@@@@@;=o::::::::...:o=;@@@@@OX",
"XOOOOOO;=o............o=;OOOOOOOOOOOOOO;=o:::::::::.::o=;OOOOOOX",
"XO$$$$$;=o............o=;$$O$$$$$$$$$$$;=o::::::::...:o=;$O$$$$X",
"XO#####;=o............o=;#$O###########;=o::...::....:o=;$O###XX",
"XO#####;=o++++++++++++o=;##O###########;=o++++++++++++o=;#O###X,",
"XX#####;=o............o=;##O###########;=o::...:.:...:o=;#O###X,",
",X#####;=o............o=;##O###########;=o.::.:..:...:o=;#O###X,",
",X@####;=o............o=;##O@##########;=o:.....::...:o=;#O@##X,",
",X@@@@@;=o............o=;@@O@@@@@@@@@@@;=o::...:::...:o=;@O@@@X,",
",XOOOOO;=o............o=;OOOOOOOOOOOOOO;=o::...:::...:o=;OOOOOX,",
",X$$$O$;=o............o=;$$$$$$$$$$$$O$;=o::...:::...:o=;$$$$$XX",
",X##$O#;=ooooo+  +ooooo=;###########$O#;=ooooo+  +ooooo=;#####$X",
"XX###O#;=oooooooooooooo=;############O#;=oooooooooooooo=;######X",
"X####O#;================;############O#;================;######X",
"X#-##O#;;;;;;;;;;;;;;;;;;####-####-##O#;;;;;;;;;;;;;;;;;;####-#X",
"X------------------------------##------------------------------X",
"X@XXXXXXXXXXXXXXXXXXXXXXXXXXXX@@@@XXXXXXXXXXXXXXXXXXXXXXXXXXXX@X"
};
