/* XPM */
static char *result[] = {
/* columns rows colors chars-per-pixel */
"32 32 6 1 ",
"  c #1C1E23",
". c #543D39",
"X c #72534E",
"o c #7E5A54",
"O c #946A63",
"+ c white",
/* pixels */
"                                ",
" OOOOOOOOOOOOOOOOOOOOOOOOOOOOOO ",
" XooooooooooooooooooooooooooooO ",
" XooooooooooooooooooooooooooooO ",
" XooooooooooooooooooooooooooooO ",
" XooooooooooooooooooooooooooooO ",
" XooooooooooooooooooooooooooooO ",
" XooooooooooooooooooooooooooooO ",
" XooooooooooooooooooooooooooooO ",
" XooooooooooooooooooooooooooooO ",
" XooooooooooooooooooooooooooooO ",
" XooooooooooooooooooooooooooooO ",
" XooooooooooooooooooooooooooooO ",
" XooooooooooooooooooooooooooooO ",
" XooooooooooooooooooooooooooooO ",
" XooooooooooooooooooooooooooooO ",
" XooooooooooooooooooooooooooooO ",
" XXXXXXXXXXXXXXXXXXXXXXXXXXXXXO ",
"                                ",
"+ . ....  .... .. ....  .... . +",
"+ .X    XX    XXXX    XX    X. +",
"+ XooooooooooooooooooooooooooX +",
"+ XooooooooooooooooooooooooooO +",
"+ XooooooooooooooooooooooooooO +",
"+ XooooooooooooooooooooooooooO +",
"+ XooooooooooooooooooooooooooO +",
"+ XooooooooooooooooooooooooooO +",
"+ XooooooooooooooooooooooooooO +",
"+ XooooooooooooooooooooooooooO +",
"+ Xo    oo    oooo    oo    oO +",
"    X..O  X..O    X..O  X..O    ",
" XXXXXXXXXXXXXXXXXXXXXXXXXXXXXX "
};
