/* XPM */
static char *_4af020d2eed416cd6613e1570f50f10CRvfhh0IYTZiZ3eE[] = {
/* columns rows colors chars-per-pixel */
"45 45 175 2 ",
"   c #1F1B1C",
".  c #201C1D",
"X  c #211D1E",
"o  c #201E1F",
"O  c #221E1F",
"+  c #251F1F",
"@  c #231F20",
"#  c #292526",
"$  c #2F2D2E",
"%  c #322E2F",
"&  c #4C3F1C",
"*  c #53411B",
"=  c #55431D",
"-  c #56421D",
";  c #55431F",
":  c #56441E",
">  c #57451F",
",  c #564322",
"<  c #564420",
"1  c #574521",
"2  c #584620",
"3  c #594721",
"4  c #584622",
"5  c #5B4722",
"6  c #5A4623",
"7  c #5A4822",
"8  c #5B4923",
"9  c #5C4823",
"0  c #594925",
"q  c #5D4924",
"w  c #5C4A24",
"e  c #5E4A25",
"r  c #5F4C24",
"t  c #5C4C28",
"y  c #5D4D29",
"u  c #5C4C2A",
"i  c #5F4F2D",
"p  c #624E29",
"a  c #614F2B",
"s  c #64502B",
"d  c #60502C",
"f  c #61512D",
"g  c #60502E",
"h  c #62522E",
"j  c #63532F",
"k  c #64522E",
"l  c #635331",
"z  c #645430",
"x  c #B58640",
"c  c #B68741",
"v  c #B68743",
"b  c #B78842",
"n  c #B78844",
"m  c #BB8B41",
"M  c #B88943",
"N  c #B98A42",
"B  c #BA8A42",
"V  c #BA8B43",
"C  c #BB8B43",
"Z  c #BC8A43",
"A  c #BC8C42",
"S  c #BE8C43",
"D  c #B88945",
"F  c #BA8944",
"G  c #B98A44",
"H  c #B98A46",
"J  c #BB8C44",
"K  c #BC8C44",
"L  c #BD8D45",
"P  c #BF8D44",
"I  c #BE8C45",
"U  c #BE8E46",
"Y  c #BB8E4A",
"T  c #BA8F4B",
"R  c #BC8F4B",
"E  c #BE8F4B",
"W  c #BF8F4D",
"Q  c #BD914A",
"!  c #BD904C",
"~  c #BE914D",
"^  c #BF924E",
"/  c #BE934E",
"(  c #C08E45",
")  c #C09149",
"_  c #C0934F",
"`  c #C19450",
"'  c #E4A558",
"]  c #E5A659",
"[  c #E7A859",
"{  c #E8A95A",
"}  c #E9AA5B",
"|  c #EAAB5C",
" . c #E9AB5E",
".. c #ECAA5C",
"X. c #EDAB5D",
"o. c #EFAA5D",
"O. c #EEAB5D",
"+. c #E9AC5C",
"@. c #EBAC5D",
"#. c #EFAC5D",
"$. c #EEAD5D",
"%. c #ECAD5E",
"&. c #EEAC5E",
"*. c #EDAE5F",
"=. c #EFAE5E",
"-. c #F1AE5D",
";. c #F0AD5E",
":. c #F1AE5F",
">. c #F0AF5F",
",. c #F2AF5E",
"<. c #ECAE63",
"1. c #EEAE64",
"2. c #EFB164",
"3. c #EFB166",
"4. c #EEB367",
"5. c #F1B167",
"6. c #F0B267",
"7. c #F1B368",
"8. c #F1B36A",
"9. c #D5BF90",
"0. c #D7C192",
"q. c #D8C090",
"w. c #D9C191",
"e. c #D8C293",
"r. c #DAC292",
"t. c #DBC393",
"y. c #DDC293",
"u. c #D9C394",
"i. c #DBC596",
"p. c #DCC697",
"a. c #DDC798",
"s. c #DEC79B",
"d. c #E8D6A8",
"f. c #ECD9AE",
"g. c #EFDAAF",
"h. c #F0DBAE",
"j. c #F1DCAF",
"k. c #F4DEAF",
"l. c #EEDBB0",
"z. c #EFDCB1",
"x. c #F0DBB0",
"c. c #F1DCB1",
"v. c #F3DCB0",
"b. c #F2DDB0",
"n. c #F3DEB1",
"m. c #F0DDB2",
"M. c #F2DDB2",
"N. c #F1DEB3",
"B. c #F3DEB3",
"V. c #F4DFB2",
"C. c #F4DFB4",
"Z. c #F3E1B3",
"A. c #F5E0B3",
"S. c #F3E0B5",
"D. c #F3E0B6",
"F. c #F5E0B5",
"G. c #F6E1B4",
"H. c #F4E2B4",
"J. c #F7E2B5",
"K. c #F4E1B6",
"L. c #F6E1B6",
"P. c #F5E2B7",
"I. c #F7E1B8",
"U. c #F6E3B8",
"Y. c #F5E4B8",
"T. c #F7E4B9",
"R. c #F8E3B8",
"E. c #E5E6EA",
"W. c #E7EBEE",
"Q. c #E8ECEF",
"!. c #EDF1F4",
"~. c #EEF2F5",
"^. c #F1F5F8",
"/. c #F2F6F9",
"(. c white",
/* pixels */
"(.(.(.(.(.(.(.(.(.(.(.(.(.(.2 2 : (.(.(.(.(.(.(.(.(.(.(.(.(.(.(.(.(.(.(.(.(.(.(.(.(.(.(.(.",
"(.(.(.(.(.(.(.(.(.(.(.(.(.1 C  .] 2 2 2 (.(.2 2 2 (.(.(.(.(.(.(.(.(.(.(.(.(.(.(.(.(.(.(.(.",
"(.(.(.(.(.(.(.(.(.(.(.y 2 C *.2.o.*.*.*.2 2 *.C C f (.(.(.(.(.(.(.(.(.(.(.(.(.(.(.(.(.(.(.",
"(.(.(.(.(.(.(.(.(.(.(.y q *.*.*.*.*.*.*.*.*.A.A.2.R 2 (.(.(.(.(.(.(.(.(.(.(.(.(.(.(.(.(.(.",
"(.(.(.(.(.(.(.(.(.(.- c I *.*.*.*.*.*.*.*.*.*.n.S.C 2 (.(.(.(.(.(.(.(.(.(.(.(.(.(.(.(.(.(.",
"(.(.(.(.(.(.(.(.(.: J  .*.*.*.*.*.*.*.*.*.*.*.@.A.C 2 (.(.(.(.(.(.(.(.(.(.(.(.(.(.(.(.(.(.",
"(.(.(.(.(.(.(.@ @ @ @ % @ @ @ @ @ . . . @ @ @ @ @ @ C 2 (.(.(.(.(.(.(.(.(.(.(.(.(.(.(.(.(.",
"(.(.(.(.(.(.(.@ . . W.$ # /.@ @ @ . . ~.@ ~.@ C C C @ @ 2 (.(.(.(.(.(.(.(.(.(.(.(.(.(.(.(.",
"(.(.(.(.(.(.(.(.@ /.. E.Q.. C C @ @ ~.. ~.@ C *.*.*.C C > (.(.(.(.(.(.(.(.(.(.(.(.(.(.(.(.",
"(.(.(.(.(.(.(.(., . @ . + S -.-.S @   % . y.-.*.*.*.-.-.S : (.(.(.(.(.(.(.(.(.(.(.(.(.(.(.",
"(.(.(.(.(.(.(.(.2 I I *.-.*.*.*.V.a.p.t.t.A.*.*.*.*.*.o.2.^ - (.(.(.(.(.(.(.(.(.(.(.(.(.(.",
"(.(.(.(.(.(.(.y [ @.@.*.*.*.*.k.n.S.V.V.V.L.k.*.*.*.*.} 8. .b y (.(.(.(.(.(.(.(.(.(.(.(.(.",
"(.(.(.(.(.(.(.9 *.*.*.*.*.*.*.L.U.A.A.A.A.A.A.*.*.*.@.1.o.*.C 2 (.(.(.(.(.(.(.(.(.(.(.(.(.",
"(.(.(.(.(.(.2 -.-.*.*.*.*.o.L.h.V.A.A.A.A.A.A.*.*.*.8.o.*.*.C C 2 l (.(.(.(.(.(.(.(.(.(.(.",
"(.(.(.(.(.2 2 & & -.*.-.o.l.U.A.A.A.A.A.A.A.A.*.*.*.*.*.*.C C C I c : (.(.(.(.(.(.(.(.(.(.",
"(.(.(.(.(.2 & & & & -.k.n.Q Z.C A.A.A.A.A.A.A.*.*.*.*.C C C *.*.I C H - (.(.(.(.(.(.(.(.(.",
"(.(.(.(.(.2 & & & & L.) I L.C t.A.2 t.A.A.V.L.*.*.*.*.*.*.*.*.*.*.} C S 2 (.(.(.(.(.(.(.(.",
"(.(.(.(.(.2 t.2 t.t.A.L.n.Z t.2 2 t.t.A.A.n.6.o.*.*.*.*.*.*.*.*.*.} C S 2 (.(.(.(.(.(.(.(.",
"(.(.(.(.(.(.2 2 2 2 2 7 2 2 : t.t.t.A.n.n.n.V.*.*.*.*.*.*.*.*.*.*.} C C C 2 (.(.(.(.(.(.(.",
"(.(.(.(.(.(.(.(.(.(.(.y q t.t.t.A.A.A.j.L.V.*.*.*.*.*.*.*.o.L.o.I C C C C 2 (.(.(.(.(.(.(.",
"(.(.(.(.(.(.(.(.(.(.(.y q A.A.A.A.V.n.n.V.*.*.*.*.*.*.*.*.z.L.*.I C C C C C > (.(.(.(.(.(.",
"(.(.(.(.(.(.(.(.(.(.(.y q A.A.A.V.S.U.V.*.*.*.*.*.*.*.n.L.L.Z C I ( *.-.C C > (.(.(.(.(.(.",
"(.(.(.(.(.(.(.(.(.(.(.(.(.: A.V.x.T.V.A.*.*.*.*.*.*.V.j.L.*.*.*.*.*.*.*.*.C H f (.(.(.(.(.",
"(.(.(.(.(.(.(.(.(.(.(.(.(.: A.n.f.V.A.A.A.*.*.*.A.V.L.L.*.*.*.*.*.*.*.*.o.<.^ > (.(.(.(.(.",
"(.(.(.(.(.(.(.(.(.(.(.(.(.: A.A.A.A.A.A.A.A.A.A.n.L.f.A.*.*.*.*.*.*.*.*.*.8.C C 2 (.(.(.(.",
"(.(.(.(.(.(.(.(.2 2 2 7 2 : A.A.A.A.A.A.A.A.A.V.h.L.V.A.*.*.*.*.*.*.*.*.*.*.*.C 2 (.(.(.(.",
"(.(.(.(.(.(.(.2 A.A.A.C.h.: A.A.A.A.A.A.A.A.A.A.V.V.A.A.*.*.*.*.*.] 2 C *.*.*.C 2 (.(.(.(.",
"(.(.(.(.(.(.(.2 2 L.A.a.t.: A.A.A.A.A.A.A.A.A.A.A.A.A.*.*.*.*.*.C T 2 C *.*.*.C 2 (.(.(.(.",
"(.(.(.(.(.(.(.2 t.t.0.9.t.t.: A.A.A.A.A.A.A.A.2 A.A.A.*.*.*.*.*._ T 2 C *.*.*.C 2 (.(.(.(.",
"(.(.(.(.(.(.(.(.2 1 f 7 2 2 : A.A.A.A.n.n.A.A.2 A.A.A.A.*.*.o.Q f r C *.*.*.*.C 2 (.(.(.(.",
"(.(.(.(.(.(.(.(.(.(.(.(.(.(.: A.A.A.V.f L.A.A.A.> A.A.A.*.*.H f C Z C *.*.*.C C 2 (.(.(.(.",
"(.(.(.(.(.(.(.(.(.* - : - - : A.A.n.f.f t.A.A.A.2 A.A.A...} ^ 1 C C C C *.C C C - (.(.(.(.",
"(.(.(.(.(.(.(.(.2 A.n.n.n.A.2 A.A.L.n.t.7 t.A.A.2 A.A.V.6.2.I 2 C I I I I I H k (.(.(.(.(.",
"(.(.(.(.(.(.(.(.s L.A.L.A.L.: n.x.R.A.t.2 t.n.n.a d.n.n.6.} c q C C C C C C C f (.(.(.(.(.",
"(.(.(.(.(.(.(.2 L.A.A.L.A.L.: T.L.A.A.t.: t.t.t.t.2 n.x.o.C 2 I I C C C C ^ W : (.(.(.(.(.",
"(.(.(.(.(.(.(.2 : L.A.L.V.t.i x.A.A.t.2 t.: : t.t.2 L.*.*.C 2 I I C C C _ b 2 (.(.(.(.(.(.",
"(.(.(.(.(.(.(.2 t.t.t.t.t.t.1 V.A.A.t.2 t.t.t.2 2 2 *.*.*.C > I I C C n ^ C 2 (.(.(.(.(.(.",
"(.(.(.(.(.(.(.(.2 2 2 7 2 2 : A.A.A.t.2 t.t.t.t.t.2 *.*.*.C > I I C C H C 2 (.(.(.(.(.(.(.",
"(.(.(.(.(.(.(.(.(.(.(.(.(.: A.A.V.V.t.2 2 2 i.u.t.2 *.*.*.C > I I C C S 2 (.(.(.(.(.(.(.(.",
"(.(.(.(.(.(.(.(.(.(.(.y q A.A.A.V.V.t.2 (.(.: 2 2 2 *.*.*.C > I I c 2 - (.(.(.(.(.(.(.(.(.",
"(.(.(.(.(.(.(.(.(.(.(.y q A.A.A.A.t.2 (.(.(.(.(.(.2 *.*.*.C 2 : 2 z (.(.(.(.(.(.(.(.(.(.(.",
"(.(.(.(.(.(.(.(.(.(.(.y q t.: t.2 t.2 (.(.(.(.(.2 *.*.*.*.C f (.(.(.(.(.(.(.(.(.(.(.(.(.(.",
"(.(.(.(.(.(.(.(.(.(.(.(.(.2 2 2 2 2 (.(.(.(.(.(.2 *.*.*.@.c 0 (.(.(.(.(.(.(.(.(.(.(.(.(.(.",
"(.(.(.(.(.(.(.(.(.(.(.(.(.(.(.(.(.(.(.(.(.(.(.(.2 2 *.2 R : (.(.(.(.(.(.(.(.(.(.(.(.(.(.(.",
"(.(.(.(.(.(.(.(.(.(.(.(.(.(.(.(.(.(.(.(.(.(.(.(.(.> > e a (.(.(.(.(.(.(.(.(.(.(.(.(.(.(.(."
};
