/* XPM */
static char *result[] = {
/* columns rows colors chars-per-pixel */
"64 64 58 1 ",
"  c #010101",
". c #020100",
"X c #040301",
"o c #040203",
"O c #070302",
"+ c #040402",
"@ c #050402",
"# c #070304",
"$ c #050507",
"% c #02070A",
"& c #01050E",
"* c #04040C",
"= c #0E1215",
"- c #202020",
"; c #302F2D",
": c #31302E",
"> c #31312F",
", c #32312F",
"< c #2B3336",
"1 c #2B3537",
"2 c #2A3636",
"3 c #2C3637",
"4 c gray19",
"5 c #333230",
"6 c #323232",
"7 c #343233",
"8 c #383234",
"9 c #393335",
"0 c #383636",
"q c #434343",
"w c #4F4C4C",
"e c #524E4D",
"r c #575556",
"t c #585657",
"y c #5C5B59",
"u c #5F5A5A",
"i c #656D71",
"p c #7E7878",
"a c #7F7979",
"s c #F7091D",
"d c #B97003",
"f c #82797A",
"g c #807A7A",
"h c #FFE737",
"j c #F4CD72",
"k c #024ACA",
"l c #1555C7",
"z c #4170C3",
"x c #6E8BBE",
"c c #829093",
"v c #8898B5",
"b c #B1B0AC",
"n c #C7BFAB",
"m c #C0BBC2",
"M c #CDC8C4",
"N c #CDCAC5",
"B c #D9D5D2",
"V c white",
/* pixels */
"VVVVVVVVVVVVVVVVVVVVVVVVVVVVVVVVVVVVVVVVVVVVVVVVVVVVVVVVVVVVVVVV",
"VVVVVVVVVVVVVVVVVVVVVVVVVVVVVVVVVVVVVVVVVVVVVVVVVVVVVVVVVVVVVVVV",
"VVVVVVVVVVVVVVVVVVVVVVVVVVVVVVVVVVVVVVVVVVVVVVVVVVVVVVVVVVVVVVVV",
"VVVVVVVVVVVVVVVVVVVVVVVVVVVVVVVVVVVVVVVVVVVVVVVVVVVVVVVVVVVVVVVV",
"VVVVVVVVVVVVVVVVVVVVVVVVVVVVVVVVVVVVVVVVVVVVVVVVVVVVVVVVVVVVVVVV",
"VVVVVVVVVVVVVVVVVVVVVVVVVVVVVVVVVVVVVVVVVVVVVVVVVVVVVVVVVVVVVVVV",
"VVVVVVVVVVVVVVVVVVVVVVVVVVVVVVVVVVVVVVVVVVVVVVVVVVVVVVVVVVVVVVVV",
"VVVVVVVVVVVVVVVVVVVVVVVVVVVVVVVVVVVVVVVVVVVVVVVVVVVVVVVVVVVVVVVV",
"VVVVVVVVVVVVVVVVVVVVVVVVVVVVVVVVVVVVVVVVVVVVVVVVVVVVVVVVVVVVVVVV",
"VVVVVVVVVVVVVVVVVVVVVVVVVVVVVVVVVVVVVVVVVVVVVVVVVVVVVVVVVVVVVVVV",
"VVVVVVVVVVVVVVVVVVVVVVVVVVVVVVVVVVVVVVVVVVVVVVVVVVVVVVVVVVVVVVVV",
"VVVVVVVVVVVVVVVVVVVVVVVVVVVVVVVVVVVVVVVVVVVVVVVVVVVVVVVVVVVVVVVV",
"VVVVVVVVVVVVVVVVVVVVVVVVVVVVVVVVVVVVVVVVVVVVVVVVVVVVVVVVVVVVVVVV",
"VVVVVVVVVVVVVVVVVVVVVVVVVVVVVVVVVVVVVVVVVVVVVVVVVVVVVVVVVVVVVVVV",
"VVVVVVVVVVVVVVVVVVVVVVVVVVVVVVVVVVVVVVVVVVVVVVVVVVVVVVVVVVVVVVVV",
"VVVVVVVVVVVVVVVVVVVVVVVVVVVVVVVVVVVVVVVVVVVVVVVVVVVVVVVVVVVVVVVV",
"VVVVVVVVVVVVVVVVVVVVVVVVVVVVVVVVVVVVVVVVVVVVVVVVVVVVVVVVVVVVVVVV",
"VVVVVVVVVVVVVVVVVVVVVVVVVVVVVVVVVVVVVVVVVVVVVVVVVVVVVVVVVVVVVVVV",
"VVVVVVVVVVVVVVVVVVVVVVVVVVVVVVVVVVVVVVVVVVVVVVVVVVVVVVVVVVVVVVVV",
"VVVVVVVVVVVVVVVVVVVVVVVVVVVVVVVVVVVVVVVVVVVVVVVVVVVVVVVVVVVVVVVV",
"VVVVVVVVVVVVVVVVVVVVVVVVVVVVVVVVVVVVVVVVVVVVVVVVVVVVVVVVVVVVVVVV",
"VVVVVVVVVVVVVVVVVVVVVVVVVVVVVVVVVVVVVVVVVVVVVVVVVVVVVVVVVVVVVVVV",
"VVVVVVVVVVVVVVVVVVVVVVVVVVVVVVVVVVVVVVVVVVVVVVVVVVVVVVVVVVVVVVVV",
"VVVVVVVVVVVVVVVVVVVVVVVVVVVVVVVVVVVVVVVVVVVVVVVVVVVVVVVVVVVVVVVV",
"VVVVVVVVVVVVVVVVVVVVVVVVVVVVVVVVVVVVVVVVVVVVVVVVVVVVVVVVVVVVVVVV",
"VVVVVVVVVVVVVVVVVVVVVVVVVVVVVVVVVVVVVVVVVVVVVVVVVVVVVVVVVVVVVVVV",
"VVVVVVVVVVVVVVVVVVVVVVVVVVVVVVVVVVVVVVVVVVVVVVVVVVVVVVVVVVVVVVVV",
"VVVVVVVVVVVVVVVVVVVVVVVVVVVVVVVVVVVVVVVVVVVVVVVVVVVVVVVVVVVVVVVV",
"VVVVVVVVVVVVVVVVVVVVVVVVVVVVVVVVVVVVVVVVVVVVVVVVVVVVVVVVVVVVVVVV",
"VVVVVVVVVVVVVVVVVVVVVVVVVVVVVVVVVVVVVVVVVVVVVVVVVVVVVVVVVVVVVVVV",
"VVVVVVVVVVVVVVVVVVVVVVVVVVVVVVVVVVVVVVVVVVVVVVVVVVVVVVVVVVVVVVVV",
"VVVVVVVVVVVVVVVVVVVVVVVVVVVVVVVVVVVVVVVVVVVVVVVVVVVVVVVVVVVVVVVV",
"VVVVVVVVVVVVVVVVVVVVVVVVVVVVVVVVVVVVVVVVVVVVVVVVVVVVVVVVVVVVVVVV",
"VVVVVVVVVVVVVVVVVVVVVVVVVVVVVVVVVVVVVVVVVVVVVVVVVVVVVVVVVVVVVVVV",
"VVVVVVVVVVVVVVVVVVVVVVVVVVVVVVVVVVVVVVVVVVVVVVVVVVVVVVVVVVVVVVVV",
"VVVVVVVVVVVVVVVVVVVVVVVVVVVVVVVVVVVVVVVVVVVVVVVVVVVVVVVVVVVVVVVV",
"VVVVVVVVVVVVVVVVVVVVVVVVVVVVVVVVVVVVVVVVVVVVVVVVVVVVVVVVVVVVVVVV",
"VVVVVVVVVVVVVVVVVVVVVVVVVVVVVVVVVVVVVVVVVVVVVVVVVVVVVVVVVVVVVVVV",
"VVVVVVVVVVVVVVVVVVVVVVVVVVVVVVVVVVVVVVVVVVVVVVVVVVVVVVVVVVVVVVVV",
"VVVVVVVVVVVVVVVVVVVVVVVVVVVVVVVVVVVVVVVVVVVVVVVVVVVVVVVVVVVVVVVV",
"VVVVVVVVVVVVVVVVVVVVVVVVVVVVVVVVVVVVVVVVVVuuuVVVVVVVVVVVVVVVVVVV",
"VVVVVVVVVVVVVVVVVVVVVVVVVVVVVVVVVVVVVVVVVuuuuuVVVVVVVVVVVVVVVVVV",
"VVVVVVVVVVVVVVVVVVVVVVVVVVVVVVVVVVVVVVVVVuuVuiuVVVVVVVVVVVVVVVVV",
"VVVVVVVVVVVVVVVVVVVVVVVVVVVVVVVVVVVVVVVVVuujhhhjVVVVVVVVVVVVVVVV",
"VVVVVVVVVVVVVVVVVVVVVVVVVVVVVVVVVVVVVVVVVuuVjjjVVVVVVVVVVVVVVVVV",
"VVVVVVVVVVVVVVVVVVVVVVVVVVVVVVVVVVVVVVVVVuuVVVVVVVVVVVVVVVVVVVVV",
"VVVVVVVVVVVVVVVkVVVVVVVVVVVVVVVVVVVVVVVVVuuVVVVVVVVVVVVVVVVVVVVV",
"VVVVVVVVVVVVVVkzkVVVVVVVVVVVVVVVVVVVVVVVVuuVVVVVVVVVVVVVVVVVVVVV",
"VVVVVVVVVVwwwwwwwwwwVVVVVVVVVVVVVVVVVVVVVuuVVVVVVVVVVVVVVVVVVVVV",
"VVVVVVVVVwn00000000nwVVVVVVVVVVVVVVVVVVVVuuVVVVVVVVVVVVVVVVVVVVV",
"VVVVVVVVwn0v00lllvl0nwVVVVVVVVVVVVVVVVVVVuuVVVVVVVVVVVVVVVVVVVVV",
"VVVVVVVwn0zz00zzzzvz0nwVVVVVVVVVVVVVVVVVVuuVVVVVVVVVVVVVVVVVVVVV",
"VVVVVVwn0xxx00xxxxxxx#OwVVVVVVVVVVVVVVVVVuuVVVVVddiddddiddVVVVVV",
"VVwwwwnn0000000000000Om0wwwwwwoVVVVVVVVVVuuVVVVVddudddduddVVVVVV",
"Vw0000..nnnnn0nnnnnnn*900000000OoVVVVVVVVuuVVVVVddudddduddVVVVVV",
"Vs0000nnnnnnn0&=nnnnnn8000---00j$VVVVVVVVuuVVVVVVVuVVVVuVVVVVVVV",
"Vh00c-++O0nnn0nnnnnnnn800-@+%-0hjVVVVVVVVuuVVVVVddddddddddViuuVV",
"V02<-+066O0nn0nnnnnnnn80-O66,O-j1VVVVVVVuuuuVVVVddddddddddViuuVV",
"V00-O;6M>4O000000000000-O6:N65O-0VVVVVVViuuiVVVVddddddddddViuuVV",
"V-30Otb6mOO0nnnnnnnnnnn-OOmeBqO00VVVVVVuuuuuuVVVVuVVVVVVuVViuuVV",
"VV--@@gmya@@@@@@@@@@@O@ Ogpmg@O--VVVVViiiiiiiiVVVuVVVVVVuVViuuVV",
"iiiii@7gg@iiiiiiiiiiiiiii@fgr@iiiiiiiiiiiiiiiiiiiiiiiiiiiiiiiiii",
"mmmmmm@OXmmmmmmmmmmmmmmmmm@@@mmmmmmmmmmmmmmmmmmmmmmmmmmmmmmmmmmm",
"imimimimimimimimimimimimimimimimimimimimimimimimimimimimimimimim"
};
