/* XPM */
static char *afb6065e83db46a1ee17af301c16a848scwmLaIKvZrEzFQM[] = {
/* columns rows colors chars-per-pixel */
"64 64 8 1 ",
"  c #202020",
". c #803008",
"X c #A05008",
"o c #C07020",
"O c #109810",
"+ c #00D000",
"@ c #50E850",
"# c #E09020",
/* pixels */
"                                                                ",
"+O@@@@@O++O@@@@O+O@@@@@O++O@@@@O+O@@@@@O++O@@@@O+O@@@@@O++O@@@@O",
"@@+++++@@@@++++@@@+++++@@@@++++@@@+++++@@@@++++@@@+++++@@@@++++@",
"++OOOO+++++OOOO+++OOOO+++++OOOO+++OOOO+++++OOOO+++OOOO+++++OOOO+",
"OOOOOOOOO OOOOOOOOOOOOOOO OOOOOOOOOOOOOOO OOOOOOOOOOOOOOO OOOOOO",
"O OOO OOO OOO OOO OOO OOO OOO OOO OOO OOO OOO OOO OOO OOO OOO OO",
"O + O O + O + O O + O O + O + O O + O O + O + O O + O O + O + O ",
"O @ + O @ + @ + O @ + O @ + @ + O @ + O @ + @ + O @ + O @ + @ + ",
"+   @ O   @   @ +   @ O   @   @ +   @ O   @   @ +   @ O   @   @ ",
"@ XX  + XX  XX  @ XX  + XX  XX  @ XX  + XX  XX  @ XX  + XX  XX  ",
" XXXX @ XXXXXXX  XXXX @ XXXXXXX  XXXX @ XXXXXXX  XXXX @ XXXXXXX ",
"XXoooX XXoXXooXoXXoooX XXoXXooXoXXoooX XXoXXooXoXXoooX XXoXXooXo",
"#oooooXXoooo##o##oooooXXoooo##o##oooooXXoooo##o##oooooXXoooo##o#",
"#o###oXXoooo##o##o###oXXoooo##o##o###oXXoooo##o##o###oXXoooo##o#",
"oo###ooooooo##oooo###ooooooo##oooo###ooooooo##oooo###ooooooo##oo",
"oo###oooXXoooooooo###oooXXoooooooo###oooXXoooooooo###oooXXoooooo",
"oo###oooXXoooooooo###oooXXoooooooo###oooXXoooooooo###oooXXoooooo",
"ooooooooooooo###ooooooooooooo###ooooooooooooo###ooooooooooooo###",
"ooXXooooooooo###ooXXooooooooo###ooXXooooooooo###ooXXooooooooo###",
"ooXXoo###oooooooooXXoo###oooooooooXXoo###oooooooooXXoo###ooooooo",
"ooXXoo###ooooXXoooXXoo###ooooXXoooXXoo###ooooXXoooXXoo###ooooXXo",
"ooooooooooXXoXXoooooooooooXXoXXoooooooooooXXoXXoooooooooooXXoXXo",
"ooooooooooXXooooooooooooooXXooooooooooooooXXooooooooooooooXXoooo",
"oXXoooo##ooooooooXXoooo##ooooooooXXoooo##ooooooooXXoooo##ooooooo",
"oXXo##o##oooXXoooXXo##o##oooXXoooXXo##o##oooXXoooXXo##o##oooXXoo",
"oooo##ooooooXXoooooo##ooooooXXoooooo##ooooooXXoooooo##ooooooXXoo",
"ooooooooo##oooooooooooooo##oooooooooooooo##oooooooooooooo##ooooo",
"ooooooXXo##oooooooooooXXo##oooooooooooXXo##oooooooooooXXo##ooooo",
"#oooooXXoooo##o##oooooXXoooo##o##oooooXXoooo##o##oooooXXoooo##o#",
"#o###ooooooo##o##o###ooooooo##o##o###ooooooo##o##o###ooooooo##o#",
"oo###ooooooo##oooo###ooooooo##oooo###ooooooo##oooo###ooooooo##oo",
"oo###oooXXoooooooo###oooXXoooooooo###oooXXoooooooo###oooXXoooooo",
"oo###oooXXoooooooo###oooXXoooooooo###oooXXoooooooo###oooXXoooooo",
"ooooooooooooo###ooooooooooooo###ooooooooooooo###ooooooooooooo###",
"ooXXooooooooo###ooXXooooooooo###ooXXooooooooo###ooXXooooooooo###",
"ooXXoo###oooooooooXXoo###oooooooooXXoo###oooooooooXXoo###ooooooo",
"ooXXoo###ooooXXoooXXoo###ooooXXoooXXoo###ooooXXoooXXoo###ooooXXo",
"ooooooooooXXoXXoooooooooooXXoXXoooooooooooXXoXXoooooooooooXXoXXo",
"ooooooooooXXooooooooooooooXXooooooooooooooXXooooooooooooooXXoooo",
"oXXoooo##ooooooooXXoooo##ooooooooXXoooo##ooooooooXXoooo##ooooooo",
"oXXo##o##oooXXoooXXo##o##oooXXoooXXo##o##oooXXoooXXo##o##oooXXoo",
"oooo##ooooooXXoooooo##ooooooXXoooooo##ooooooXXoooooo##ooooooXXoo",
"ooooooooo##oooooooooooooo##oooooooooooooo##oooooooooooooo##ooooo",
"ooooooXXo##oooooooooooXXo##oooooooooooXXo##oooooooooooXXo##ooooo",
"#oooooXXoooo##o##oooooXXoooo##o##oooooXXoooo##o##oooooXXoooo##o#",
"#o###ooooooo##o##o###ooooooo##o##o###ooooooo##o##o###ooooooo##o#",
"oo###ooooooo##oooo###ooooooo##oooo###ooooooo##oooo###ooooooo##oo",
"oo###oooXXoooooooo###oooXXoooooooo###oooXXoooooooo###oooXXoooooo",
"oo###oooXXoooooooo###oooXXoooooooo###oooXXoooooooo###oooXXoooooo",
"ooooooooooooo###ooooooooooooo###ooooooooooooo###ooooooooooooo###",
"ooXXooooooooo###ooXXooooooooo###ooXXooooooooo###ooXXooooooooo###",
"ooXXoo###oooooooooXXoo###oooooooooXXoo###oooooooooXXoo###ooooooo",
"ooXXoo###ooooXXoooXXoo###ooooXXoooXXoo###ooooXXoooXXoo###ooooXXo",
"ooooooooooXXoXXoooooooooooXXoXXoooooooooooXXoXXoooooooooooXXoXXo",
"ooooooooooXXooooooooooooooXXooooooooooooooXXooooooooooooooXXoooo",
"oXXoooo##ooooooooXXoooo##ooooooooXXoooo##ooooooooXXoooo##ooooooo",
"oXXo##o##oooXXoooXXo##o##oooXXoooXXo##o##oooXXoooXXo##o##oooXXoo",
"oooo##ooooooXXoooooo##ooooooXXoooooo##ooooooXXoooooo##ooooooXXoo",
"ooooooooo##oooooooooooooo##oooooooooooooo##oooooooooooooo##ooooo",
"ooooooXXo##oooooooooooXXo##oooooooooooXXo##oooooooooooXXo##ooooo",
"XXXXXXXXXXXXXXXXXXXXXXXXXXXXXXXXXXXXXXXXXXXXXXXXXXXXXXXXXXXXXXXX",
"................................................................",
"................................................................",
"                                                                "
};
