/* XPM */
static char *a406b296f7aa4286ec9786a3876de65f2ykgNNy3Itn5sIAD[] = {
/* columns rows colors chars-per-pixel */
"128 128 17 1 ",
"  c #2E2D2D",
". c #312424",
"X c #BC3535",
"o c #FB0000",
"O c #FF0404",
"+ c #F73838",
"@ c #92562B",
"# c #DC7F0F",
"$ c #8B7E4C",
"% c #748753",
"& c #FAB40B",
"* c #8CD612",
"= c #EC9546",
"- c #E0C45E",
"; c #7C24AA",
": c #FFF9E4",
"> c white",
/* pixels */
">>>>>>>>>>>>>>>>>>>>>>>>>>>>>>>>>>>>>>>>>>>>>>>>>>>>>>>>>>>>>>>>>>>>>>>>>>>>>>>>>>>>>>>>>>>>>>>>>>>>>>>>>>>>>>>>>>>>>>>>>>>>>>>>",
">>>>>>>>>>>>>>>>>>>>>>>>>>>>>>>>>>>>>>>>>>>>>>>>>>>>>>>>>>>>>>>>>>>>>>>>>>>>>>>>>>>>>>>>>>>>>>>>>>>>>>>>>>>>>>>>>>>>>>>>>>>>>>>>",
">>>>>>>>>>>>>>>>>>>>>>>>>>>>>>>>>>>>>>>>>>>>>>>>>>>>>>>>>>>>>>>>>>>>>>>>>>>>>>>>>>>>>>>>>>>>>>>>>>>>>>>>>>>>>>>>>>>>>>>>>>>>>>>>",
">>>>>>>>>>>>>>>>>>>>>>>>>>>>>>>>>>>>>>>>>>>>>>>>>>>>>>>>>>>>>>>>>>>>>>>>>>>>>>>>>>>>>>>>>>>>>>>>>>>>>>>>>>>>>>>>>>>>>>>>>>>>>>>>",
">>>>>>>>>>>>>>>>>>>>>>>>>>>>>>>>>>>>>>>>>>>>>>>>>>>>>>>>>>>>>>>>>>>>>>>>>>>>>>>>>>>>>>>>>>>>>>>>>>>>>>>>>>>>>>>>>>>>>>>>>>>>>>>>",
">>>>>>>>>>>>>>>>>>>>>>>>>>>>>>>>>>>>>>>>>>>>>>>>>>>>>>>>>>>>>>>>>>>>>>>>>>>>>>>>>>>>>>>>>>>>>>>>>>>>>>>>>>>>>>>>>>>>>>>>>>>>>>>>",
">>>>>>>>>>>>>>>>>>>>>>>>>>>>>>>>>>>>>>>>>>>>>>>>>>>>>>>>>>>>>>>>>>>>>>>>>>>>>>>>>>>>>>>>>>>>>>>>>>>>>>>>>>>>>>>>>>>>>>>>>>>>>>>>",
">>>>>>>>>>>>>>>>>>>>>>>>>>>>>>>>>>>>>>>>>>>>>>>>>>>>>>>>>>>>>>>>>>>>>>>>>>>>>>>>>>>>>>>>>>>>>>>>>>>>>>>>>>>>>>>>>>>>>>>>>>>>>>>>",
">>>>>>>>>>>>>>>>>>>>>>>>>>>>>>>>>>>>>>>>>>>>>>>>>>>>>>>>>>>>>>>>>>>>>>>>>>>>>>>>>>>>>>>>>>>>>>>>>>>>>>>>>>>>>>>>>>>>>>>>>>>>>>>>",
">>>>>>>>>>>>>>>>>>>>>>>>>>>>>>>>>>>>>>>>>>>>>>>>>>>>>>>>>>>>>>>>>>>>>>>>>>>>>>>>>>>>>>>>>>>>>>>>>>>>>>>>>>>>>>>>>>>>>>>>>>>>>>>>",
">>>>>>>>>>>>>>>>>>>>>>>>>>>>>>>>>>>>>>>>>>>>>>>>>>>>>>>>>>>>>>>>>>>>>>>>>>>>>>>>>>>>>>>>>>>>>>>>>>>>>>>>>>>>>>>>>>>>>>>>>>>>>>>>",
">>>>>>>>>>>>>>>>>>>>>>>>>>>>>>>>>>>>>>>>>>>>>>>>>>>>>>>>>>>>>>>>>>>>>>>>>>>>>>>>>>>>>>>>>>>>>>>>>>>>>>>>>>>>>>>>>>>>>>>>>>>>>>>>",
">>>>>>>>>>>>>>>>>>>>>>>>>>>>>>>>>>>>>>>>>>>>>>>>>>>>>>>>>>>>>>>>>>>>>>>>>>>>>>>>>>>>>>>>>>>>>>>>>>>>>>>>>>>>>>>>>>>>>>>>>>>>>>>>",
">>>>>>>>>>>>>>>>>>>>>>>>>>>>>>>>>>>>>>>>>>>>>>>>>>>>>>>>>>>>>>>>>>>>>>>>>>>>>>>>>>>>>>>>>>>>>>>>>>>>>>>>>>>>>>>>>>>>>>>>>>>>>>>>",
">>>>>>>>>>>>>>>>>>>>>>>>>>>>>>>>>>>>>>>>>>>>>>>>>>>>>>>>>>>>>>>>>>>>>>>>>>>>>>>>>>>>>>>>>>>>>>>>>>>>>>>>>>>>>>>>>>>>>>>>>>>>>>>>",
">>>>>>>>>>>>>>>>>>>>>>>>>>>>>>>>>>>>>>>>>>>>>>>>>>>>>>>>>>>>>>>>>>>>>>>>>>>>>>>>>>>>>>>>>>>>>>>>>>>>>>>>>>>>>>>>>>>>>>>>>>>>>>>>",
">>>>>>>>>>>>>>>>>>>>>>>>>>>>>>>>>>>>>>>>>>>>>>>>>>>>>>>>>>>>>>>>>>>>>>>>>>>>>>>>>>>>>>>>>>>>>>>>>>>>>>>>>>>>>>>>>>>>>>>>>>>>>>>>",
">>>>>>>>>>>>>>>>>>>>>>>>>>>>>>>>>>>>>>>>>>>>>>>>>>>>>>>>>>>>>>>>>>>>>>>>>>>>>>>>>>>>>>>>>>>>>>>>>>> >>>>>>>>>>>>>>>>>>>>>>>>>>>>",
">>>>>>>>>>>>>>>>>>>>>>>>>>>>>>>>>>>>>>>>>>>>>>>>>>>>>>>>>>>>>>>>>>>>>>>>>>>>>>>>>>>>>>>>>>>>>>>>>>> >>>>>>>>>>>>>>>>>>>>>>>>>>>>",
">>>>>>>>>>>>>>>>>>>>>>>>>>>>>>>>>>>>>>>>>>>>>>>>>>>>>>>>>>>>>>>>>>>>>>>>>>>>>>>>>>>>>>>>>>>>>>>>>>> >>>>>>>>>>>>>>>>>>>>>>>>>>>>",
">>>>>>>>>>>>>>>>>>>>>>>>>>>>>>>>>>>>>>>>>>>>>>>>>>>>>>>>>>>>>>>>>>>>>>>>>>>>>>>>>>>>>>>>>>>>>>>>>>> >>>>>>>>>>>>>>>>>>>>>>>>>>>>",
">>>>>>>>>>>>>>>>>>>>>>>>>>>>>>>>>>>>>>>>>>>>>>>>>>>>>>>>>>>>>>>>>>>>>>>>>>>>>>>>>>>>>>>>>>>>>>>>>>> >>>>>>>>>>>>>>>>>>>>>>>>>>>>",
">>>>>>>>>>>>>>>>>>>>>>>>>>>>>>>>>>>>>>>>>>>>>>>>>>>>>>>>>>>>>>>>>>>>>>>>>>>>>>>>>>>>>>>>>>>>>>>>>>> >>>>>>>>>>>>>>>>>>>>>>>>>>>>",
">>>>>>>>>>>>>>>>>>>>>>>>>>>>>>>>>>>>>>>>>>>>>>>>>>>>>>>>>>>>>>>>>>>>>>>>>>>>>>>>>>>>>>>>>>>>>>>>>>> >>>>>>>>>>>>>>>>>>>>>>>>>>>>",
">>>>>>>>>>>>>>>>>>>>>>>>>>>>>>>>>>>>>>>>>>>>>>>>>>>>>>>>>>>>>>>>>>>>>>>>>>>>>>>>>>>>>>>>>>>>>>>>>>> >>>>>>>>>>>>>>>>>>>>>>>>>>>>",
">>>>>>>>>>>>>>>>>>>>>>>>>>>>>>>>>>>>>>>>>>>>>>>>>>>>>>>>>>>>>>>>>>>>>>>>>>>>>>>>>>>>>>>>>>>>>>>>>>> >>>>>>>>>>>>>>>>>>>>>>>>>>>>",
">>>>>>>>>>>>>>>>>>>>>>>>>>>>>>>>>>>>>>>>>>>>>>>>>>>>>>>>>>>>>>>>>>>>>>>>>>>>>>>>>>>>>>>>>>>>>>>>>>> >>>>>>>>>>>>>>>>>>>>>>>>>>>>",
">>>>>>>>>>>>>>>>>>>>>>>>>>>>>>>>>>>>>>>>>>>>>>>>>>>>>>>>>>>>>>>>>>>>>>>>>>>>>>>>>>>>>>>>>>>>>>>>>>> >>>>>>>>>>>>>>>>>>>>>>>>>>>>",
">>>>>>>>>>>>>>>>>>>>>>>>>>>>>>>>>>>>>>>>>>>>>>>>>>>>>>>>>>>>>>>>>>>>>>>>>>>>>>>>>>>>>>>>>>>>>>>>>>> >>>>>>>>>>>>>>>>>>>>>>>>>>>>",
">>>>>>>>>>>>>>>>>>>>>>>>>>>>>>>>>>>>>>>>>>>>>>>>>>>>>>>>>>>>>>>>>>>>>>>>>>>>>>>>>>>>>>>>>>>>>>>>>>   >>>>>>>>>>>>>>>>>>>>>>>>>>>",
">>>>>>>>>>>>>>>>>>>>>>>>>>>>>>>>>>>>>>>>>>>>>>>>>>>>>>>>>>>>>>>>>>>>>>>>>>>>>>>>>>>>>>>>>>>>>>>>>>   >>>>>>>>>>>>>>>>>>>>>>>>>>>",
">>>>>>>>>>>>>>>>>>>>>>>>>>>>>>>>>>>>>>>>>>>>>>>>>>>>>>>>>>>>>>>>>>>>>>>>>>>>>>>>>>>>>>>>>>>>>>>>>>   >>>>>>>>>>>>>>>>>>>>>>>>>>>",
">>>>>>>>>>>>>>>>>>>>>>>>>>>>>>>>>>>>>>>>>>>>>>>>>>>>>>>>>>>>>>>>>>>>>>>>>>>>>>>>>>>>>>>>>>>>>>>>>     >>>>>>>>>>>  >>>>>>>>>>>>>",
">>>>>>>>>>>>>>>>>>>>>>>>>>>>>>>>>>>>>>>>>>>>>>>>>>>>>>>>>>>>>>>>>>>>>>>>>>>>>>>>>>>>>>>>>>>>>>>>>     >>>>>  >>>    >>>>>>>>>>>>",
">>>>>>>>>>>>>>>>>>>>>>>>>>>>>>>>>>>>>>>>>>>>>>>>>>>>>>>>>>>>>>>>>>>>>>>>>>>>>>>>>>>>>>>>>>>>>o>>       >>>>         >>o>>>>>>>>>",
">>>>>>>>>>>>>>>>>>>>>>>>>>>>>>>>>>>>>>>>>>>>>>>>>>>>>>>>>>>>>>>>>>>>>>>>>>>>>>>>>>>>>>>>>>>>>..........................>>>>>>>>>",
">>>>>>>>>>>>>>>>>>>>>>>>>>>>>>>>>>>>>>>>>>>>>>>>>>>>>>>>>>>>>>>>>>>>>>>>>>>>>>>>>>>>>>>>>>>>>..........................>>>>>>>>>",
">>>>>>>>>>>>>>>>>>>>>>>>>>>>>>>>>>>>>>>>>>>>>>>>>>>>>>>>>>>>>>>>>>>>>>>>>>>>>>>>>>>>>>...>>>>............   ...........>>>>>>>>>",
">>>>>>>>>>>>>>>>>>>>>>>>>>>>>>>>>>>>>>>>>>>>>>>>>>>>>>>>>>>>>>>>>>>>>>>>>>>>>>>>>>>>>.....>>>............ + ...........  >>>>>>>",
">>>>>>>>>>>>>>>>>>>>>>>>>>>>>>>>>>>>>>>>>>>>>>>>>>>>>>>>>>>>>>>>>>>>>>>>>>>>>>>>>>>>.......>>...........  +  ..........  >>>>>>>",
">>>>>>>>>>>>>>>>>>>>>>>>>>>>>>>>>>>>>>>>>>>>>>>>>>>>>>>>>>>>>>>>>>>>>>>>>>>>>>>>>>>>.;;;;..>>..........  + +  ......... >>>>>>>>",
">>>>>>>>>>>>>>>>>>>>>>>>>>>>>>>>>>>>>>>>>>>>>>>>>>>>>>>>>>>>>>>>>>>>>>>>>>>>>>>>>>>..;...;..>.........  ++ ++  ........>>>>>>>>>",
">>>>>>>>>>>>>>>>>>>>>>>>>>>>>>>>>>>>>>>>>>>>>>>>>>>>>>>>>>>>>>>>>>>>>>>>>>>>>>>>>>>..;...;............ + + + + ........>>>>>>>>>",
">>>>>>>>>>>>>>>>>>>>>>>>>>>>>>>>>>>>>>>>>>>>>>>>>>>>>>>>>>>>>>>>>>>>>>>>>>>>>>>>>>>..;...;..>......... + + + + ........>>>>>>>>>",
">>>>>>>>>>>>>>>>>>>>>>>>>>>>>>>>>>>>>>>>>>>>>>>>>>>>>>>>>>>>>>>>>>>>>>>>>>>>>>>>>>>..;;;;...>......... + + + + ........>>>>>>>>>",
">>>>>>>>>>>>>>>>>>>>>>>>>>>>>>>>>>>>>>>>>>>>>>>>>>>>>>>>>>>>>>>>>>>>>>>>>>>>>>>>>>>..;................ + + + + ........>>>>>>>>>",
">>>>>>>>>>>>>>>>>>>>>>>>>>>>>>>>>>>>>>>>>>>>>>>>>>>>>>>>>>>>>>>>>>>>>>>>>>>>>>>>>>>..;......>......... + + + + ........>>>>>>>>>",
">>>>>>>>>>>>>>    >>>>>>>>>>>>>>>>>>>>>>>>>>>>>>>>>>>>>>>>>>>>>>>>>>>>>>>>>>>>>>>>>>.;.....>>......... + + + + ........>>>>>>>>>",
">>>>>>>>>   >>    >>>>>>>>>>>>>>>>>>>>>>>>>>>>>>>>>>>>>>>>>>>>>>>>>>>>>>>>>>>>>>>>>>.......>>......... + + + + ........>>>>>>>>>",
">>>>>>>>          >>>>>>>>>>>>>>>>>>>>>>>>>>>>>>>>>>>>>>>>>>>>>>>>>>>>>>>>>>>>>>>>>>>.....>>>......... + + + + ........>>>>>>>>>",
">>o>>>>>    >>    >o>>>...>>>>>>>>>>>>>>>>>>>>>>>>>>>>>>>>>>>>>>>>>>>>>>>>>>>>>>>>>>>>...>>>>......... + + + + ........>>>>>>>>>",
">>..................>>.....>>>>>>>>>>>>>>>>>>>>>>>>>>>>>>>>>>>>>>>>>>>>>>>>>>>>>>>>>>>>>>>>>>........  + + + +  .......>>>>>>>>>",
">>..................>.......>>>>>>>>>>>>>>>>>>>>>>>>>>>>>>>>>>>>>>>>>>>>>>>>>>>>>>>>>>>>>>>>>........ ++ + + ++ .......>>>>>>>>>",
">>....          ....>.&&&&&.>>>>>>>>>>>>>>>>>>>>>>>>>>>>>>>>>>>>>>>>>>>>>>>>>>>>>>>>>>>>>>>>>........ +  + +  + ....... >>>>>>>>",
">>...  ========  ...>.&...&.>>>>>>>>>>>>>>>>>>>>>>>>>>>>>>.......>>>>>>>>>>>>>>>>>>>>>...>>>>.......  +  + +  +  ...... >>>>>>>>",
">>..  ==:===:===  ..>.&&&&..>>>>>>>>>>>>>>>>>>>>>>>>>>o>...........>o>>>>>>>>>>>>>>>>.....>>>....... ++  + +  ++ ...... >>>>>>>>",
"  .  =:===:===:==  .>.&...&.>>>>>>>>>>>>>>>>>>>>>>>>>>...............>>>>>>>>>>>>>>>.......>>......  +   + +   +  .....> >>>>>>>",
"  . ============== .>.&&&&&.>>>>>>>>>>>>>>>>>>>>>>>>>..       ..    ..>>>>>>>>>>>>>>.;.....>>...... ++ . + + . ++ .....> >>>>>>>",
"> . &&&&&&&&&&&&&& .>.......>>>>>>>>>>>>>>>>>>>>>>>>>.  *****    **  .>>>>>>>>>>>>>..;......>.....  +  . + + .  +  ....>> >>>>>>",
">>. XXXXXXXXXXXXXX .>.&&&&&.>>>>>>>>>>>>>>>>>>>>>>>>.. ******* ***** ..>>>>>>>>>>>>..;...........  +  .. + + ..  +  ...>> >>>>>>",
">>. ************** .>.&...&.>>>>>>>>>>>>>>>>>>>>>>>>.. ***** ******* ..>>>>>>>>>>>>..;......>...  ++ ... + + ... ++  ..>>> >>>>>",
">>. @@@@@@@@@@@@@@ ...&&&&&.>>>>>>>>>>>>>>>>>>>>>>>>.. ****   * **** ..>>>>>>>>>>>>..;......>... ++  ... + + ...  ++ ..>>> >>>>>",
">>. @@@@@@@@@@@@@@ .>.&.&...>>>>>>>>>>>>>>>>>>>>>>>...  **    * **** ...>>>>>>>>>>>..;..........    .... + + ....    ..>>>> >>>>",
">>. ############## .>.&..&..>>>>>>>>>>>>>>>>>>>>>>>....    . **  **  ...>>>>>>>>>>>..;......>...........  +  ..........>>>>  >>>",
">>. ############## .>.......>>>>>>>>>>>>>>>>>>>>>>>......... *      ....>>>>>>>>>>>>.;;;;;.>>............   ...........>>>> > >>",
">>.  ############  .>.&&&&&.>>>>>>>>>>>>>>>>>>>>>>o......    *    ......o>>>>>>>>>>>.......>>..........................>>>> > >>",
">>.                .>.&.....>>>>>>>>>>>>>>>>>>>>>>......  @@@*@@@  ......>>>>>>>>>>>>.....>>>..........................>>>> >> >",
">>. OOO  O  O OOO  .>.&&&&..>>>>>>>>>>>>>>>>>>>>>>.....  @@@**@@@@ ......>>>>>>>>>>>>>...>>>>..........................>>>> >> >",
">>. O  O O  O O  O .>.&.....>>>>>>>>>>>>>>>>>>>>>>..... @@@@*@@@@@ ......>>>>>>>>>>>>>>>>>>>>...................-----..>>>> >>> ",
" >. OOO  O  O OOO  .>.&&&&&.>>>>>>>>>>>>>>>>>>>>>>..... @@@@@@@@@@ ......>>>>>>>>>>>>>>>>>>>>....-------------.........>>>> >>>>",
"> . O  O O  O O  O .>....... >>>>>>>>>>>>>>> >>>>>..... @@@@@@@@@@ ......>>>>>>>>>>>>>>>>>>>>..........................>>>>>>>>>",
">>. OOO   OO  O  O .>..&&&.. >>>>>>>>>>>>>>> >>>>>..... @@@@@@@@@@ ......>>>>>>>>>>>>>...>>>>.....$$$$$...........   ..>>>>>>>>>",
">>.                .>.&&.&&. >>>>>>>>>>>>>>  >>>>>..... @@@@@@@@@  ......  >>>>>>>>>>.....>>>...............$$$$$$   ..>>>>>>>>>",
">>.  OO  OOOO OOO  .>.&...&.> >>>>>>>>>.......>>>>.....  @@@@@@@  .......  >>>>>>>>>.......>>.....................   ..>>>>>>>>>",
">>. O    O    O  O .>.&&&&&.>> >>>>>>>.........>>>......  @@@@   ........ >>>>>>>>>>..;;;..>>..........................>>>>>>>>>",
">>. O OO OOO  OOO  .>.&...&.>> >>>>>>...........>>.......      ..........>>>>>>>>>>..;...;..>...----..-----------......>>>>>>>>>",
">>. O  O O    O  O .........>>> >>>>>.%%%%%%%%..>>.......................>>>>>>>>>>..;...;.............................>>>>>>>>>",
">>.  OO  OOOO O  O .>.&&&&..>>>> >>>>..%......%.>>.......................>>>>>>>>>>..;...;..>..........................>>>>>>>>>",
">>.                .>.&...&.>>>> >>>>..%........>>...-----.........$$$...>>>>>>>>> ..;;;;;..>.....$$$$$$$$$$$$$$$$$....>>>>>>>>>",
">>.  ............  .>.&...&.>>>>> >>>..%%%%%%%...........................>>>>>>>>> ..;...;......   ....................>>>>>>>>>",
">>. .............. .>.&...&.>>>>>> >>........%..>>.......$$$$..---    ...>>>>>>>>> ..;...;..>...   ....................>>>>>>>>>",
">>..................>.&&&&..>>>>>>> >.%......%..>>................    ...>>>>>>>> >>.;...;.>>...   ....................>>>>>>>>>",
">>.....$$..$$$$$$$..>.......>>>>>>>> ..%%%%%%%%.>>....--------....    ...>>>>>>>> >>.......>>......-----------------...>>>>>>>>>",
">>..................>>.....>>>>>>>>>>...........>>................    ...>>>>>>>> >>>.....>>>..........................>>>>>>>>>",
">>...----....----...>>>...>>>>>>>>>>>.%%%%%%%%..>>.......................>>>>>>> >>>>>...>>>>..--.............   ......>>>>>>>>>",
">>.......  .........>>>>>>>>>>>>>>>>>..%......%.>>.......................>>>>>>> >>>>>>>>>>>>......$$$$.......   ......>>>>>>>>>",
">>.......  .........>>>>>>>>>>>>>>>>>..%........>>...$$$$..$$$$$$$$$$$...>>>>>> >>>>>>>>>>>>>.............$..$   $$$$..>>>>>>>>>",
">>..................>>>>>>>>>>>>>>>>>..%%%%.....>>.......................>>>>>> >>>>>>>>>>>>>..........................  >>>>>>>",
">>...$$$$$$.........>>>>>>>>>>>>>>>>>..%........>>.....  ................>>>>> >>>>>>>...>>>>.....--------.............  >>>>>>>",
">>...........-----..>>>>>>>>>>>>>>>>>..%......%.>>.....  ................>>>> >>>>>>>.....>>>................------.... >>>>>>>>",
">>.....----.........  >>>>>>>>>>>>>> .%%%%%%%%..>>.....  ...-----------..>>>  >>>>>>.......>>..........................>>>>>>>>>",
">>.............  ...  >>>>>>>>>>>>>> ...........>>..---..................>> > >>>>>>.;...;.>>......-----...............>>>>>>>>>",
">>.............  ... >>>>>>>>>>>>>>> .%%%%%%%%..>>.......................> >> >>>>>..;...;..>..............---------...>>>>>>>>>",
">>...-----.....  ...>>>>>>>>>>>>>>> >..%......%.>>.....$$$$$$$$$$..$$$... >>> >>>>>..;...;.............................>>>>>>>>>",
">>..................>>>>>>>>>>>>>>> >..%........>>..$$...................>>>> >>>>>...;.;...>...$$$$$$$$$....$$$$......>>>>>>>>>",
">>..................>>>>>>>>>>>>>> >>..%%%%.....>>.......................>>>>>>>>>>....;....>..........................>>>>>>>>>",
">>..........$$$$$$..>>>>>>>>>>>>> >>>..%........>>.......................>>>>>>>>>>....;...............................>>>>>>>>>",
">>..................>>>>>>>>>>>>> >>>..%......%.>>....---------..----....>>>>>>>>>>....;....>.....   ..................>>>>>>>>>",
">>..$$$$$$...$$$$...>>>>>>>>>>>> >>>>.%%%%%%%%..>>.......................>>>>>>>>>>>...;...>>.....   -------..-----....>>>>>>>>>",
">>.  ...............>>>>>>>>>>> >>>>>...........>>.......................>>>>>>>>>>>.......>>.....   ..................>>>>>>>>>",
">>.  .--..-------...>>>>>>>>>> >>>>>>.%%%%%%%.%.>>.....$$$$$$$$$$$..$$...>>>>>>>>>>>>.....>>>.....   ............$$$$..>>>>>>>>>",
">>.  ...............>>>>>>>>> >>>>>>>..%.....%..>>...   .................>>>>>>>>>>>>>...>>>>.....   $$$$$$$$..........>>>>>>>>>",
">>..................>>>>>>>> >>>>>>>>..%.....%..>>...   --...---------...>>>>>>>>>>>>>>>>>>>>..........................>>>>>>>>>",
">>..$$$.$$$$$$$..$..>>>>>>> >>>>>>>>>..%.....%..>>...   .................>>>>>>>>>>>>>>>>>>>>..---------....---------..>>>>>>>>>",
">>..................>>>>>  >>>>>>>>>>..%.....%..>>.......................>>>>>>>>>>>>>>>>>>>>..........................>>>>>>>>>",
"> ..........  ......>>>> > >>>>>>>>>>..%.....%..>>......----....$$$$$$...>>>>>>>>>>>>>>>>>>>>..........................>>>>>>>>>",
"> ..........  ...--.    >> >>>>>>>>>>.%%%%%%%.%.>>.......................>>>>>>>>>>>>>>>>>>> .....$$$$$$$$$$$$....$$$..>>>>>>>> ",
" >..-----...  ......>>>>>> >>>>>>>>>>...........>>...---...----------....>>>>>>>>>>>>>>>>>>> ..........................>>>>>>>> ",
">>..................>>>>>> >>>>>>>>>>.%%%%%%%%..>>.......................>>> >>>>>>>>>>>>>> >..........................>>>>>>>> ",
">>..---....-----....>>>>>>>>>>>>>>>>>..%......%.>>.......................>>> >>>>>>>>>>>>>> >.....-----------..----....>>>>>>> >",
">>..................>>>>>>>>>>>>>>>>>..%........>>.....$$$$$$$$$.  $$$...>>> >>>>>>>>>>>>> >>......   .................>>>>>>> >",
">>..................>>>>>>>>>>>>>>>>>..%%%%%%%...................  ......>>> >>>>>>>>>>>>> >>......   ..........$$$$$..>>>>>> >>",
">>...$$$$$$$..$$$...>>>>>>>>>>>>>>>>>........%..>>...$$$$...----.  ......>>   >>>>>>>>>>> >>>......   .................>>>>>> >>",
">>..................>>>>>>>>>>>>>>>>>.%......%..>>.......................>     >>>>>>>>>> >>>......   $$$$$$...........>>>>>> >>",
"  ..........------..>>>>>>>>>>>>>>>>>..%%%%%%%%.>>...................................... .....................-------..>>>>> >>>",
"  ...  .............>>>>>>>>>>>>>>>>>...........>>....-------...---.................... .........-----.................>>>> >>>>",
"> ...  ..-----......>>>>>>>>>>>>>>>>>>.........>>>.....................  ............. ................................>>> >>>>>",
">>...  ............. >>>>>>>>>>>>>>>>>>....... >>>......$$$$....$$$$$..  ............. ..........................   ...>> >>>>>>",
">>..................> >>>>>>>>>>>>>>>>>>>>>>>> >>>..--............................... .............----------..--   ...> >>>>>>>",
">>....$$$$$$$$......>> >>>>>>>>>>>>>>>>>>>>>>> >>>....   .....-------............... ............................   ... >>>>>>>>",
">>..................>>> >>>>>>>>>>>>>>>>>>>>>>> >>....   .......................... .............   ...................>>>>>>>>>",
">>..................>>>> >>>>>>>>>>>>>>>>>>>>>>> >....   ..........   .......>>>>> >>>>>>........   ..$$$$.............>>>>>>>>>",
">>....$$$...$$$$$$..>>>>> >>>>>>>>>>>>>>>>>>>>>> >....$$$$$$$$$$$$$   .....>>>>>> >>>>>>>>>......   ........$$$$$$$$$..>>>>>>>>>",
">>..................>>>>>>  >>>>>>>>>>>>>>>>>>>>> .................   ....>>>>>> >>>>>>>>>>>........-----..............>>>>>>>>>",
">>...------..---....>>>>>>>>  >>>>>>>>>>>>>>>>>>>>........................>>>>> >>>>>>>>>>>>...........................  >>>>>>>",
">>.............  ...>>>>>>>>>>  >>>>>>>>>>>>>>>>>>..--.---------.........>>>>> >>>>>>>>>>>>>>......$$$$$$$$....$$$$$...  >>>>>>>",
">>.............  ...>>>>>>>>>>>>   >>>>>>>>>>>>>>>................-----..>>>> >>>>>>>>>>>>>>>.......................... >>>>>>>>",
">>.............  ...>>>>>>>>>>>>>>>   >>>>>>>>>>>>.......................>>> >>>>>>>>>>>>>>>>..........................>>>>>>>>>"
};
