/* XPM */
static char *_2dbd8b0c9e048fb949c3ffe2f7df76eDR9MRWFOBqLUM4y5[] = {
/* columns rows colors chars-per-pixel */
"16 16 8 1 ",
"  c black",
". c #101010",
"X c #702000",
"o c #A85828",
"O c #D08830",
"+ c #F8C800",
"@ c #F8D078",
"# c white",
/* pixels */
".@OOo      Ooooo",
".OX  ++++++  XXX",
".o +++    +++ XX",
". ++  ####  ++ .",
"o + ######## + O",
" ++ ######## ++ ",
" +  ########  + ",
" + ########## + ",
" + ########## + ",
" + ########## + ",
" + ########## + ",
" + ########## + ",
" + ########## + ",
" + ########## + ",
" + ########## + ",
"   ##########   "
};
