/* XPM */
static char *_262bc961c734837f10ad43a74cba86crltQcMKfJBvca6ap[] = {
/* columns rows colors chars-per-pixel */
"16 16 10 1 ",
"  c #181818",
". c #A00000",
"X c #C80018",
"o c #F82038",
"O c #E06058",
"+ c #E08030",
"@ c #F0C830",
"# c #F8A870",
"$ c #F8F8F8",
"% c white",
/* pixels */
"%%%%%%%%%%%%%%%%",
"%%%%%%%%    %%%%",
"%%%%%   oooo %%%",
"%%%% .XXX+@@ %%%",
"%%% .XXX      %%",
"%%% ...        %",
"%% ..  O$$O$O  %",
"%%    OO$ # # %%",
"%% #  OO$ #   %%",
"% ##   O###### %",
"% O#O O# OO### %",
"%% OOO#    OO   ",
"%%%  OO##     %%",
"%%%%   OOOOO %%%",
"%%%%%%%      %%%",
"%%%%%%%%%%%%%%%%"
};
