/* XPM */
static char *result[] = {
/* columns rows colors chars-per-pixel */
"12 16 3 1 ",
"  c black",
". c #fffffe",
", c white",
/* pixels */
",,,......,,,",
",,..    .,,,",
",..     .,,,",
"..      .,,,",
".   .   .,,,",
".  ..   .,,,",
".....   .,,,",
",,,,.   .,,,",
",,,,.   .,,,",
",,,,.   .,,,",
",,,,.   .,,,",
",,,,.   .,,,",
".....   ....",
".          .",
".          .",
"............"
};
