/* XPM */
static char *c9d07427ff8d4228b4d5be53140a53dbGXAFSJnEovO6QtcP[] = {
/* columns rows colors chars-per-pixel */
"32 32 11 1 ",
"  c black",
". c #222034",
"X c #DF7126",
"o c #37946E",
"O c #306082",
"+ c #76428A",
"@ c #768F9D",
"# c #79909D",
"$ c #9BADB7",
"% c #C0C9CE",
"& c white",
/* pixels */
"&&&&&&&&&&&&$$$$$$$$$$$&&&&&&&&&",
"&&&&&&&&&&$$$$$$$$$$$$$$$&&&&&&&",
"&&&&&&&&&&$$$$$OOOOO$$$$$$&&&&&&",
"&&&&&&&&&$$$$OOOOOXXO$$$$$&&&&&&",
"&&&&&&&&&$$$$$OOOX&.XO$$$$$&&&&&",
"&&&&&&&&$$$$$$$OOX..X$$$$$$&&&&&",
"&&&&&&&&$$$$$$$$OOXX$$$$$$$%&&&&",
"&&&&&&&&$$$$$$$$$OOO$$$$$$%% &&&",
"&&&&&&&&$$$$$$$$$$$$$$$$$$    &&",
"&&&&&&&&$$$$$$$$$$$$$$$$$      &",
"&&&&&&&&&$$$$$$$$$$$$$$&&&&&&&&&",
"&&&&&&&&&+$$$$$$$$$$$$&&&&&&&&&&",
"&&&&&&&&&O+O$$$$$$$$$O&&&&&&&&&&",
"&&&&&&&&&OO+OoOoOoOoOo&&&&&&&&&&",
"&&&&&&&&&OOO+OoOoOoOoOo&&&&&&&&&",
"&&&&&&&&&$$OO+OoOoOoOoOo&&&&&&&&",
"&&&&&&&&$$$$OO+OoOoOoOoOo&&&&&&&",
"&&&&&&&$$$$$$OO+O+OoOoOoOo&&&&&&",
"&&&&&&$$$$$$$$$$OO+O+OoOoO&&&&&&",
"&&&&&$$$$$@#####$$$OO+O+OoO&&&&&",
"&&&&$$$$@##$$$$@###$$OOO+O+&&&&&",
"&&&$$$@##$$$$$$$$$##$$OOOOOO&&&&",
"&&$$$##$$$$$$$$$$$$@#$$OOOOO&&&&",
"&$$$#@$$$$$$$$$$$$$$@#$$OOOO&&&&",
"$$$#@$$$$$$$$$$$$$$$$#$$$OOO&&&&",
"$$#@$$$$$$$$$$$$$$$$$#$$$$OO&&&&",
"$#@.$$$$$$$$$$$$$$$$##$$$$O&&&&&",
"#@...$$$$$$$$$$$$$$##$$$$$O&&&&&",
"@$$....$$$$$$$$$$$##$$$$$$&&&&&&",
"$$$$$....$$$$$$$$##$$$$$$&&&&&&&",
"$$$$$$$....$$$$###$$$$$$&&&&&&&&",
"$$$$$$$$$...$$##$$$$$$$&&&&&&&&&"
};
