/* XPM */
static char *_78d13fe84ec463cffd4446e0b6724c5XWi1GE3dIyayJ1w5[] = {
/* columns rows colors chars-per-pixel */
"64 64 10 1 ",
"  c #202020",
". c #005000",
"X c #905008",
"o c #008800",
"O c #08C008",
"+ c #20F020",
"@ c #C88808",
"# c #F8B808",
"$ c #A8F860",
"% c #F8D098",
/* pixels */
"                                                                ",
"OOoo..$$$$$..ooOOOoo..$$$$$..ooOOOoo..$$$$$..ooOOOoo..$$$$$..ooO",
"oo..$$+OOO+$$..ooo..$$+OOO+$$..ooo..$$+OOO+$$..ooo..$$+OOO+$$..o",
"..$$+OO...O++$$...$$+OO...O++$$...$$+OO...O++$$...$$+OO...O++$$.",
"$$++O..+++..O++$$$++O..+++..O++$$$++O..+++..O++$$$++O..+++..O++$",
"++OO.++OOO++.OO+++OO.++OOO++.OO+++OO.++OOO++.OO+++OO.++OOO++.OO+",
"OO..+OOOOOOO+..OOO..+OOOOOOO+..OOO..+OOOOOOO+..OOO..+OOOOOOO+..O",
"..++OOOoooOOO++...++OOOoooOOO++...++OOOoooOOO++...++OOOoooOOO++.",
"++OOOoo...ooOOO+++OOOoo...ooOOO+++OOOoo...ooOOO+++OOOoo...ooOOO+",
"OOOOo..$$$..oOOOOOOOo..$$$..oOOOOOOOo..$$$..oOOOOOOOo..$$$..oOOO",
"OOoo.$$+++$$.ooOOOoo.$$+++$$.ooOOOoo.$$+++$$.ooOOOoo.$$+++$$.ooO",
"oo..$+OOOO++$..ooo..$+OOOO++$..ooo..$+OOOO++$..ooo..$+OOOO++$..o",
"..$$+O....OO+$$...$$+O....OO+$$...$$+O....OO+$$...$$+O....OO+$$.",
"$$+O..oOOo..O++$$$+O..oOOo..O++$$$+O..oOOo..O++$$$+O..oOOo..O++$",
"................................................................",
"                                                                ",
"X@@@@@@XX@@@@@@XX@@@@@@XX@@@@@@XX@@@@@@XX@@@@@@XX@@@@@@XX@@@@@@X",
"@X@##@X@@X@##@X@@X@##@X@@X@##@X@@X@##@X@@X@##@X@@X@##@X@@X@##@X@",
"#@X@@X@##@X@@X@##@X@@X@##@X@@X@##@X@@X@##@X@@X@##@X@@X@##@X@@X@#",
"%#@XX@#%%#@XX@#%%#@XX@#%%#@XX@#%%#@XX@#%%#@XX@#%%#@XX@#%%#@XX@#%",
"%#@XX@#%%#@XX@#%%#@XX@#%%#@XX@#%%#@XX@#%%#@XX@#%%#@XX@#%%#@XX@#%",
"#@X@@X@##@X@@X@##@X@@X@##@X@@X@##@X@@X@##@X@@X@##@X@@X@##@X@@X@#",
"@X@##@X@@X@##@X@@X@##@X@@X@##@X@@X@##@X@@X@##@X@@X@##@X@@X@##@X@",
"X@#%%#@XX@#%%#@XX@#%%#@XX@#%%#@XX@#%%#@XX@#%%#@XX@#%%#@XX@#%%#@X",
"X@#%%#@XX@#%%#@XX@#%%#@XX@#%%#@XX@#%%#@XX@#%%#@XX@#%%#@XX@#%%#@X",
"@X@##@X@@X@##@X@@X@##@X@@X@##@X@@X@##@X@@X@##@X@@X@##@X@@X@##@X@",
"#@X@@X@##@X@@X@##@X@@X@##@X@@X@##@X@@X@##@X@@X@##@X@@X@##@X@@X@#",
"%#@XX@#%%#@XX@#%%#@XX@#%%#@XX@#%%#@XX@#%%#@XX@#%%#@XX@#%%#@XX@#%",
"%#@XX@#%%#@XX@#%%#@XX@#%%#@XX@#%%#@XX@#%%#@XX@#%%#@XX@#%%#@XX@#%",
"#@X@@X@##@X@@X@##@X@@X@##@X@@X@##@X@@X@##@X@@X@##@X@@X@##@X@@X@#",
"@X@##@X@@X@##@X@@X@##@X@@X@##@X@@X@##@X@@X@##@X@@X@##@X@@X@##@X@",
"X@#%%#@XX@#%%#@XX@#%%#@XX@#%%#@XX@#%%#@XX@#%%#@XX@#%%#@XX@#%%#@X",
"X@@@@@@XX@@@@@@XX@@@@@@XX@@@@@@XX@@@@@@XX@@@@@@XX@@@@@@XX@@@@@@X",
"@X@##@X@@X@##@X@@X@##@X@@X@##@X@@X@##@X@@X@##@X@@X@##@X@@X@##@X@",
"#@X@@X@##@X@@X@##@X@@X@##@X@@X@##@X@@X@##@X@@X@##@X@@X@##@X@@X@#",
"%#@XX@#%%#@XX@#%%#@XX@#%%#@XX@#%%#@XX@#%%#@XX@#%%#@XX@#%%#@XX@#%",
"%#@XX@#%%#@XX@#%%#@XX@#%%#@XX@#%%#@XX@#%%#@XX@#%%#@XX@#%%#@XX@#%",
"#@X@@X@##@X@@X@##@X@@X@##@X@@X@##@X@@X@##@X@@X@##@X@@X@##@X@@X@#",
"@X@##@X@@X@##@X@@X@##@X@@X@##@X@@X@##@X@@X@##@X@@X@##@X@@X@##@X@",
"X@#%%#@XX@#%%#@XX@#%%#@XX@#%%#@XX@#%%#@XX@#%%#@XX@#%%#@XX@#%%#@X",
"X@#%%#@XX@#%%#@XX@#%%#@XX@#%%#@XX@#%%#@XX@#%%#@XX@#%%#@XX@#%%#@X",
"@X@##@X@@X@##@X@@X@##@X@@X@##@X@@X@##@X@@X@##@X@@X@##@X@@X@##@X@",
"#@X@@X@##@X@@X@##@X@@X@##@X@@X@##@X@@X@##@X@@X@##@X@@X@##@X@@X@#",
"%#@XX@#%%#@XX@#%%#@XX@#%%#@XX@#%%#@XX@#%%#@XX@#%%#@XX@#%%#@XX@#%",
"%#@XX@#%%#@XX@#%%#@XX@#%%#@XX@#%%#@XX@#%%#@XX@#%%#@XX@#%%#@XX@#%",
"#@X@@X@##@X@@X@##@X@@X@##@X@@X@##@X@@X@##@X@@X@##@X@@X@##@X@@X@#",
"@X@##@X@@X@##@X@@X@##@X@@X@##@X@@X@##@X@@X@##@X@@X@##@X@@X@##@X@",
"X@#%%#@XX@#%%#@XX@#%%#@XX@#%%#@XX@#%%#@XX@#%%#@XX@#%%#@XX@#%%#@X",
"X@@@@@@XX@@@@@@XX@@@@@@XX@@@@@@XX@@@@@@XX@@@@@@XX@@@@@@XX@@@@@@X",
"@X@##@X@@X@##@X@@X@##@X@@X@##@X@@X@##@X@@X@##@X@@X@##@X@@X@##@X@",
"#@X@@X@##@X@@X@##@X@@X@##@X@@X@##@X@@X@##@X@@X@##@X@@X@##@X@@X@#",
"%#@XX@#%%#@XX@#%%#@XX@#%%#@XX@#%%#@XX@#%%#@XX@#%%#@XX@#%%#@XX@#%",
"%#@XX@#%%#@XX@#%%#@XX@#%%#@XX@#%%#@XX@#%%#@XX@#%%#@XX@#%%#@XX@#%",
"#@X@@X@##@X@@X@##@X@@X@##@X@@X@##@X@@X@##@X@@X@##@X@@X@##@X@@X@#",
"@X@##@X@@X@##@X@@X@##@X@@X@##@X@@X@##@X@@X@##@X@@X@##@X@@X@##@X@",
"X@#%%#@XX@#%%#@XX@#%%#@XX@#%%#@XX@#%%#@XX@#%%#@XX@#%%#@XX@#%%#@X",
"X@#%%#@XX@#%%#@XX@#%%#@XX@#%%#@XX@#%%#@XX@#%%#@XX@#%%#@XX@#%%#@X",
"@X@##@X@@X@##@X@@X@##@X@@X@##@X@@X@##@X@@X@##@X@@X@##@X@@X@##@X@",
"#@X@@X@##@X@@X@##@X@@X@##@X@@X@##@X@@X@##@X@@X@##@X@@X@##@X@@X@#",
"%#@XX@#%%#@XX@#%%#@XX@#%%#@XX@#%%#@XX@#%%#@XX@#%%#@XX@#%%#@XX@#%",
"%#@XX@#%%#@XX@#%%#@XX@#%%#@XX@#%%#@XX@#%%#@XX@#%%#@XX@#%%#@XX@#%",
"#@X@@X@##@X@@X@##@X@@X@##@X@@X@##@X@@X@##@X@@X@##@X@@X@##@X@@X@#",
"@X@##@X@@X@##@X@@X@##@X@@X@##@X@@X@##@X@@X@##@X@@X@##@X@@X@##@X@",
"X@#%%#@XX@#%%#@XX@#%%#@XX@#%%#@XX@#%%#@XX@#%%#@XX@#%%#@XX@#%%#@X"
};
