/* XPM */
static char *_f0681e6405a43bfbef9fea5b3e4937aZAiJCCskhnFpIBvc[] = {
/* columns rows colors chars-per-pixel */
"64 64 6 1 ",
"  c #187898",
". c #40A0C0",
"X c #68B8D8",
"o c #90D0E8",
"O c #B8F8F8",
"+ c #F8F8F8",
/* pixels */
"oooooooooooooooooooooooooooooooooooooooooooooooooooooooooooooooo",
"OOOOOOOOOOOOOOOOOOOOOOOOOOOOOOOOOOOOOOOOOOOOOOOOOOOOOOOOOOOOOOOO",
"++++++++++++++++++++++++++++++++++++++++++++++++++++++++++++++++",
"++++++++++++++++++++++++++++++++++++++++++++++++++++++++++++++++",
"++++++++++++++++++++++++++++++++++++++++++++++++++++++++++++++++",
"++++++++++++++++++++++++++++++++++++++++++++++++++++++++++++++++",
"++++++++++++++++++++++++++++++++++++++++++++++++++++++++++++++++",
"++++++++++++++++++++++++++++++++++++++++++++++++++++++++++++++++",
"O+++++++++++++OOO+++++++++++++OOO+++++++++++++OOO+++++++++++++OO",
"oOO++++++++++OoooOO++++++++++OoooOO++++++++++OoooOO++++++++++Ooo",
"XooO++++++++OoXXXooO++++++++OoXXXooO++++++++OoXXXooO++++++++OoXX",
".XXoOO++++OOoX...XXoOO++++OOoX...XXoOO++++OOoX...XXoOO++++OOoX..",
"X..XooOOOOooX.OOX..XooOOOOooX.OOX..XooOOOOooX.OOX..XooOOOOooX.OO",
"oXX.XXooooXX.ooooXX.XXooooXX.ooooXX.XXooooXX.ooooXX.XXooooXX.ooo",
"XXXX..XXXX..XXXXXXXX..XXXX..XXXXXXXX..XXXX..XXXXXXXX..XXXX..XXXX",
"................................................................",
"XOOOOOX.  ....   .XXXXXXXXXXXX.  .XOOOOOOOOOOOOX .XXXXXXXXXXXX. ",
"O+++++OX .XXXX. .XOOOOOOOOOOOOX..XO++++++++++++O.XOOOOOOOOOOOOX.",
"O+++++OX.XXooXX.XO++++++++++++OXXO+O+++++++++++OXO++++++++++++OX",
"O+++OOoX.XooooX.XoO+++++++++++OXXO+oOO+++OO++++OXoO+++++++++++OX",
"XO++OooX.XooooX.XoO+++++++++++OXXO++ooOOOooO+OOXXoO+++++++++++OX",
"XO++OooX.XXooXX.XooOOOO+++++++OXXO+OOOoooOoO+OoXXooOOOO+++++++OX",
"XO++OooX .XXXX. .XoooooOO+++OOoXXOOOOOOOOOoO+OoX.XoooooOO+++OOoX",
"XoOOoooX  ....  ..XXXooooOOOoooXXXoOoOoOOOoO+OoX..XXXooooOOOoooX",
"XooooooX .XXXX. ..XXXXoooooooooXXXooooooooooOooX..XXXXoooooooooX",
"XooooooX.XOOOOX..XOOOOXooooooooXXXooooooooooooXX.XOOOOXooooooooX",
"XooooooXXO++++OXXOOOOOOXoooooooXXXooooooooooooXXXOOOOOOXoooooooX",
"XooooooXXO++++OXXOooooOXoooooooXXXooooooooooooXXXOooooOXoooooooX",
"XooooooXXoOOOOoXXooooooXXoooooX.XXooooooooooooXXXooooooXXoooooX.",
"XooooooXXooooooXXooooooX.XXXXX. XXXooooooooooXXXXooooooX.XXXXX. ",
".XooooX..XooooX..XooooX. ....   .XXXXXXXXXXXXXX..XooooX. ....   ",
" .XXXX.  .XXXX.  .XXXX.          .XXXXXXXXXXXX.  .XXXX.         ",
" .XXXXXXXXXXXX. XOOOOOX.  ....   .XXXXXXXXXXXX. XOOOOOX.  ....  ",
".XOOOOOOOOOOOOX.O+++++OX .XXXX. .XOOOOOOOOOOOOX.O+++++OX .XXXX. ",
"XO++++++++++++OXO+++++OX.XXooXX.XO++++++++++++OXO+++++OX.XXooXX.",
"XoO+++++++++++OXO+++OOoX.XooooX.XoO+++++++++++OXO+++OOoX.XooooX.",
"XoO+++++++++++OXXO++OooX.XooooX.XoO+++++++++++OXXO++OooX.XooooX.",
"XooOOOO+++++++OXXO++OooX.XXooXX.XooOOOO+++++++OXXO++OooX.XXooXX.",
".XoooooOO+++OOoXXO++OooX .XXXX. .XoooooOO+++OOoXXO++OooX .XXXX. ",
"..XXXooooOOOoooXXoOOoooX  ....  ..XXXooooOOOoooXXoOOoooX  ....  ",
"..XXXXoooooooooXXooooooX .XXXX. ..XXXXoooooooooXXooooooX .XXXX. ",
".XOOOOXooooooooXXooooooX.XOOOOX..XOOOOXooooooooXXooooooX.XOOOOX.",
"XOOOOOOXoooooooXXooooooXXO++++OXXOOOOOOXoooooooXXooooooXXO++++OX",
"XOooooOXoooooooXXooooooXXO++++OXXOooooOXoooooooXXooooooXXO++++OX",
"XooooooXXoooooX.XooooooXXoOOOOoXXooooooXXoooooX.XooooooXXoOOOOoX",
"XooooooX.XXXXX. XooooooXXooooooXXooooooX.XXXXX. XooooooXXooooooX",
".XooooX. ....   .XooooX..XooooX..XooooX. ....   .XooooX..XooooX.",
" .XXXX.          .XXXX.  .XXXX.  .XXXX.          .XXXX.  .XXXX. ",
" .XOOOOOOOOOOOOX .XXXXXXXXXXXX. XOOOOOX.  ....   .XOOOOOOOOOOOOX",
".XO++++++++++++O.XOOOOOOOOOOOOX.O+++++OX .XXXX. .XO++++++++++++O",
"XO+O+++++++++++OXO++++++++++++OXO+++++OX.XXooXX.XO+O+++++++++++O",
"XO+oOO+++OO++++OXoO+++++++++++OXO+++OOoX.XooooX.XO+oOO+++OO++++O",
"XO++ooOOOooO+OOXXoO+++++++++++OXXO++OooX.XooooX.XO++ooOOOooO+OOX",
"XO+OOOoooOoO+OoXXooOOOO+++++++OXXO++OooX.XXooXX.XO+OOOoooOoO+OoX",
"XOOOOOOOOOoO+OoX.XoooooOO+++OOoXXO++OooX .XXXX. XOOOOOOOOOoO+OoX",
"XXoOoOoOOOoO+OoX..XXXooooOOOoooXXoOOoooX  ....  XXoOoOoOOOoO+OoX",
"XXooooooooooOooX..XXXXoooooooooXXooooooX .XXXX. XXooooooooooOooX",
"XXooooooooooooXX.XOOOOXooooooooXXooooooX.XOOOOX.XXooooooooooooXX",
"XXooooooooooooXXXOOOOOOXoooooooXXooooooXXO++++OXXXooooooooooooXX",
"XXooooooooooooXXXOooooOXoooooooXXooooooXXO++++OXXXooooooooooooXX",
"XXooooooooooooXXXooooooXXoooooX.XooooooXXoOOOOoXXXooooooooooooXX",
"XXXooooooooooXXXXooooooX.XXXXX. XooooooXXooooooXXXXooooooooooXXX",
".XXXXXXXXXXXXXX..XooooX. ....   .XooooX..XooooX..XXXXXXXXXXXXXX.",
" .XXXXXXXXXXXX.  .XXXX.          .XXXX.  .XXXX.  .XXXXXXXXXXXX. "
};
