/* XPM */
static char *_fdf034963e54f3fa9954c12bc48e34cJbLriYCIPpCtjVjI[] = {
/* columns rows colors chars-per-pixel */
"100 100 17 1 ",
"  c black",
". c gray9",
"X c #753475",
"o c #BF171D",
"O c #ED1C24",
"+ c #B0581B",
"@ c #FF7F27",
"# c #198238",
"$ c #22B14C",
"% c #A8A000",
"& c #FFF200",
"* c #343BA8",
"= c #0072A3",
"- c #3F48CC",
"; c #A349A4",
": c #00A2E8",
"> c white",
/* pixels */
"                                                                                                    ",
" .................................................................................................. ",
" .ooooooooooooo++++++++++++++%%%%%%%%%%%%%%##############==============**************XXXXXXXXXXXXX. ",
" .ooooooooooooo++++++++++++++%%%%%%%%%%%%%%##############==============**************XXXXXXXXXXXXX. ",
" .oOOOOOOOOOOOO@@@@@@@@@@@@@@&&&&&&&&&&&&&&$$$$$$$$$$$$$$::::::::::::::--------------;;;;;;;;;;;;;. ",
" .oOOOOOOOOOOOO@@@@@@@@@@@@@@&&&&&&&&&&&&&&$$$$$$$$$$$$$$::::::::::::::--------------;;;;;;;;;;;;;. ",
" .oOOOOOOOOOOOO@@@@@@@@@@@@@@&&&&&&&&&&&&&&$$$$$$$$$$$$$$::::::::::::::--------------;;;;;;;;;;;;;. ",
" .oOOOOOOOOOOOO@@@@@@@@@@@@@@&&&&&&&&&&&&&&$$$$$$$$$$$$$$::::::::::::::--------------;;;;;;;;;;;;;. ",
" .oOOOOOOOOOOOO@@@@@@@@@@@@@@&&&&&&&&&&&&&&$$$$$$$$$$$$$$::::::::::::::--------------;;;;;;;;;;;;;. ",
" .oOOOOOOOOOOOO@@@@@@@@@@@@@@&&&&&&&&&&&&&&$$$$$$$$$$$$$$::::::::::::::--------------;;;;;;;;;;;;;. ",
" .oOOOOOOOOOOOO@@@@@@@@@@@@@@&&&&&&&&&&&&&&$$$$$$$$$$$$$$::::::::::::::--------------;;;;;;;;;;;;;. ",
" .oOOOOOOOOOOOO@@@@@@@@@@@@@@&&&&&&&&&&&&&&$$$$$$$$$$$$$$::::::::::::::--------------;;;;;;;;;;;;;. ",
" .oOOOOOOOOOOOO@@@@@@@@@@@@@@&&&&&&&&&&&&&&$$$$$$$$$$$$$$::::::::::::::--------------;;;;;;;;;;;;;. ",
" .oOOOOOOOOOOOO@@@@@@@@@@@@@@&&&&&&&&&&&&&&$$$$$$$$$$$$$$::::::::::::::--------------;;;;;;;;;;;;;. ",
" .oOOOOOOOOOOOO@@@@@@@@@@@@@@&&&&&&&&&&&&&&$$$$$$$$$$$$$$::::::::::::::--------------;;;;;;;;;;;;;. ",
" .oOOOOOOOOOOOO@@@@@@@@@@@@@@&&&&&&&&&&&&&&$$$$$$$$$$$$$$::::::::::::::--------------;;;;;;;;;;;;;. ",
" .oOOOOOOOOOOOO@@@@@@@@@@@@@@&&&&&&&&&&&&&&$$$$$$$$$$$$$$::::::::::::::--------------;;;;;;;;;;;;;. ",
" .oOOOOOOOOOOOO@@@@@@@@@@@@@@&&&&&&&&&&&&&&$$$$$$$$$$$$$$::::::::::::::--------------;;;;;;;;;;;;;. ",
" .oOOOOOOOOOOOO@@@@@@@@@@@@@@&&&&&&&&&&&&&&$$$$$$$$$$$$$$::::::::::::::--------------;;;;;;;;;;;;;. ",
" .oOOOOOOOOOOOO@@@@@@@@@@@@@@&&&&&&&&&&&&&&$$$$$$$$$$$$$$::::::::::::::--------------;;;;;;;;;;;;;. ",
" .oOOOOOOOOOOOO@@@@@@@@@@@@@@&&&&&&&&&&&&&&$$$$$$$$$$$$$$::::::::::::::--------------;;;;;;;;;;;;;. ",
" .oOOOOOOOOOOOO@@@@@@@@@@@@@@&&&&&&&&&&&&&&$$$$$$$$$$$$$$::::::::::::::--------------;;;;;;;;;;;;;. ",
" .oOOOOOOOOOOOO@@@@@@@@@@@@@@&&&&&&&&&&&&&&$$$$$$$$$$$$$$::::::::::::::--------------;;;;;;;;;;;;;. ",
" .oOOOOOOOOOOOO@@@@@@@@@@@@@@&&&&&&&&&&&&&&$$$$$$$$$$$$$$::::::::::::::--------------;;;;;;;;;;;;;. ",
" .oOOOOOOOOOOOO@@@@@@@@@@@@@@&&&&&&&&&&&&&&$$$$$$$$$$$$$$::::::::::::::--------------;;;;;;;;;;;;;. ",
" .oOOOOOOOOOOOO@@@@@@@@@@@@@@&&&&&&&&&&&&&&$$$$$$$$$$$$$$::::::::::::::--------------;;;;;;;;;;;;;. ",
" .oOOOOOOOOOOOO@@@@@@@@@@@@@@&&&&&&&&&&&&&&$$$$$$$$$$$$$$::::::::::::::--------------;;;;;;;;;;;;;. ",
" .oOOOOOOOOOOOO@@@@@@@@@@@@@@&&&&&&&&&&&&&&$$$$$$$$$$$$$$::::::::::::::--------------;;;;;;;;;;;;;. ",
" .oOOOOOOOOOOOO@@@@@@@@@@@@@@&&&&&&&&&&&&&&$$$$$$$$$$$$$$::::::::::::::--------------;;;;;;;;;;;;;. ",
" .oOOOOOOOOOOOO@@@@@@@@@@@@@@&&&&&&&&&&&&&&$$$$$$$$$$$$$$::::::::::::::--------------;;;;;;;;;;;;;. ",
" .oOOOOOOOOOOOO@@@@@@@@@@@@@@&&&&&&&&&&&&&&$$$$$$$$$$$$$$::::::::::::::--------------;;;;;;;;;;;;;. ",
" .oOOOOOOOOOOOO@@@@@@@@@@@@@@&&&&&&&&&&&&&&$$$$$$$$$$$$$$::::::::::::::--------------;;;;;;;;;;;;;. ",
" .oOOOOOOOOOOOO@@@@@@@@@@@@@@&&&&&&&&&&&&&&$$$$$$$$$$$$$$::::::::::::::--------------;;;;;;;;;;;;;. ",
" .oOOOOOOOOOOOO@@@@@@@@@@@@@@&&&&&&&&&&&&&&$$$$$$$$$$$$$$::::::::::::::--------------;;;;;;;;;;;;;. ",
" .oOOOOOOOOOOOO@@@@@@@@@@@@@@&&&&&&&&&&&&&&$$$$$$$$$$$$$$::::::::::::::--------------;;;;;;;;;;;;;. ",
" .oOOOOOOOOOOOO@@@@@@@@@@@@@@&&&&&&&&&&&&&&$$$$$$$$$$$$$$::::::::::::::--------------;;;;;;;;;;;;;. ",
" .oOOOOOOOOOOOO@@@@@@@@@@@@@@&&&&&&&&&&&&&&$$$$$$$$$$$$$$::::::::::::::--------------;;;;;;;;;;;;;. ",
" .oOOOOOOOOOOOO@@@@@@@@@@@@@@&&&&&&&&&&&&&&$$$$$$$$$$$$$$::::::::::::::--------------;;;;;;;;;;;;;. ",
" .oOOOOOOOOOOOO@@@@@@@@@@@@@@&&&&&&&&&&&&&&$$$$$$$$$$$$$$::::::::::::::--------------;;;;;;;;;;;;;. ",
" .oOOOOOOOOOOOO@@@@@@@@@@@@@@&&&&&&&&&&&&&&$$$$$$$$$$$$$$::::::::::::::--------------;;;;;;;;;;;;;. ",
" .oOOOOOOOOOOOO@@@@@@@@@@@@@@&&&&&&&&&&&&&&$$$$$$$$$$$$$$::::::::::::::--------------;;;;;;;;;;;;;. ",
"                                                                                                    ",
"                                                                                                    ",
" .................................................................................................. ",
" .................................................................................................. ",
">> .ooooooooooo++++++++++++++%%%%%%%%%%%%%%##############==============**************XXXXXXXXXXX. >>",
">> .ooooooooooo++++++++++++++%%%%%%%%%%%%%%##############==============**************XXXXXXXXXXX. >>",
">> .OOOOOOOOOOO@@@@@@@@@@@@@@&&&&&&&&&&&&&&$$$$$$$$$$$$$$::::::::::::::--------------;;;;;;;;;;;. >>",
">> .OOOOOOOOOOO@@@@@@@@@@@@@@&&&&&&&&&&&&&&$$$$$$$$$$$$$$::::::::::::::--------------;;;;;;;;;;;. >>",
">> .OOOOOOOOOOO@@@@@@@@@@@@@@&&&&&&&&&&&&&&$$$$$$$$$$$$$$::::::::::::::--------------;;;;;;;;;;;. >>",
">> .OOOOOOOOOOO@@@@@@@@@@@@@@&&&&&&&&&&&&&&$$$$$$$$$$$$$$::::::::::::::--------------;;;;;;;;;;;. >>",
">> .OOOOOOOOOOO@@@@@@@@@@@@@@&&&&&&&&&&&&&&$$$$$$$$$$$$$$::::::::::::::--------------;;;;;;;;;;;. >>",
">> .OOOOOOOOOOO@@@@@@@@@@@@@@&&&&&&&&&&&&&&$$$$$$$$$$$$$$::::::::::::::--------------;;;;;;;;;;;. >>",
">> .OOOOOOOOOOO@@@@@@@@@@@@@@&&&&&&&&&&&&&&$$$$$$$$$$$$$$::::::::::::::--------------;;;;;;;;;;;. >>",
">> .OOOOOOOOOOO@@@@@@@@@@@@@@&&&&&&&&&&&&&&$$$$$$$$$$$$$$::::::::::::::--------------;;;;;;;;;;;. >>",
">> .OOOOOOOOOOO@@@@@@@@@@@@@@&&&&&&&&&&&&&&$$$$$$$$$$$$$$::::::::::::::--------------;;;;;;;;;;;. >>",
">> .OOOOOOOOOOO@@@@@@@@@@@@@@&&&&&&&&&&&&&&$$$$$$$$$$$$$$::::::::::::::--------------;;;;;;;;;;;. >>",
">> .OOOOOOOOOOO@@@@@@@@@@@@@@&&&&&&&&&&&&&&$$$$$$$$$$$$$$::::::::::::::--------------;;;;;;;;;;;. >>",
">> .OOOOOOOOOOO@@@@@@@@@@@@@@&&&&&&&&&&&&&&$$$$$$$$$$$$$$::::::::::::::--------------;;;;;;;;;;;. >>",
">> .OOOOOOOOOOO@@@@@@@@@@@@@@&&&&&&&&&&&&&&$$$$$$$$$$$$$$::::::::::::::--------------;;;;;;;;;;;. >>",
">> .OOOOOOOOOOO@@@@@@@@@@@@@@&&&&&&&&&&&&&&$$$$$$$$$$$$$$::::::::::::::--------------;;;;;;;;;;;. >>",
">> .OOOOOOOOOOO@@@@@@@@@@@@@@&&&&&&&&&&&&&&$$$$$$$$$$$$$$::::::::::::::--------------;;;;;;;;;;;. >>",
">> .OOOOOOOOOOO@@@@@@@@@@@@@@&&&&&&&&&&&&&&$$$$$$$$$$$$$$::::::::::::::--------------;;;;;;;;;;;. >>",
">> .OOOOOOOOOOO@@@@@@@@@@@@@@&&&&&&&&&&&&&&$$$$$$$$$$$$$$::::::::::::::--------------;;;;;;;;;;;. >>",
">> .OOOOOOOOOOO@@@@@@@@@@@@@@&&&&&&&&&&&&&&$$$$$$$$$$$$$$::::::::::::::--------------;;;;;;;;;;;. >>",
">> .OOOOOOOOOOO@@@@@@@@@@@@@@&&&&&&&&&&&&&&$$$$$$$$$$$$$$::::::::::::::--------------;;;;;;;;;;;. >>",
">> .OOOOOOOOOOO@@@@@@@@@@@@@@&&&&&&&&&&&&&&$$$$$$$$$$$$$$::::::::::::::--------------;;;;;;;;;;;. >>",
">> .OOOOOOOOOOO@@@@@@@@@@@@@@&&&&&&&&&&&&&&$$$$$$$$$$$$$$::::::::::::::--------------;;;;;;;;;;;. >>",
">> .OOOOOOOOOOO@@@@@@@@@@@@@@&&&&&&&&&&&&&&$$$$$$$$$$$$$$::::::::::::::--------------;;;;;;;;;;;. >>",
">> .OOOOOOOOOOO@@@@@@@@@@@@@@&&&&&&&&&&&&&&$$$$$$$$$$$$$$::::::::::::::--------------;;;;;;;;;;;. >>",
">> .OOOOOOOOOOO@@@@@@@@@@@@@@&&&&&&&&&&&&&&$$$$$$$$$$$$$$::::::::::::::--------------;;;;;;;;;;;. >>",
">> .OOOOOOOOOOO@@@@@@@@@@@@@@&&&&&&&&&&&&&&$$$$$$$$$$$$$$::::::::::::::--------------;;;;;;;;;;;. >>",
">> .OOOOOOOOOOO@@@@@@@@@@@@@@&&&&&&&&&&&&&&$$$$$$$$$$$$$$::::::::::::::--------------;;;;;;;;;;;. >>",
">> .OOOOOOOOOOO@@@@@@@@@@@@@@&&&&&&&&&&&&&&$$$$$$$$$$$$$$::::::::::::::--------------;;;;;;;;;;;. >>",
">> .OOOOOOOOOOO@@@@@@@@@@@@@@&&&&&&&&&&&&&&$$$$$$$$$$$$$$::::::::::::::--------------;;;;;;;;;;;. >>",
">> .OOOOOOOOOOO@@@@@@@@@@@@@@&&&&&&&&&&&&&&$$$$$$$$$$$$$$::::::::::::::--------------;;;;;;;;;;;. >>",
">> .OOOOOOOOOOO@@@@@@@@@@@@@@&&&&&&&&&&&&&&$$$$$$$$$$$$$$::::::::::::::--------------;;;;;;;;;;;. >>",
">> .OOOOOOOOOOO@@@@@@@@@@@@@@&&&&&&&&&&&&&&$$$$$$$$$$$$$$::::::::::::::--------------;;;;;;;;;;;. >>",
">> .OOOOOOOOOOO@@@@@@@@@@@@@@&&&&&&&&&&&&&&$$$$$$$$$$$$$$::::::::::::::--------------;;;;;;;;;;;. >>",
">> .OOOOOOOOOOO@@@@@@@@@@@@@@&&&&&&&&&&&&&&$$$$$$$$$$$$$$::::::::::::::--------------;;;;;;;;;;;. >>",
">> .OOOOOOOOOOO@@@@@@@@@@@@@@&&&&&&&&&&&&&&$$$$$$$$$$$$$$::::::::::::::--------------;;;;;;;;;;;. >>",
">> .OOOOOOOOOOO@@@@@@@@@@@@@@&&&&&&&&&&&&&&$$$$$$$$$$$$$$::::::::::::::--------------;;;;;;;;;;;. >>",
">> .OOOOOOOOOOO@@@@@@@@@@@@@@&&&&&&&&&&&&&&$$$$$$$$$$$$$$::::::::::::::--------------;;;;;;;;;;;. >>",
">> .OOOOOOOOOOO@@@@@@@@@@@@@@&&&&&&&&&&&&&&$$$$$$$$$$$$$$::::::::::::::--------------;;;;;;;;;;;. >>",
">> .OOOOOOOOOOO@@@@@@@@@@@@@@&&&&&&&&&&&&&&$$$$$$$$$$$$$$::::::::::::::--------------;;;;;;;;;;;. >>",
">> .OOOOOOOOOOO@@@@@@@@@@@@@@&&&&&&&&&&&&&&$$$$$$$$$$$$$$::::::::::::::--------------;;;;;;;;;;;. >>",
">> .OOOOOOOOOOO@@@@@@@@@@@@@@&&&&&&&&&&&&&&$$$$$$$$$$$$$$::::::::::::::--------------;;;;;;;;;;;. >>",
">> .OOOOOOOOOOO@@@@@@@@@@@@@@&&&&&&&&&&&&&&$$$$$$$$$$$$$$::::::::::::::--------------;;;;;;;;;;;. >>",
">> .OOOOOOOOOOO@@@@@@@@@@@@@@&&&&&&&&&&&&&&$$$$$$$$$$$$$$::::::::::::::--------------;;;;;;;;;;;. >>",
">> .OOOOOOOOOOO@@@@@@@@@@@@@@&&&&&&&&&&&&&&$$$$$$$$$$$$$$::::::::::::::--------------;;;;;;;;;;;. >>",
">> .OOOOOOOOOOO@@@@@@@@@@@@@@&&&&&&&&&&&&&&$$$$$$$$$$$$$$::::::::::::::--------------;;;;;;;;;;;. >>",
">> .OOOOOOOOOOO@@@@@@@@@@@@@@&&&&&&&&&&&&&&$$$$$$$$$$$$$$::::::::::::::--------------;;;;;;;;;;;. >>",
">> .OOOOOOOOOOO@@@@@@@@@@@@@@&&&&&&&&&&&&&&$$$$$$$$$$$$$$::::::::::::::--------------;;;;;;;;;;;. >>",
">> .OOOOOOOOOOO@@@@@@@@@@@@@@&&&&&&&&&&&&&&$$$$$$$$$$$$$$::::::::::::::--------------;;;;;;;;;;;. >>",
">> .OOOOOOOOOOO@@@@@@@@@@@@@@&&&&&&&&&&&&&&$$$$$$$$$$$$$$::::::::::::::--------------;;;;;;;;;;;. >>",
">> .OOOOOOOOOOO@@@@@@@@@@@@@@&&&&&&&&&&&&&&$$$$$$$$$$$$$$::::::::::::::--------------;;;;;;;;;;;. >>",
">> .OOOOOOOOOOO@@@@@@@@@@@@@@&&&&&&&&&&&&&&$$$$$$$$$$$$$$::::::::::::::--------------;;;;;;;;;;;. >>",
">> .OOOOOOOOOOO@@@@@@@@@@@@@@&&&&&&&&&&&&&&$$$$$$$$$$$$$$::::::::::::::--------------;;;;;;;;;;;. >>",
">> .OOOOOOOOOOO@@@@@@@@@@@@@@&&&&&&&&&&&&&&$$$$$$$$$$$$$$::::::::::::::--------------;;;;;;;;;;;. >>",
">> .OOOOOOOOOOO@@@@@@@@@@@@@@&&&&&&&&&&&&&&$$$$$$$$$$$$$$::::::::::::::--------------;;;;;;;;;;;. >>"
};
