/* XPM */
static char *_9e59eb0582f4901cab10a02699b0c7cmi1pQcfU5INQ6QQi[] = {
/* columns rows colors chars-per-pixel */
"100 100 10 1 ",
"  c black",
". c gray9",
"X c #ED1C24",
"o c #FF7F27",
"O c #22B14C",
"+ c #FFF200",
"@ c #3F48CC",
"# c #A349A4",
"$ c #00A2E8",
"% c white",
/* pixels */
"%% .XXXXXXXXXXXoooooooooooooo++++++++++++++OOOOOOOOOOOOOO$$$$$$$$$$$$$$@@@@@@@@@@@@@@###########. %%",
"%% .XXXXXXXXXXXoooooooooooooo++++++++++++++OOOOOOOOOOOOOO$$$$$$$$$$$$$$@@@@@@@@@@@@@@###########. %%",
"%% .XXXXXXXXXXXoooooooooooooo++++++++++++++OOOOOOOOOOOOOO$$$$$$$$$$$$$$@@@@@@@@@@@@@@###########. %%",
"%% .XXXXXXXXXXXoooooooooooooo++++++++++++++OOOOOOOOOOOOOO$$$$$$$$$$$$$$@@@@@@@@@@@@@@###########. %%",
"%% .XXXXXXXXXXXoooooooooooooo++++++++++++++OOOOOOOOOOOOOO$$$$$$$$$$$$$$@@@@@@@@@@@@@@###########. %%",
"%% .XXXXXXXXXXXoooooooooooooo++++++++++++++OOOOOOOOOOOOOO$$$$$$$$$$$$$$@@@@@@@@@@@@@@###########. %%",
"%% .XXXXXXXXXXXoooooooooooooo++++++++++++++OOOOOOOOOOOOOO$$$$$$$$$$$$$$@@@@@@@@@@@@@@###########. %%",
"%% .XXXXXXXXXXXoooooooooooooo++++++++++++++OOOOOOOOOOOOOO$$$$$$$$$$$$$$@@@@@@@@@@@@@@###########. %%",
"%% .XXXXXXXXXXXoooooooooooooo++++++++++++++OOOOOOOOOOOOOO$$$$$$$$$$$$$$@@@@@@@@@@@@@@###########. %%",
"%% .XXXXXXXXXXXoooooooooooooo++++++++++++++OOOOOOOOOOOOOO$$$$$$$$$$$$$$@@@@@@@@@@@@@@###########. %%",
"%% .XXXXXXXXXXXoooooooooooooo++++++++++++++OOOOOOOOOOOOOO$$$$$$$$$$$$$$@@@@@@@@@@@@@@###########. %%",
"%% .XXXXXXXXXXXoooooooooooooo++++++++++++++OOOOOOOOOOOOOO$$$$$$$$$$$$$$@@@@@@@@@@@@@@###########. %%",
"%% .XXXXXXXXXXXoooooooooooooo++++++++++++++OOOOOOOOOOOOOO$$$$$$$$$$$$$$@@@@@@@@@@@@@@###########. %%",
"%% .XXXXXXXXXXXoooooooooooooo++++++++++++++OOOOOOOOOOOOOO$$$$$$$$$$$$$$@@@@@@@@@@@@@@###########. %%",
"%% .XXXXXXXXXXXoooooooooooooo++++++++++++++OOOOOOOOOOOOOO$$$$$$$$$$$$$$@@@@@@@@@@@@@@###########. %%",
"%% .XXXXXXXXXXXoooooooooooooo++++++++++++++OOOOOOOOOOOOOO$$$$$$$$$$$$$$@@@@@@@@@@@@@@###########. %%",
"%% .XXXXXXXXXXXoooooooooooooo++++++++++++++OOOOOOOOOOOOOO$$$$$$$$$$$$$$@@@@@@@@@@@@@@###########. %%",
"%% .XXXXXXXXXXXoooooooooooooo++++++++++++++OOOOOOOOOOOOOO$$$$$$$$$$$$$$@@@@@@@@@@@@@@###########. %%",
"%% .XXXXXXXXXXXoooooooooooooo++++++++++++++OOOOOOOOOOOOOO$$$$$$$$$$$$$$@@@@@@@@@@@@@@###########. %%",
"%% .XXXXXXXXXXXoooooooooooooo++++++++++++++OOOOOOOOOOOOOO$$$$$$$$$$$$$$@@@@@@@@@@@@@@###########. %%",
"%% .XXXXXXXXXXXoooooooooooooo++++++++++++++OOOOOOOOOOOOOO$$$$$$$$$$$$$$@@@@@@@@@@@@@@###########. %%",
"%% .XXXXXXXXXXXoooooooooooooo++++++++++++++OOOOOOOOOOOOOO$$$$$$$$$$$$$$@@@@@@@@@@@@@@###########. %%",
"%% .XXXXXXXXXXXoooooooooooooo++++++++++++++OOOOOOOOOOOOOO$$$$$$$$$$$$$$@@@@@@@@@@@@@@###########. %%",
"%% .XXXXXXXXXXXoooooooooooooo++++++++++++++OOOOOOOOOOOOOO$$$$$$$$$$$$$$@@@@@@@@@@@@@@###########. %%",
"%% .XXXXXXXXXXXoooooooooooooo++++++++++++++OOOOOOOOOOOOOO$$$$$$$$$$$$$$@@@@@@@@@@@@@@###########. %%",
"%% .XXXXXXXXXXXoooooooooooooo++++++++++++++OOOOOOOOOOOOOO$$$$$$$$$$$$$$@@@@@@@@@@@@@@###########. %%",
"%% .XXXXXXXXXXXoooooooooooooo++++++++++++++OOOOOOOOOOOOOO$$$$$$$$$$$$$$@@@@@@@@@@@@@@###########. %%",
"%% .XXXXXXXXXXXoooooooooooooo++++++++++++++OOOOOOOOOOOOOO$$$$$$$$$$$$$$@@@@@@@@@@@@@@###########. %%",
"%% .XXXXXXXXXXXoooooooooooooo++++++++++++++OOOOOOOOOOOOOO$$$$$$$$$$$$$$@@@@@@@@@@@@@@###########. %%",
"%% .XXXXXXXXXXXoooooooooooooo++++++++++++++OOOOOOOOOOOOOO$$$$$$$$$$$$$$@@@@@@@@@@@@@@###########. %%",
"%% .XXXXXXXXXXXoooooooooooooo++++++++++++++OOOOOOOOOOOOOO$$$$$$$$$$$$$$@@@@@@@@@@@@@@###########. %%",
"%% .XXXXXXXXXXXoooooooooooooo++++++++++++++OOOOOOOOOOOOOO$$$$$$$$$$$$$$@@@@@@@@@@@@@@###########. %%",
"%% .XXXXXXXXXXXoooooooooooooo++++++++++++++OOOOOOOOOOOOOO$$$$$$$$$$$$$$@@@@@@@@@@@@@@###########. %%",
"%% .XXXXXXXXXXXoooooooooooooo++++++++++++++OOOOOOOOOOOOOO$$$$$$$$$$$$$$@@@@@@@@@@@@@@###########. %%",
"%% .XXXXXXXXXXXoooooooooooooo++++++++++++++OOOOOOOOOOOOOO$$$$$$$$$$$$$$@@@@@@@@@@@@@@###########. %%",
"%% .XXXXXXXXXXXoooooooooooooo++++++++++++++OOOOOOOOOOOOOO$$$$$$$$$$$$$$@@@@@@@@@@@@@@###########. %%",
"%% .XXXXXXXXXXXoooooooooooooo++++++++++++++OOOOOOOOOOOOOO$$$$$$$$$$$$$$@@@@@@@@@@@@@@###########. %%",
"%% .XXXXXXXXXXXoooooooooooooo++++++++++++++OOOOOOOOOOOOOO$$$$$$$$$$$$$$@@@@@@@@@@@@@@###########. %%",
"%% .XXXXXXXXXXXoooooooooooooo++++++++++++++OOOOOOOOOOOOOO$$$$$$$$$$$$$$@@@@@@@@@@@@@@###########. %%",
"%% .XXXXXXXXXXXoooooooooooooo++++++++++++++OOOOOOOOOOOOOO$$$$$$$$$$$$$$@@@@@@@@@@@@@@###########. %%",
"%% .XXXXXXXXXXXoooooooooooooo++++++++++++++OOOOOOOOOOOOOO$$$$$$$$$$$$$$@@@@@@@@@@@@@@###########. %%",
"%% .XXXXXXXXXXXoooooooooooooo++++++++++++++OOOOOOOOOOOOOO$$$$$$$$$$$$$$@@@@@@@@@@@@@@###########. %%",
"%% .XXXXXXXXXXXoooooooooooooo++++++++++++++OOOOOOOOOOOOOO$$$$$$$$$$$$$$@@@@@@@@@@@@@@###########. %%",
"%% .XXXXXXXXXXXoooooooooooooo++++++++++++++OOOOOOOOOOOOOO$$$$$$$$$$$$$$@@@@@@@@@@@@@@###########. %%",
"%% .XXXXXXXXXXXoooooooooooooo++++++++++++++OOOOOOOOOOOOOO$$$$$$$$$$$$$$@@@@@@@@@@@@@@###########. %%",
"%% .XXXXXXXXXXXoooooooooooooo++++++++++++++OOOOOOOOOOOOOO$$$$$$$$$$$$$$@@@@@@@@@@@@@@###########. %%",
"%% .XXXXXXXXXXXoooooooooooooo++++++++++++++OOOOOOOOOOOOOO$$$$$$$$$$$$$$@@@@@@@@@@@@@@###########. %%",
"%% .XXXXXXXXXXXoooooooooooooo++++++++++++++OOOOOOOOOOOOOO$$$$$$$$$$$$$$@@@@@@@@@@@@@@###########. %%",
"%% .XXXXXXXXXXXoooooooooooooo++++++++++++++OOOOOOOOOOOOOO$$$$$$$$$$$$$$@@@@@@@@@@@@@@###########. %%",
"%% .XXXXXXXXXXXoooooooooooooo++++++++++++++OOOOOOOOOOOOOO$$$$$$$$$$$$$$@@@@@@@@@@@@@@###########. %%",
"%% .XXXXXXXXXXXoooooooooooooo++++++++++++++OOOOOOOOOOOOOO$$$$$$$$$$$$$$@@@@@@@@@@@@@@###########. %%",
"%% .XXXXXXXXXXXoooooooooooooo++++++++++++++OOOOOOOOOOOOOO$$$$$$$$$$$$$$@@@@@@@@@@@@@@###########. %%",
"%% .XXXXXXXXXXXoooooooooooooo++++++++++++++OOOOOOOOOOOOOO$$$$$$$$$$$$$$@@@@@@@@@@@@@@###########. %%",
"%% .XXXXXXXXXXXoooooooooooooo++++++++++++++OOOOOOOOOOOOOO$$$$$$$$$$$$$$@@@@@@@@@@@@@@###########. %%",
"%% .XXXXXXXXXXXoooooooooooooo++++++++++++++OOOOOOOOOOOOOO$$$$$$$$$$$$$$@@@@@@@@@@@@@@###########. %%",
"%% .XXXXXXXXXXXoooooooooooooo++++++++++++++OOOOOOOOOOOOOO$$$$$$$$$$$$$$@@@@@@@@@@@@@@###########. %%",
"%% .XXXXXXXXXXXoooooooooooooo++++++++++++++OOOOOOOOOOOOOO$$$$$$$$$$$$$$@@@@@@@@@@@@@@###########. %%",
"%% .XXXXXXXXXXXoooooooooooooo++++++++++++++OOOOOOOOOOOOOO$$$$$$$$$$$$$$@@@@@@@@@@@@@@###########. %%",
"%% .XXXXXXXXXXXoooooooooooooo++++++++++++++OOOOOOOOOOOOOO$$$$$$$$$$$$$$@@@@@@@@@@@@@@###########. %%",
"%% .XXXXXXXXXXXoooooooooooooo++++++++++++++OOOOOOOOOOOOOO$$$$$$$$$$$$$$@@@@@@@@@@@@@@###########. %%",
"%% .XXXXXXXXXXXoooooooooooooo++++++++++++++OOOOOOOOOOOOOO$$$$$$$$$$$$$$@@@@@@@@@@@@@@###########. %%",
"%% .XXXXXXXXXXXoooooooooooooo++++++++++++++OOOOOOOOOOOOOO$$$$$$$$$$$$$$@@@@@@@@@@@@@@###########. %%",
"%% .XXXXXXXXXXXoooooooooooooo++++++++++++++OOOOOOOOOOOOOO$$$$$$$$$$$$$$@@@@@@@@@@@@@@###########. %%",
"%% .XXXXXXXXXXXoooooooooooooo++++++++++++++OOOOOOOOOOOOOO$$$$$$$$$$$$$$@@@@@@@@@@@@@@###########. %%",
"%% .XXXXXXXXXXXoooooooooooooo++++++++++++++OOOOOOOOOOOOOO$$$$$$$$$$$$$$@@@@@@@@@@@@@@###########. %%",
"%% .XXXXXXXXXXXoooooooooooooo++++++++++++++OOOOOOOOOOOOOO$$$$$$$$$$$$$$@@@@@@@@@@@@@@###########. %%",
"%% .XXXXXXXXXXXoooooooooooooo++++++++++++++OOOOOOOOOOOOOO$$$$$$$$$$$$$$@@@@@@@@@@@@@@###########. %%",
"%% .XXXXXXXXXXXoooooooooooooo++++++++++++++OOOOOOOOOOOOOO$$$$$$$$$$$$$$@@@@@@@@@@@@@@###########. %%",
"%% .XXXXXXXXXXXoooooooooooooo++++++++++++++OOOOOOOOOOOOOO$$$$$$$$$$$$$$@@@@@@@@@@@@@@###########. %%",
"%% .XXXXXXXXXXXoooooooooooooo++++++++++++++OOOOOOOOOOOOOO$$$$$$$$$$$$$$@@@@@@@@@@@@@@###########. %%",
"%% .XXXXXXXXXXXoooooooooooooo++++++++++++++OOOOOOOOOOOOOO$$$$$$$$$$$$$$@@@@@@@@@@@@@@###########. %%",
"%% .XXXXXXXXXXXoooooooooooooo++++++++++++++OOOOOOOOOOOOOO$$$$$$$$$$$$$$@@@@@@@@@@@@@@###########. %%",
"%% .XXXXXXXXXXXoooooooooooooo++++++++++++++OOOOOOOOOOOOOO$$$$$$$$$$$$$$@@@@@@@@@@@@@@###########. %%",
"%% .XXXXXXXXXXXoooooooooooooo++++++++++++++OOOOOOOOOOOOOO$$$$$$$$$$$$$$@@@@@@@@@@@@@@###########. %%",
"%% .XXXXXXXXXXXoooooooooooooo++++++++++++++OOOOOOOOOOOOOO$$$$$$$$$$$$$$@@@@@@@@@@@@@@###########. %%",
"%% .XXXXXXXXXXXoooooooooooooo++++++++++++++OOOOOOOOOOOOOO$$$$$$$$$$$$$$@@@@@@@@@@@@@@###########. %%",
"%% .XXXXXXXXXXXoooooooooooooo++++++++++++++OOOOOOOOOOOOOO$$$$$$$$$$$$$$@@@@@@@@@@@@@@###########. %%",
"%% .XXXXXXXXXXXoooooooooooooo++++++++++++++OOOOOOOOOOOOOO$$$$$$$$$$$$$$@@@@@@@@@@@@@@###########. %%",
"%% .XXXXXXXXXXXoooooooooooooo++++++++++++++OOOOOOOOOOOOOO$$$$$$$$$$$$$$@@@@@@@@@@@@@@###########. %%",
"%% .XXXXXXXXXXXoooooooooooooo++++++++++++++OOOOOOOOOOOOOO$$$$$$$$$$$$$$@@@@@@@@@@@@@@###########. %%",
"%% .XXXXXXXXXXXoooooooooooooo++++++++++++++OOOOOOOOOOOOOO$$$$$$$$$$$$$$@@@@@@@@@@@@@@###########. %%",
"%% .XXXXXXXXXXXoooooooooooooo++++++++++++++OOOOOOOOOOOOOO$$$$$$$$$$$$$$@@@@@@@@@@@@@@###########. %%",
"%% .XXXXXXXXXXXoooooooooooooo++++++++++++++OOOOOOOOOOOOOO$$$$$$$$$$$$$$@@@@@@@@@@@@@@###########. %%",
"%% .XXXXXXXXXXXoooooooooooooo++++++++++++++OOOOOOOOOOOOOO$$$$$$$$$$$$$$@@@@@@@@@@@@@@###########. %%",
"%% .XXXXXXXXXXXoooooooooooooo++++++++++++++OOOOOOOOOOOOOO$$$$$$$$$$$$$$@@@@@@@@@@@@@@###########. %%",
"%% .XXXXXXXXXXXoooooooooooooo++++++++++++++OOOOOOOOOOOOOO$$$$$$$$$$$$$$@@@@@@@@@@@@@@###########. %%",
"%% .XXXXXXXXXXXoooooooooooooo++++++++++++++OOOOOOOOOOOOOO$$$$$$$$$$$$$$@@@@@@@@@@@@@@###########. %%",
"%% .XXXXXXXXXXXoooooooooooooo++++++++++++++OOOOOOOOOOOOOO$$$$$$$$$$$$$$@@@@@@@@@@@@@@###########. %%",
"%% .XXXXXXXXXXXoooooooooooooo++++++++++++++OOOOOOOOOOOOOO$$$$$$$$$$$$$$@@@@@@@@@@@@@@###########. %%",
"%% .XXXXXXXXXXXoooooooooooooo++++++++++++++OOOOOOOOOOOOOO$$$$$$$$$$$$$$@@@@@@@@@@@@@@###########. %%",
"%% .XXXXXXXXXXXoooooooooooooo++++++++++++++OOOOOOOOOOOOOO$$$$$$$$$$$$$$@@@@@@@@@@@@@@###########. %%",
"%% .XXXXXXXXXXXoooooooooooooo++++++++++++++OOOOOOOOOOOOOO$$$$$$$$$$$$$$@@@@@@@@@@@@@@###########. %%",
"%% .XXXXXXXXXXXoooooooooooooo++++++++++++++OOOOOOOOOOOOOO$$$$$$$$$$$$$$@@@@@@@@@@@@@@###########. %%",
"%% .XXXXXXXXXXXoooooooooooooo++++++++++++++OOOOOOOOOOOOOO$$$$$$$$$$$$$$@@@@@@@@@@@@@@###########. %%",
"%% .XXXXXXXXXXXoooooooooooooo++++++++++++++OOOOOOOOOOOOOO$$$$$$$$$$$$$$@@@@@@@@@@@@@@###########. %%",
"%% .XXXXXXXXXXXoooooooooooooo++++++++++++++OOOOOOOOOOOOOO$$$$$$$$$$$$$$@@@@@@@@@@@@@@###########. %%",
"%% .XXXXXXXXXXXoooooooooooooo++++++++++++++OOOOOOOOOOOOOO$$$$$$$$$$$$$$@@@@@@@@@@@@@@###########. %%",
"%% .XXXXXXXXXXXoooooooooooooo++++++++++++++OOOOOOOOOOOOOO$$$$$$$$$$$$$$@@@@@@@@@@@@@@###########. %%",
"%% .XXXXXXXXXXXoooooooooooooo++++++++++++++OOOOOOOOOOOOOO$$$$$$$$$$$$$$@@@@@@@@@@@@@@###########. %%",
"%% .XXXXXXXXXXXoooooooooooooo++++++++++++++OOOOOOOOOOOOOO$$$$$$$$$$$$$$@@@@@@@@@@@@@@###########. %%"
};
