/* XPM */
static char *result[] = {
/* columns rows colors chars-per-pixel */
"64 64 15 1 ",
"  c #595652",
". c #696A6A",
"X c #BC3535",
"o c #FB0000",
"O c #FF0404",
"+ c #92562B",
"@ c #DC7F0F",
"# c #FAB40B",
"$ c #8CD612",
"% c #EC9546",
"& c #1C6CCB",
"* c #1E79E5",
"= c #847E87",
"- c #FFF9E4",
"; c white",
/* pixels */
";;;;;;;;;;;;;;;;;;;;;;;;;;;;;;;;;;;;;;;;;;;;;;;;;;;;;;;;;;;;;;;;",
";;;;;;;;;;;;;;;;;;;;;;;;;;;;;;;;;;;;;;;;;;;;;;;;;;;;;;;;;;;;;;;;",
";;;;;;;;;;;;;;;;;;;;;;;;;;;;;;;;;;;;;;;;;;;;;;;;;;;;;;;;;;;;;;;;",
";;;;;;;;;;;;;;;;;;;;;;;;;;;;;;;;;;;;;;;;;;;;;;;;;;;;;;;;;;;;;;;;",
";;;;;;;;;;;;;;;;;;;;;;;;;;;;;;;;;;;;;;;;;;;;;;;;;;;;;;;;;;;;;;;;",
";;;;;;;;;;;;;;;;;;;;;;;;;;;;;;;;;;;;;;;;;;;;;;;;;;;;;;;;;;;;;;;;",
";;;;;;;;;;;;;;;;;;;;;;;;;;;;;;;;;;;;;;;;;;;;;;;;;;;;;;;;;;;;;;;;",
";;;;;;;;;;;;;;;;;;;;;;;;;;;;;;;;;;;;;;;;;;;;;;;;;;;;;;;;;;;;;;;;",
";;;;;;;;;;;;;;;;;;;;;;;;;;;;;;;;;;;;;;;;;;;;;;;;;;;;;;;;;;;;;;;;",
";;;;;;;;;;;;;;;;;;;;;;;;;;;;;;;;;;;;;;;;;;;;;;;;;;;;;;;;;;;;;;;;",
";;;;;;;;;;;;;;;;;;;;;;;;;;;;;;;;;;;;;;;;;;;;;;;;;;;;;;;;;;;;;;;;",
";;;;;;;;;;;;;;;;;;;;;;;;;;;;;;;;;;;;;;;;;;;;;;;;;;;;;;;;;;;;;;;;",
";;;;;;;;;;;;;;;;;;;;;;;;;;;;;;;;;;;;;;;;;;;;;;;;;;;;;;;;;;;;;;;;",
";;;;;;;;;;;;;;;;;;;;;;;;;;;;;;;;;;;;;;;;;;;;;;;;;;;;;;;;;;;;;;;;",
";;;;;;;;;;;;;;;;;;;;;;;;;;;;;;;;;;;;;;;;;;;;;;;;;;;;;;;;;;;;;;;;",
";;;;;;;;;;;;;;;;;;;;;;;;;;;;;;;;;;;;;;;;;;;;;;;;;;;;;;;;;;;;;;;;",
";;;;;;;;;;;;;;;;;;;;;;;;;;;;;;;;;;;;;;;;;;;;;;;;;;;;;;;;;;;;;;;;",
";;;;;;;;;;;;;;;;;;;;;;;;;;;;;;;;;;;;;;;;;;;;;;;;;;;;;;;;;;;;;;;;",
";;;;;;;;;;;;;;;;;;;;;;;;;;;;;;;;;;;;;;;;....;;;;;;;;;;;;;;;;;;;;",
";;;;;;;;;;;;;;;;;;;;;;;;;;;;;;;;;;;;;;;.;..;..;;;;;;;;;;;;;;;;;;",
";;;;;;;;;;;;;;;;;;;;;;;;;;;;;;;;;;;;;;.;;..;;;..;;;;;;;;;;;;;;;;",
";;;;;;;;;;;;;;;;;;;;;;;;;;;;;;;;;;;;;.;;....;;;;.;;;;;;;;;;;;;;;",
";;;;         ;;;;;;;;;;;;;;;;;;;;;;;.;;;....;;;;;..;;;;;;;;;;;;;",
";;;;;;;; ;;;;;  ;;;;;;;;;;;;;;;;;;;.;;;;.;;.;;;;;;;..;;;;;;;;;;;",
";;;;;;;         ;;;;;;;;;;;;;;;;;;.;;;;..;;..;;;;;;;;.;;;;;;;;;;",
";;;;;;     ;;;;;;;;;;;;;;;;;;;;;;.;;;;;.;..;.;;;;;;;;;..;;;;;;;;",
";o;;;     ;;;;;;o;;;...;;;;;;;;;.;;;;;;.;..;.;;;;;;;;;;;..;;;;;;",
";....=...........;;.....;;;;;;;.;;;;;;...;;...;;;;;;;;;;;;.;;;;;",
";...=............;.......;;;................................;;;;",
";.&&&&&&&&&&&&&&.;.#####.;;;.;.;.;.;....&&&&....;.;.;.;.;.;..;;;",
";.**************.;.#...#.;;;..;.;.;.;...****...;.;.;.;.;.;.;...;",
";................;.####..;;;....................................",
";.....%%%%%%.....;.#...#.;;;;;.......;........;;;;;;;.....;;;;;;",
";...%%-%%%-%%%...;.#####.;;;;;.......;;..;;..;;;;;;;;;;.;;;;;;;;",
";..%-%%%-%%%-%%..;.......;;;;;.......;;.;..;.;;;;;;;;;;.;;;;;;;;",
";.%%%%%%%%%%%%%%.;.#####.;;;;;;;;;;;;;;......;;;;;;;;;;.;;;;;;;;",
";.##############.;.#...#.;;;;;;;;;;;;;;..;;;.;;;;;;;;;;..;;;;;;;",
";.XXXXXXXXXXXXXX...#####.;;;;;;;;;;;;;;.;.;;.;;;;;;;;;;;.;;;;;;;",
";.$$$$$$$$$$$$$$.;.#.#...;;;;;;;;;;;;;;.;;.;.;;;;;;;;;;.;;;;;;;;",
";.++++++++++++++.;.#..#..;;;;;;;;;;;;;;.;;;..;;;;;;;;;;;;;;;;;;;",
";.++++++++++++++.;.......;;;;;;;;;;;;;;.;;.;.;;;;;;;;;;;;;;;;;;;",
";.@@@@@@@@@@@@@@.;.#####.;;;;;;;;;;;;;;.;.;;.;;;;;;;;;;;;;;;;;;;",
";.@@@@@@@@@@@@@@.;.#.....;;;;;;;;;;;;;;..;;;.;;;;;;;;;;;;;;;;;;;",
";..@@@@@@@@@@@@..;.####..;;;;;;;;;;;;;;.;.;;.;;;;;;;;;;;;;;;;;;;",
";................;.#.....;;;;;;;;;;;;;;.;;.;.;;;;;;;;;;;;;;;;;;;",
";.OOO..O..O.OOO..;.#####.;;;;;;;;;;;;;;.;;;..;;;;;;;;;;;;;;;;;;;",
";.O..O.O..O.O..O.;.......;;;;;;;;;;;;;;.;;.;.;;;;;;;;;;;;;;;;;;;",
";.O..O.O..O.O..O.;..###..;;;;;;;;;;;;;;.;.;;.;;;;;;;;;;;;;;;;;;;",
";.OOO..O..O.OOO..;.##.##.;;;;;;;;;;;;;;..;;;.;;;;;;;;;;;;;;;;;;;",
";.O..O.O..O.O..O.;.#...#.;;;;;;;;;;;;;;.;.;;.;;;;;;;;;;;;;;;;;;;",
";.O..O.O..O.O..O.;.#####.;;;;;;;;;;;;;;.;;.;.;;;;;;;;;;;;;;;;;;;",
";.OOO...OO..O..O.;.#...#.;;;;;;;;;;;;;;.;;;..;;;;;;;;;;;;;;;;;;;",
";........................;;;;;;;;;;;;;;.;;.;.;;;;;;;;;;;;;;;;;;;",
";..OO..OOOO.OOO..;.####..;;;;;;;;;;;;;;.;.;;.;;;;;;;;;;;;;;;;;;;",
";.O..O.O....O..O.;.#...#.;;;;;;;;;;;;;;..;;;.;;;;;;;;;;;;;;;;;;;",
";.O....O....O..O.;.#...#.;;;;;;;;;;;;;;.;.;;.;;;;;;;;;;;;;;;;;;;",
";.O.OO.OOO..OOO..;.#...#.;;;;;;;;;;;;;;.;;.;.;;;;;;;;;;;;;;;;;;;",
";.O..O.O....O..O.;.####..;;;;;;;;;;;;;;.;;;..;;;;;;;;;;;;;;;;;;;",
";.O..O.O....O..O.;.......;;;;;;;;;;;;;;.;;.;.;;;;;;;;;;;;;;;;;;;",
";..OO..OOOO.O..O.;;.....;;;;;;;;;;;;;;;.;.;;.;;;;;;;;;;;;;;;;;;;",
";................;;;...;;;;;;;;;;;;;;;;..;;;.;;;;;;;;;;;;;;;;;;;",
";................;;;;;;;;;;;;;;;;;;;;;;......;;;;;;;;;;;;;;;;;;;",
";................;;;;;;;;;;;;;;;;;;;;;........;;;;;;;;;;;;;;;;;;",
";................;;;;;;;;;;;;;;;;;;;;..........;;;;;;;;;;;;;;;;;"
};
