/* XPM */
static char *result[] = {
/* columns rows colors chars-per-pixel */
"12 16 2 1 ",
"  c black",
". c white",
/* pixels */
"............",
".          .",
".          .",
"........  ..",
"........  ..",
".......  ...",
".......  ...",
"......  ....",
"......  ....",
".....  .....",
".....  .....",
"....  ......",
"....  ......",
"...  .......",
"...  .......",
"............"
};
