/* XPM */
static char *result[] = {
/* columns rows colors chars-per-pixel */
"20 20 9 1 ",
"  c black",
". c gray16",
"X c gray29",
"o c gray42",
"O c #BD6262",
"+ c #838383",
"@ c #A4A4A4",
"# c gray87",
"$ c white",
/* pixels */
"$$$$$$$$$$$$$$$$$$$$",
"$$$$$$$$$$$$$$$$$$$$",
"$$$$$$$$$ $$$$$$$$$$",
"$$$$$$   @ $$$$$   $",
"$$$$$ +@@@@ $$  XXX ",
"$$$$ +@@@@@ $ .XXXX$",
"$$$ ++@@@@@o @.+@XX ",
"$$$ +   o@o XX@    $",
"$$$  ..+o  +XX #. $$",
"$$ XX....@+.X @+#@ $",
"$ XX+@@+..XX X @+@ $",
" XXXX@o@oX.X ..@@@ $",
"$  XXX@ooXX. @@@oo $",
"$$$  X  o XX  oo  $$",
"$$$$$ $$ $  O    O $",
"$$$$$$$$$$$ O $$$  $",
"$$$$$$$$$$$ X $$$$$$",
"$$$$$$$$$$$$ $$$$$$$",
"$$$$$$$$$$$$$$$$$$$$",
"$$$$$$$$$$$$$$$$$$$$"
};
