/* XPM */
static char *result[] = {
/* columns rows colors chars-per-pixel */
"20 20 16 1 ",
"  c black",
". c gray16",
"X c #45283C",
"o c #6A3139",
"O c gray29",
"+ c gray42",
"@ c #BD6262",
"# c #37946E",
"$ c #CE9823",
"% c #FFBD29",
"& c #CEA140",
"* c #838383",
"= c #A4A4A4",
"- c gray87",
"; c #FFFFFE",
": c white",
/* pixels */
":::::: :::::::::::::",
"::::: = :: :::::::::",
"::  : =   =   ::::::",
":: .  +  ===== :::::",
":: -. +  =====* ::::",
"::: --  +======* :::",
"::   -+ ====*&== :::",
":: -- - ===;%;&@  ::",
"::: ---+ ==;$.*OOO :",
"::   --- ====*@@   :",
":: -- --+ ===+  ::::",
"::: -----+ == ::::::",
":::: ----.O.X# :::::",
":::  ---.OOO-X :::::",
":: ++--..OO--- :::::",
": -*+  +.=+-  ::::::",
": =+ ::  @o @ ::::::",
":   ::::: @O :::::::",
":::::::::: @ :::::::",
"::::::::::: ::::::::"
};
