/* XPM */
static char *result[] = {
/* columns rows colors chars-per-pixel */
"20 20 15 1 ",
"  c black",
". c gray16",
"X c gray29",
"o c gray42",
"O c #BD6262",
"+ c #37946E",
"@ c #CE9823",
"# c #FFBD29",
"$ c #CEA140",
"% c #76428A",
"& c #838383",
"* c #A4A4A4",
"= c gray87",
"- c #FFFFFE",
"; c white",
/* pixels */
";;;;;;;;;;  ;;;;;;;;",
";;;;;;;;; *o  ;;;;;;",
";;;;;;;; ***** ;;;;;",
";;;;;;;; *****& ;;;;",
";;;;;;; o******& ;;;",
";;;;;;; ****&$** ;;;",
";;;;;;; ***-#-$O  ;;",
";;;;;;;  **-@.&XXX ;",
";;;;;;; o****&OO   ;",
";;;;;; *. ***o  ;;;;",
";;;;;; .X.  ** ;;;;;",
";;;;; &XXXX .%+ ;;;;",
";;;;  o.XX. ==% ;;;;",
";;; o**XX.&o == ;;;;",
";; =&*oXo**X   ;;;;;",
";; *o  o.*XX O ;;;;;",
";;   ;; *XXXO ;;;;;;",
";;;;;;;; XXoO ;;;;;;",
";;;;;;;;; X  ;;;;;;;",
";;;;;;;;;  ;;;;;;;;;"
};
